<?xml version="1.0" encoding="UTF-8"?><svg xmlns="http://www.w3.org/2000/svg" preserveAspectRatio="none" viewBox="0 0 650 160"><g id="sign_rounder"><g><path d="M58.25,88.11c-22.91-17.52-13.64-33.8-10.02-38.69h0s.05-.1,.05-.15c0-.14-.11-.25-.25-.25-.06,0-.1,.02-.15,.05h0c-6.75,5.07-11.98,11.98-15.02,19.92-1.52,4.09-4.72,18.98,8.16,29.96,0,0,5.71,4.65,2.82,5.56-2.15,.68-7.19-.25-11.78-7.45h0c-.04-.07-.12-.12-.21-.12-.14,0-.25,.11-.25,.25,0,.03,0,.05,.02,.07h0c.61,2.16,1.37,4.25,2.27,6.26,2.07,4.05,4.63,7.53,7.41,10.16,13.79,12.98,46.07-3.29,16.95-25.56Z"/><path d="M90.04,97.66c-3.8,29.11-26.36,28.85-32.84,28.16h0s-.01,0-.02,0c-.14,0-.25,.11-.25,.25,0,.11,.07,.19,.16,.23,6.5,2.81,13.77,4.13,21.33,3.54,13.79-1.08,25.64-8.26,33.1-18.7,2.44-3.77,4.16-7.69,5.03-11.38,4.35-18.42-21.76-38.45-26.5-2.11Z"/><path d="M119.62,79.97h0c-1.08-9.67-5.13-18.36-11.29-25.05-11.79-12.8-22.16-8.97-23.89-8.2h0s-.07,.03-.11,.03c-.1,0-.18-.06-.22-.14h0v-.02c-2.4-5.6-7.56-6.49-10.16-6.52-2.57-.02-4.69,.18-6.89,.84-18.14,5.44-21.65,35.72,11.6,24.69,27.43-9.11,38,8.98,40.52,14.51,.03,.1,.12,.17,.23,.17,.14,0,.25-.11,.25-.25,0-.02,0-.04-.01-.06Z"/></g></g><g id="typo"><path d="M615,80h-54.5c2.32-11,12.43-20,24.5-20,2.76,0,5-2.24,5-5s-2.24-5-5-5c-19.3,0-35,15.7-35,35,0,2.76,2.24,5,5,5h54.5c-2.32,11-12.42,20-24.5,20h-20c-2.76,0-5,2.24-5,5s2.24,5,5,5h20c19.3,0,35-15.7,35-35,0-2.76-2.24-5-5-5Z"/><path d="M230,110c-5.51,0-10-4.49-10-10V35c0-2.76-2.24-5-5-5s-5,2.24-5,5v25.54c-6.36-6.5-15.21-10.54-25-10.54-19.3,0-35,15.7-35,35s15.7,35,35,35c2.76,0,5-2.24,5-5s-2.24-5-5-5c-13.79,0-25-11.22-25-25s11.21-25,25-25c12.07,0,22.17,8.5,24.5,20h-24.5c-2.76,0-5,2.24-5,5s2.24,5,5,5h25v10c0,11.03,8.97,20,20,20,2.76,0,5-2.24,5-5s-2.24-5-5-5Z"/><path d="M550,110c-5.51,0-10-4.49-10-10V60h10c2.76,0,5-2.24,5-5s-2.24-5-5-5h-10v-15c0-2.76-2.24-5-5-5s-5,2.24-5,5v25.53c-6.36-6.5-15.21-10.54-25-10.54-12.72,0-23.87,6.82-30,17-6.13-10.17-17.28-16.99-30-16.99s-23.87,6.82-30,16.99c-6.13-10.17-17.28-16.99-30-16.99s-23.87,6.82-30,16.99c-6.13-10.17-17.28-16.99-30-16.99s-23.87,6.82-30,16.99c-6.13-10.17-17.28-16.99-30-16.99-19.3,0-35,15.7-35,35s15.7,35,35,35c2.76,0,5-2.24,5-5s-2.24-5-5-5c-13.79,0-25-11.22-25-25s11.22-25,25-25c12.07,0,22.17,8.5,24.5,20h-24.5c-2.76,0-5,2.24-5,5s2.24,5,5,5h30c2.76,0,5-2.24,5-5,0-13.78,11.21-25,25-25s25,11.21,25,25c0,2.76,2.24,5,5,5s5-2.24,5-5c0-13.79,11.21-25,25-25s25,11.21,25,25h0c0,19.3,15.7,35,35,35,2.76,0,5-2.24,5-5s-2.24-5-5-5c-13.79,0-25-11.22-25-25s11.21-25,25-25c12.07,0,22.17,8.5,24.5,20h-24.5c-2.76,0-5,2.24-5,5s2.24,5,5,5h30c2.76,0,5-2.24,5-5,0-13.79,11.21-25,25-25s25,11.21,25,25v15c0,11.03,8.97,20,20,20,2.76,0,5-2.24,5-5s-2.24-5-5-5Z"/></g></svg>