<?xml version="1.0" encoding="utf-8"?>
<!-- Generator: Adobe Illustrator 26.0.2, SVG Export Plug-In . SVG Version: 6.00 Build 0)  -->
<svg version="1.1" id="Ebene_1" xmlns="http://www.w3.org/2000/svg" xmlns:xlink="http://www.w3.org/1999/xlink" x="0px" y="0px"
	 viewBox="0 0 720.1 282.7" style="enable-background:new 0 0 720.1 282.7;" xml:space="preserve">
<style type="text/css">
	.st0{fill:#181716;}
</style>
<path class="st0" d="M199.5,121.5v3.6c0,2.3-0.7,3.2-4.1,3.2h-38.1c0.4,12.7,3.2,15.6,14.9,15.6h20.5c1.2,0,1.8,0.6,1.8,1.8v7.4
	c0,1.3-0.6,1.8-1.7,2c-6.4,1-13.8,1.3-21.5,1.3c-23.4,0-28.7-6.7-28.7-33.7s5.3-33.9,28.7-33.9S199.2,95.4,199.5,121.5L199.5,121.5z
	 M157.3,117.9h27.5c-0.1-13-2.8-16.3-13.4-16.3S157.4,104.9,157.3,117.9z M266.6,89.5c1.2,0,1.8,0.6,1.8,1.8v61.2
	c0,1.6-0.6,1.7-1.8,1.9c-8.9,1.8-19.6,2-26.8,2c-22.2,0-28.5-3.5-28.5-28.6V91.3c0-1.2,0.8-1.8,2-1.8h10.8c1.2,0,1.7,0.6,1.7,1.8v34
	c0,17.8,2.8,18.6,14,18.6h13.8V91.3c0-1.2,0.6-1.8,1.8-1.8L266.6,89.5L266.6,89.5z M318.7,90.2c1.2,0.4,1.9,0.8,1.9,2.2v7.3
	c0,1.3-0.7,1.9-2,1.8h-10.9c-7.2,0-9.4,1.2-9.4,6.5v46.1c0,1.2-0.6,1.8-1.8,1.8h-10.9c-1.2,0-1.8-0.6-1.8-1.8v-49.8
	c0-14.3,11.4-15.4,20.3-15.4C307.2,88.9,315.5,89.3,318.7,90.2L318.7,90.2z M388.2,122.8c0,27-5.3,33.7-29.3,33.7
	s-29.2-6.7-29.2-33.7s5.2-33.9,29.2-33.9S388.2,95.6,388.2,122.8z M344.3,122.8c0,16.9,1.8,21.1,14.6,21.1s14.6-4.2,14.6-21.1
	s-1.8-21.3-14.6-21.3S344.3,105.7,344.3,122.8z M403.7,78.8c0-14.3,10.6-15.4,19.3-15.4c3.6,0,8.2,0.5,11.8,1.1
	c1.2,0.2,1.8,0.8,1.8,2.2v7.6c0,1.2-0.6,1.8-1.9,1.8h-7.9c-5.9,0-8.5,0.5-8.5,5.6v7.9h15c1.3,0,1.8,0.6,1.6,1.9l-1.4,7.8
	c-0.2,1.2-0.8,1.7-2,1.7h-13.1v53.1c0,1.2-0.6,1.8-1.8,1.8h-10.9c-1.2,0-1.8-0.6-1.8-1.8L403.7,78.8L403.7,78.8z M500.1,89.5
	c1.2,0,1.8,0.6,1.8,1.8v61.2c0,1.6-0.6,1.7-1.8,1.9c-8.9,1.8-19.6,2-26.8,2c-22.2,0-28.5-3.5-28.5-28.6V91.3c0-1.2,0.8-1.8,2-1.8
	h10.8c1.2,0,1.7,0.6,1.7,1.8v34c0,17.8,2.8,18.6,14,18.6h13.8V91.3c0-1.2,0.6-1.8,1.8-1.8L500.1,89.5L500.1,89.5z M574.2,117.4v36.8
	c0,1.2-0.7,1.8-1.9,1.8h-10.8c-1.2,0-1.8-0.6-1.8-1.8V120c0-17.8-2.8-18.5-14-18.5h-13.8v52.6c0,1.2-0.6,1.8-1.8,1.8h-11
	c-1.2,0-1.7-0.6-1.7-1.8V92.8c0-1.6,0.6-1.7,1.7-1.9c8.9-1.8,19.6-1.9,26.9-1.9C568,88.9,574.2,92.3,574.2,117.4L574.2,117.4z
	 M602.3,64.2c1.2,0,1.8,0.7,1.8,1.9v46.6l18.5-22c0.6-0.7,1.4-1.2,2.5-1.2h13c2.2,0,2.3,1,1.1,2.3l-20.3,23.9l26.4,37
	c1.1,1.4,1.2,3.2-2,3.2h-11.7c-1.2,0-2-0.6-2.6-1.3l-24.9-35.7V154c0,1.3-0.6,1.9-1.8,1.9h-10.9c-1.2,0-1.8-0.6-1.8-1.9V66.1
	c0-1.2,0.6-1.9,1.8-1.9L602.3,64.2L602.3,64.2z M225.4,195.4c0.3,0,0.5,0.2,0.5,0.5v1.2c0,0.3-0.2,0.5-0.5,0.5h-5.6
	c-5,0-5.8,1.6-5.8,8.1s0.8,8.1,5.8,8.1h5.6c0.3,0,0.5,0.1,0.5,0.5v1.2c0,0.3-0.1,0.5-0.5,0.5c-1.8,0.2-4.2,0.3-5.7,0.3
	c-7.1,0-8.5-2.1-8.5-10.6s1.5-10.5,8.5-10.5C221.2,195.1,223.6,195.2,225.4,195.4L225.4,195.4z M239.6,195.4
	c0.3,0.1,0.5,0.2,0.5,0.5v1.1c0,0.3-0.2,0.5-0.5,0.5h-3.3c-2.3,0-3.4,0.3-3.4,2.2v15.8c0,0.3-0.1,0.5-0.5,0.5h-1.8
	c-0.3,0-0.5-0.1-0.5-0.5v-16.4c0-4,3.9-4.1,5.6-4.1C236.5,195.1,238.9,195.2,239.6,195.4L239.6,195.4z M259.4,205v1.1
	c0,0.6-0.1,1-1.2,1h-12.5c0.1,5.3,1.1,6.8,5.6,6.8h6c0.3,0,0.5,0.1,0.5,0.5v1.2c0,0.3-0.1,0.5-0.5,0.5c-1.8,0.2-4.1,0.3-6.1,0.3
	c-6.9,0-8.4-2.1-8.4-10.6s1.4-10.5,8.4-10.5C257.8,195.1,259.3,197.1,259.4,205L259.4,205z M245.6,204.5h10.9c-0.1-5.7-1-7-5.4-7
	C246.6,197.6,245.7,198.9,245.6,204.5z M278.5,201v13.4c0,0.3,0,0.7-0.7,1c-1.2,0.5-4.8,0.8-8.2,0.8c-5,0-7-1.3-7-6.1
	c0-4.2,2.1-5.7,6.4-5.7h6.7v-3c0-2.9-1.9-3.9-5.7-3.9h-5.2c-0.4,0-0.5-0.1-0.5-0.5V196c0-0.4,0.1-0.5,0.5-0.5
	c2.1-0.3,3.8-0.3,5.2-0.3C275.3,195.1,278.5,196.6,278.5,201L278.5,201z M269,206.9c-2.5,0-3.6,0.8-3.6,3.3c0,2.8,1.3,3.6,4.9,3.6
	c1.2,0,3.9-0.1,5.5-0.5v-6.4L269,206.9L269,206.9z M287.1,189.5c0.4-0.1,0.6,0,0.6,0.4v5.4h4.3c0.3,0,0.5,0.2,0.5,0.5v1.3
	c0,0.3-0.2,0.5-0.5,0.5h-4.3v14c0,1.7,0.5,2.1,2.5,2.1h2c0.4,0,0.5,0.1,0.5,0.5v1.3c0,0.3-0.1,0.4-0.5,0.5c-0.6,0.1-1.8,0.2-2.1,0.2
	c-2.6,0-5.3-0.2-5.3-4v-14.6h-2.1c-0.3,0-0.5-0.1-0.5-0.5v-1.3c0-0.3,0.1-0.5,0.5-0.5h2.1v-4.9c0-0.3,0.1-0.4,0.4-0.5L287.1,189.5
	L287.1,189.5z M299.5,189.4c0,1.2-0.6,1.8-1.8,1.8s-1.8-0.6-1.8-1.8s0.6-1.8,1.8-1.8S299.5,188.3,299.5,189.4z M298.7,195.3
	c0.3,0,0.5,0.2,0.5,0.5v19.8c0,0.3-0.2,0.5-0.5,0.5h-1.8c-0.3,0-0.5-0.1-0.5-0.5v-19.8c0-0.3,0.1-0.5,0.5-0.5H298.7z M321.6,203.9
	v11.7c0,0.3-0.2,0.5-0.6,0.5h-1.7c-0.3,0-0.5-0.1-0.5-0.5v-11.7c0-5.9-1.5-6.3-5.2-6.3h-5.9v18c0,0.3-0.1,0.5-0.5,0.5h-1.8
	c-0.3,0-0.5-0.1-0.5-0.5v-19.4c0-0.4,0.1-0.5,0.5-0.5c3-0.5,5.9-0.5,7.8-0.5C319.5,195.1,321.6,195.9,321.6,203.9L321.6,203.9z
	 M341.9,195.6c0.3,0,0.5,0.2,0.5,0.6v18.3c0,7.3-1.5,9.3-8.5,9.3c-1.4,0-3.3-0.1-5.2-0.3c-0.3,0-0.5-0.2-0.5-0.5v-1.2
	c0-0.3,0.1-0.5,0.5-0.5h5.2c4.7,0,5.8-1.2,5.8-5.1V216c-1.8,0.2-3.3,0.3-5.2,0.3c-7.4,0-8.7-2-8.7-10.5s1.4-10.6,8.4-10.6
	C337.5,195.1,339.8,195.3,341.9,195.6L341.9,195.6z M334.1,197.6c-5,0-5.6,1.6-5.6,8.1s0.6,8.1,5.9,8.1c1.6,0,3.6-0.1,5.2-0.3v-16
	H334.1L334.1,197.6z M369.4,195.4c0.3,0,0.5,0.2,0.5,0.5v1.2c0,0.3-0.1,0.5-0.5,0.5h-7c-1.7,0-3.3,0.5-3.3,2.3v0.6
	c0,1.3,0.5,2.3,2.6,3.1l5.4,2.2c3.3,1.3,3.6,3.1,3.6,5.1v0.5c0,4.1-2.2,4.9-7.5,4.9c-2.8,0-6.1-0.2-6.7-0.3c-0.4,0-0.5-0.2-0.5-0.5
	v-1.2c0-0.3,0.1-0.5,0.5-0.5h6.8c3.6,0,4.7-0.5,4.7-2.4v-0.5c0-1.3-0.5-2.1-2.3-2.9l-5.8-2.3c-2.9-1.2-3.6-3.2-3.6-5.2v-0.8
	c0-4.1,3.8-4.5,7.2-4.5C365,195.1,367.4,195.2,369.4,195.4L369.4,195.4z M389.8,201v13.4c0,0.3,0,0.7-0.7,1
	c-1.2,0.5-4.8,0.8-8.2,0.8c-5,0-7-1.3-7-6.1c0-4.2,2.1-5.7,6.4-5.7h6.7v-3c0-2.9-1.9-3.9-5.7-3.9h-5.2c-0.4,0-0.5-0.1-0.5-0.5V196
	c0-0.4,0.1-0.5,0.5-0.5c2.1-0.3,3.8-0.3,5.2-0.3C386.6,195.1,389.8,196.6,389.8,201L389.8,201z M380.3,206.9c-2.5,0-3.6,0.8-3.6,3.3
	c0,2.8,1.3,3.6,4.9,3.6c1.2,0,3.9-0.1,5.5-0.5v-6.4L380.3,206.9L380.3,206.9z M405.2,187.4c0.3,0,0.4,0.2,0.4,0.5v1.2
	c0,0.3-0.2,0.5-0.5,0.5h-2.2c-1.9,0-3.4,0.1-3.4,2.1v3.5h5.2c0.3,0,0.5,0.2,0.4,0.6l-0.2,1.3c-0.1,0.3-0.2,0.4-0.5,0.4h-4.8v18
	c0,0.3-0.1,0.5-0.5,0.5h-1.8c-0.3,0-0.5-0.1-0.5-0.5v-18h-2.9c-0.3,0-0.5-0.1-0.5-0.5v-1.3c0-0.3,0.2-0.5,0.5-0.5h2.9v-4.1
	c0-4,3.6-4.1,5.2-4.1C403.1,187.1,404.4,187.3,405.2,187.4L405.2,187.4z M424.5,205v1.1c0,0.6-0.1,1-1.2,1h-12.5
	c0.1,5.3,1.1,6.8,5.6,6.8h6c0.3,0,0.5,0.1,0.5,0.5v1.2c0,0.3-0.1,0.5-0.5,0.5c-1.8,0.2-4.1,0.3-6.1,0.3c-6.9,0-8.4-2.1-8.4-10.6
	s1.4-10.5,8.4-10.5C422.9,195.1,424.4,197.1,424.5,205L424.5,205z M410.8,204.5h10.9c-0.1-5.7-1-7-5.4-7
	C411.7,197.6,410.8,198.9,410.8,204.5z M432.2,189.5c0.4-0.1,0.6,0,0.6,0.4v5.4h4.3c0.3,0,0.5,0.2,0.5,0.5v1.3
	c0,0.3-0.2,0.5-0.5,0.5h-4.3v14c0,1.7,0.5,2.1,2.5,2.1h2c0.4,0,0.5,0.1,0.5,0.5v1.3c0,0.3-0.1,0.4-0.5,0.5c-0.6,0.1-1.8,0.2-2.1,0.2
	c-2.6,0-5.3-0.2-5.3-4v-14.6h-2.1c-0.3,0-0.5-0.1-0.5-0.5v-1.3c0-0.3,0.1-0.5,0.5-0.5h2.1v-4.9c0-0.3,0.1-0.4,0.4-0.5L432.2,189.5
	L432.2,189.5z M457.4,195.3c0.3,0,0.5,0.2,0.5,0.5v18.6c0,7.4-1.5,9.4-8.5,9.4c-2.1,0-3.5-0.1-5.4-0.3c-0.3,0-0.5-0.2-0.5-0.5v-1.2
	c0-0.3,0.1-0.5,0.5-0.5h5.4c4.7,0,5.8-1.2,5.8-5.1v-0.3c-2,0.3-3.6,0.3-5.5,0.3c-7.1,0-8.4-2.1-8.4-10.6v-9.9c0-0.3,0.1-0.5,0.5-0.5
	h1.8c0.4,0,0.5,0.2,0.5,0.5v9.8c0,6.6,0.6,8.2,5.7,8.2c1.6,0,3.5-0.1,5.5-0.3v-17.6c0-0.3,0.2-0.5,0.5-0.5L457.4,195.3L457.4,195.3z
	 M475,187.4c0.3,0,0.5,0.2,0.5,0.5v7.5c1.3-0.1,3.1-0.2,5.3-0.2c7.3,0,8.7,2.1,8.7,10.5s-1.3,10.6-8.4,10.6c-2.7,0-4.3-0.1-7.8-0.6
	c-0.4,0-0.5-0.2-0.5-0.6v-27.2c0-0.3,0.2-0.5,0.5-0.5L475,187.4L475,187.4z M475.5,197.6v15.8c2,0.3,3.9,0.4,5.5,0.4
	c5.1,0,5.7-1.6,5.7-8.2s-0.7-8-5.9-8H475.5L475.5,197.6z M510.5,195.3c0.3,0,0.5,0.2,0.5,0.5v18.6c0,7.4-1.5,9.4-8.5,9.4
	c-2.2,0-3.5-0.1-5.4-0.3c-0.3,0-0.5-0.2-0.5-0.5v-1.2c0-0.3,0.2-0.5,0.5-0.5h5.4c4.7,0,5.8-1.2,5.8-5.1v-0.3c-2,0.3-3.6,0.3-5.5,0.3
	c-7.1,0-8.4-2.1-8.4-10.6v-9.9c0-0.3,0.2-0.5,0.5-0.5h1.8c0.3,0,0.5,0.2,0.5,0.5v9.8c0,6.6,0.6,8.2,5.7,8.2c1.6,0,3.5-0.1,5.5-0.3
	v-17.6c0-0.3,0.2-0.5,0.5-0.5L510.5,195.3L510.5,195.3z M528.8,189.5c0.4-0.1,0.6,0,0.6,0.4v5.4h4.3c0.3,0,0.5,0.2,0.5,0.5v1.3
	c0,0.3-0.2,0.5-0.5,0.5h-4.3v14c0,1.7,0.5,2.1,2.5,2.1h2c0.4,0,0.5,0.1,0.5,0.5v1.3c0,0.3-0.2,0.4-0.5,0.5c-0.7,0.1-1.8,0.2-2.1,0.2
	c-2.7,0-5.3-0.2-5.3-4v-14.6h-2.2c-0.3,0-0.5-0.1-0.5-0.5v-1.3c0-0.3,0.2-0.5,0.5-0.5h2.2v-4.9c0-0.3,0.2-0.4,0.4-0.5L528.8,189.5
	L528.8,189.5z M553.9,205v1.1c0,0.6-0.1,1-1.2,1h-12.5c0.1,5.3,1.1,6.8,5.6,6.8h6c0.3,0,0.5,0.1,0.5,0.5v1.2c0,0.3-0.2,0.5-0.5,0.5
	c-1.8,0.2-4.1,0.3-6.1,0.3c-6.9,0-8.4-2.1-8.4-10.6s1.4-10.5,8.4-10.5C552.3,195.1,553.8,197.1,553.9,205L553.9,205z M540.2,204.5
	h10.9c-0.1-5.7-1-7-5.4-7C541.1,197.6,540.2,198.9,540.2,204.5z M572,195.4c0.3,0,0.5,0.2,0.5,0.5v1.2c0,0.3-0.2,0.5-0.5,0.5h-5.6
	c-5,0-5.8,1.6-5.8,8.1s0.8,8.1,5.8,8.1h5.6c0.3,0,0.5,0.1,0.5,0.5v1.2c0,0.3-0.2,0.5-0.5,0.5c-1.8,0.2-4.2,0.3-5.7,0.3
	c-7,0-8.5-2.1-8.5-10.6s1.5-10.5,8.5-10.5C567.8,195.1,570.2,195.2,572,195.4L572,195.4z M579.1,187.4c0.3,0,0.5,0.2,0.5,0.5v7.4
	c2-0.2,4.1-0.2,5.5-0.2c6.3,0,8.5,0.8,8.5,8.7v11.7c0,0.3-0.2,0.5-0.5,0.5h-1.8c-0.3,0-0.5-0.1-0.5-0.5v-11.7c0-5.9-1.5-6.3-5.2-6.3
	h-5.9v18c0,0.3-0.2,0.5-0.5,0.5h-1.8c-0.3,0-0.5-0.1-0.5-0.5v-27.7c0-0.3,0.2-0.5,0.5-0.5H579.1z M615.1,203.9v11.7
	c0,0.3-0.2,0.5-0.6,0.5h-1.7c-0.3,0-0.5-0.1-0.5-0.5v-11.7c0-5.9-1.5-6.3-5.2-6.3h-5.9v18c0,0.3-0.2,0.5-0.5,0.5h-1.8
	c-0.3,0-0.5-0.1-0.5-0.5v-19.4c0-0.4,0.2-0.5,0.5-0.5c3-0.5,5.9-0.5,7.8-0.5C612.9,195.1,615.1,195.9,615.1,203.9L615.1,203.9z
	 M637,205.7c0,8.5-1.5,10.6-8.5,10.6s-8.5-2.1-8.5-10.6s1.5-10.5,8.5-10.5S637,197.2,637,205.7z M622.7,205.7c0,6.5,0.8,8.1,5.8,8.1
	s5.8-1.6,5.8-8.1s-0.8-8.1-5.8-8.1S622.7,199.2,622.7,205.7z M644.4,187.4c0.3,0,0.5,0.1,0.5,0.5v27.7c0,0.3-0.2,0.5-0.5,0.5h-1.8
	c-0.3,0-0.5-0.1-0.5-0.5v-27.7c0-0.3,0.2-0.5,0.5-0.5H644.4z M667.4,205.7c0,8.5-1.5,10.6-8.5,10.6s-8.5-2.1-8.5-10.6
	s1.5-10.5,8.5-10.5S667.4,197.2,667.4,205.7z M653.1,205.7c0,6.5,0.8,8.1,5.8,8.1s5.8-1.6,5.8-8.1s-0.8-8.1-5.8-8.1
	S653.1,199.2,653.1,205.7z M688.6,195.6c0.3,0,0.5,0.2,0.5,0.6v18.3c0,7.3-1.5,9.3-8.5,9.3c-1.4,0-3.3-0.1-5.2-0.3
	c-0.3,0-0.5-0.2-0.5-0.5v-1.2c0-0.3,0.2-0.5,0.5-0.5h5.2c4.7,0,5.8-1.2,5.8-5.1V216c-1.8,0.2-3.3,0.3-5.2,0.3c-7.4,0-8.7-2-8.7-10.5
	s1.4-10.6,8.4-10.6C684.2,195.1,686.6,195.3,688.6,195.6L688.6,195.6z M680.8,197.6c-5,0-5.6,1.6-5.6,8.1s0.6,8.1,5.9,8.1
	c1.7,0,3.6-0.1,5.2-0.3v-16H680.8L680.8,197.6z M710.9,195.3c0.3,0,0.5,0.2,0.5,0.5v18.6c0,7.4-1.5,9.4-8.5,9.4
	c-2.2,0-3.5-0.1-5.4-0.3c-0.3,0-0.5-0.2-0.5-0.5v-1.2c0-0.3,0.2-0.5,0.5-0.5h5.4c4.7,0,5.8-1.2,5.8-5.1v-0.3c-2,0.3-3.6,0.3-5.5,0.3
	c-7.1,0-8.4-2.1-8.4-10.6v-9.9c0-0.3,0.2-0.5,0.5-0.5h1.8c0.3,0,0.5,0.2,0.5,0.5v9.8c0,6.6,0.6,8.2,5.7,8.2c1.6,0,3.5-0.1,5.5-0.3
	v-17.6c0-0.3,0.2-0.5,0.5-0.5L710.9,195.3L710.9,195.3z M109.9,60.2v20.5c0,10.6-8.6,19.3-19.3,19.3H73.3
	c-10.6,0-19.3-8.6-19.3-19.3V63.4c0-10.6,8.6-19.3,19.3-19.3h20.4c2.2,0,4.4-0.9,6-2.5L111,30.4c1.5-1.5,0.4-4.1-1.7-4.1H73.6
	C53,26.3,36.2,43,36.2,63.6v16.9c0,20.6,16.7,37.3,37.3,37.3h16.9c20.6,0,37.3-16.7,37.3-37.3V44.7c0-2.1-2.6-3.2-4.1-1.7
	l-11.3,11.3C110.8,55.9,109.9,58,109.9,60.2L109.9,60.2z"/>
</svg>
