<?xml version="1.0" encoding="utf-8"?>
<!-- Generator: Adobe Illustrator 26.2.1, SVG Export Plug-In . SVG Version: 6.00 Build 0)  -->
<svg version="1.1" id="Layer_1" xmlns="http://www.w3.org/2000/svg" xmlns:xlink="http://www.w3.org/1999/xlink" x="0px" y="0px" preserveAspectRatio="none"
	 viewBox="0 0 486 502" style="enable-background:new 0 0 486 502;" xml:space="preserve">
<style type="text/css">
	.st0{display:none;}
	.st1{display:inline;fill:#262626;}
</style>
<g class="st0">
	<path class="st1" d="M64.7,400H52.5c-0.4,0-0.6-0.2-0.6-0.6V361c0-0.4,0.2-0.6,0.6-0.6h12.2c6.7,0,11,4.3,11,10.9V389
		C75.7,395.7,71.4,400,64.7,400z M71.5,370.7c0-3.7-3-6.7-6.8-6.7h-8c-0.4,0-0.6,0.2-0.6,0.6v31.2c0,0.4,0.2,0.6,0.6,0.6h8
		c3.8,0,6.8-3,6.8-6.7V370.7z"/>
	<path class="st1" d="M101.7,386.3H85.2c-0.4,0-0.6,0.2-0.6,0.6v3.4c0,3.7,2.9,6.7,6.7,6.7c1.5,0,3-0.6,4.2-1.7
		c1.3-1.3,1.9-2.1,2.3-2.1c0.1,0,0.2,0,0.3,0.1l2.6,1.3c0.3,0.1,0.4,0.3,0.4,0.5c0,2-3.8,5.5-9.8,5.5c-6.7,0-10.9-4.1-10.9-10.3
		v-8.5c0-2.3,1.1-4.9,3-6.9c2.1-2.2,4.7-3.3,7.9-3.3c6.1,0,11,4.9,11,10.3v3.8C102.3,386.1,102.1,386.3,101.7,386.3z M98,381.8
		c0-3.6-3-6.7-6.7-6.7c-3.8,0-6.7,3-6.7,6.7v0.9c0,0.4,0.2,0.6,0.6,0.6h12.2c0.4,0,0.6-0.2,0.6-0.6L98,381.8L98,381.8z"/>
	<path class="st1" d="M108.9,365.3c-1.5,0-2.7-1.2-2.7-2.8c0-1.5,1.3-2.8,2.7-2.8c1.6,0,2.8,1.2,2.8,2.8
		C111.8,364,110.5,365.3,108.9,365.3z M110.5,400h-3c-0.4,0-0.6-0.2-0.6-0.6v-26.6c0-0.4,0.2-0.6,0.6-0.6h3c0.4,0,0.6,0.2,0.6,0.6
		v26.6C111.2,399.8,111,400,110.5,400z"/>
	<path class="st1" d="M139.5,400h-3c-0.4,0-0.6-0.2-0.6-0.6v-16.9c0-3.6-3-6.7-6.7-6.7c-3.8,0-6.7,3-6.7,6.7v16.9
		c0,0.4-0.2,0.6-0.6,0.6h-3c-0.4,0-0.6-0.2-0.6-0.6v-26.6c0-0.4,0.2-0.6,0.6-0.6h2.3c0.4,0,0.6,0.2,0.6,0.6v2.5
		c0,0.4,0.3,0.7,0.5,0.7c0.4,0,0.9-0.6,1.9-1.4c1.4-1.2,2.5-2.4,5.5-2.4c5.9,0,10.5,4.2,10.5,10.3v16.9
		C140.1,399.8,139.9,400,139.5,400z"/>
	<path class="st1" d="M178.2,364h-16.4c-0.4,0-0.6,0.2-0.6,0.6v12.9c0,0.4,0.2,0.6,0.6,0.6h13.5c0.4,0,0.6,0.2,0.6,0.6v2.3
		c0,0.4-0.2,0.6-0.6,0.6h-13.5c-0.4,0-0.6,0.2-0.6,0.6v17.1c0,0.4-0.2,0.6-0.6,0.6h-3c-0.4,0-0.6-0.2-0.6-0.6V361
		c0-0.4,0.2-0.6,0.6-0.6h20.7c0.4,0,0.6,0.2,0.6,0.6v2.3C178.8,363.8,178.6,364,178.2,364z"/>
	<path class="st1" d="M200.8,386.3h-16.4c-0.4,0-0.6,0.2-0.6,0.6v3.4c0,3.7,2.9,6.7,6.7,6.7c1.5,0,3-0.6,4.2-1.7
		c1.3-1.3,1.9-2.1,2.3-2.1c0.1,0,0.2,0,0.3,0.1l2.6,1.3c0.3,0.1,0.4,0.3,0.4,0.5c0,2-3.8,5.5-9.8,5.5c-6.7,0-10.9-4.1-10.9-10.3
		v-8.5c0-2.3,1.1-4.9,3-6.9c2.1-2.2,4.7-3.3,7.9-3.3c6.1,0,11,4.9,11,10.3v3.8C201.4,386.1,201.2,386.3,200.8,386.3z M197.1,381.8
		c0-3.6-3-6.7-6.7-6.7c-3.8,0-6.7,3-6.7,6.7v0.9c0,0.4,0.2,0.6,0.6,0.6h12.2c0.4,0,0.6-0.2,0.6-0.6L197.1,381.8L197.1,381.8z"/>
	<path class="st1" d="M219.4,376.6c-0.5,0-1.3-0.2-2.4-0.2c-3.8,0-6.7,2.9-6.7,6.6v16.3c0,0.4-0.2,0.6-0.6,0.6h-3
		c-0.4,0-0.6-0.2-0.6-0.6v-26.6c0-0.4,0.2-0.6,0.6-0.6h2.3c0.4,0,0.6,0.2,0.6,0.6v3.1c0,0.4,0.3,0.7,0.5,0.7c0.7,0,1.7-1.6,4-3.4
		c0.7-0.6,2-1.1,2.9-1.1h2.3c0.4,0,0.6,0.2,0.6,0.6v3.2C219.9,376.5,219.8,376.6,219.4,376.6z"/>
	<path class="st1" d="M243.7,400h-3c-0.4,0-0.6-0.2-0.6-0.6v-16.9c0-3.6-3-6.7-6.7-6.7c-3.8,0-6.7,3-6.7,6.7v16.9
		c0,0.4-0.2,0.6-0.6,0.6h-3c-0.4,0-0.6-0.2-0.6-0.6v-26.6c0-0.4,0.2-0.6,0.6-0.6h2.3c0.4,0,0.6,0.2,0.6,0.6v2.5
		c0,0.4,0.3,0.7,0.5,0.7c0.4,0,0.9-0.6,1.9-1.4c1.4-1.2,2.5-2.4,5.5-2.4c5.9,0,10.5,4.2,10.5,10.3v16.9
		C244.4,399.8,244.2,400,243.7,400z"/>
	<path class="st1" d="M252.8,379c0,2.6,2,3.8,6.3,4.7c7.2,1.6,11.3,2.5,11.3,7.8c0,5.4-3.9,9.1-10,9.1h-2c-5.9,0-9.7-3.5-9.7-5.5
		c0-0.2,0.1-0.3,0.4-0.4l2.5-1.2c0.1-0.1,0.3-0.1,0.3-0.1c0.2,0,0.3,0.1,0.5,0.3c1.6,1.8,2.9,3.5,6,3.5h2c3.5,0,5.8-2,5.8-4.6
		c0-2.3-2-3.7-6.2-4.6c-7.3-1.5-11.3-2.3-11.3-7.8c0-5.2,3.8-8.8,9.7-8.8h2c5.7,0,9.6,3.5,9.6,5.4c0,0.2-0.2,0.3-0.4,0.4l-2.4,1.2
		c-0.1,0.1-0.2,0.1-0.3,0.1c-0.2,0-0.3-0.1-0.5-0.3c-1.8-1.9-3.2-3.4-6-3.4h-2C254.8,374.9,252.8,376.4,252.8,379z"/>
	<path class="st1" d="M295.6,386.3h-16.4c-0.4,0-0.6,0.2-0.6,0.6v3.4c0,3.7,2.9,6.7,6.7,6.7c1.5,0,3-0.6,4.2-1.7
		c1.3-1.3,1.9-2.1,2.3-2.1c0.1,0,0.2,0,0.3,0.1l2.6,1.3c0.3,0.1,0.4,0.3,0.4,0.5c0,2-3.8,5.5-9.8,5.5c-6.7,0-10.9-4.1-10.9-10.3
		v-8.5c0-2.3,1.1-4.9,3-6.9c2.1-2.2,4.7-3.3,7.9-3.3c6.1,0,11,4.9,11,10.3v3.8C296.3,386.1,296.1,386.3,295.6,386.3z M292,381.8
		c0-3.6-3-6.7-6.7-6.7c-3.8,0-6.7,3-6.7,6.7v0.9c0,0.4,0.2,0.6,0.6,0.6h12.2c0.4,0,0.6-0.2,0.6-0.6L292,381.8L292,381.8z"/>
	<path class="st1" d="M322.2,400h-3c-0.4,0-0.6-0.2-0.6-0.6v-16.9c0-3.6-3-6.7-6.7-6.7c-3.8,0-6.7,3-6.7,6.7v16.9
		c0,0.4-0.2,0.6-0.6,0.6h-3c-0.4,0-0.6-0.2-0.6-0.6V361c0-0.4,0.2-0.6,0.6-0.6h3c0.4,0,0.6,0.2,0.6,0.6v14.2c0,0.4,0.2,0.7,0.4,0.7
		c0.4,0,0.9-0.6,1.9-1.4c1.4-1.1,2.5-2.3,5.4-2.3c5.5,0,10,4.4,10,10.3v16.9C322.8,399.8,322.7,400,322.2,400z"/>
	<path class="st1" d="M348.7,386.3h-16.4c-0.4,0-0.6,0.2-0.6,0.6v3.4c0,3.7,2.9,6.7,6.7,6.7c1.5,0,3-0.6,4.2-1.7
		c1.3-1.3,1.9-2.1,2.3-2.1c0.1,0,0.2,0,0.3,0.1l2.6,1.3c0.3,0.1,0.4,0.3,0.4,0.5c0,2-3.8,5.5-9.8,5.5c-6.7,0-10.9-4.1-10.9-10.3
		v-8.5c0-2.3,1.1-4.9,3-6.9c2.1-2.2,4.7-3.3,7.9-3.3c6.1,0,11,4.9,11,10.3v3.8C349.4,386.1,349.2,386.3,348.7,386.3z M345.1,381.8
		c0-3.6-3-6.7-6.7-6.7c-3.8,0-6.7,3-6.7,6.7v0.9c0,0.4,0.2,0.6,0.6,0.6h12.2c0.4,0,0.6-0.2,0.6-0.6L345.1,381.8L345.1,381.8z"/>
	<path class="st1" d="M375.3,400h-3c-0.4,0-0.6-0.2-0.6-0.6v-16.9c0-3.6-3-6.7-6.7-6.7c-3.8,0-6.7,3-6.7,6.7v16.9
		c0,0.4-0.2,0.6-0.6,0.6h-3c-0.4,0-0.6-0.2-0.6-0.6v-26.6c0-0.4,0.2-0.6,0.6-0.6h2.3c0.4,0,0.6,0.2,0.6,0.6v2.5
		c0,0.4,0.3,0.7,0.5,0.7c0.4,0,0.9-0.6,1.9-1.4c1.4-1.2,2.5-2.4,5.5-2.4c5.9,0,10.5,4.2,10.5,10.3v16.9
		C375.9,399.8,375.7,400,375.3,400z"/>
	<path class="st1" d="M384.1,401c-1.6,0-3-1.4-3-3.1c0-1.7,1.4-3.1,3-3.1c1.8,0,3.1,1.3,3.1,3.1C387.3,399.6,386,401,384.1,401z"/>
</g>
<g>
	<path d="M163.3,349.3c-0.1-0.4-0.5-2.5-0.6-2.9h-0.2c-0.1,0.4-0.5,2.5-0.6,2.9l-1.6,6.1c-0.1,0.4-0.3,0.8-0.3,1.1
		c0,0.3,0.2,0.5,0.6,0.5h3.9c0.4,0,0.6-0.2,0.6-0.5c0-0.2-0.2-0.7-0.3-1L163.3,349.3z"/>
	<path d="M255.6,316.4h-8C250.2,316.5,252.9,316.5,255.6,316.4z"/>
	<path d="M239.4,15c-130.3,0-236,105.7-236,236s105.7,236,236,236s236-105.7,236-236S369.8,15,239.4,15z M351.8,142.1h40.6v129.8
		l-44.5,44.7l0-130.5h-40.5L351.8,142.1z M71.1,141.8h133.2l-38.6,38.6H115v36.9h51.5V256H115v60.4h-44V141.8z M83.3,369.3h-2.1
		c-4.4,0-6.8-1.8-8.4-4.3c-0.5-0.8-1-1.6-1-2c0-0.2,0.1-0.3,0.3-0.4l4.2-2.2c0.2-0.1,0.4-0.3,0.6-0.3c0.2,0,0.3,0.1,0.4,0.4
		c1,2.3,2.3,3.1,3.8,3.1h2.1c2.1,0,3.8-1.7,3.8-3.8c0-2.9-2.8-3.9-5.7-5.2c-4.2-2-8.8-4.2-8.8-10.4c0-5.5,3.8-9.4,9.8-9.4h0.8
		c4.4,0,6.8,1.8,8.4,4.3c0.5,0.8,1,1.6,1,2c0,0.2-0.1,0.3-0.3,0.4l-4.2,2.2c-0.2,0.1-0.4,0.3-0.6,0.3c-0.2,0-0.3-0.1-0.4-0.4
		c-1-2.3-2.3-3.1-3.8-3.1h-0.8c-2.1,0-3.8,1.7-3.8,3.8c0,2.7,3.1,3.5,6.1,4.9c4,1.8,8.3,4.3,8.3,10.7
		C93.2,365.4,89.4,369.3,83.3,369.3z M107.7,363.8h2.6c1.4,0,2.8-0.8,3.8-3.1c0.1-0.3,0.3-0.4,0.4-0.4c0.2,0,0.4,0.2,0.6,0.3
		l4.2,2.2c0.2,0.1,0.3,0.2,0.3,0.4c0,0.3-0.5,1.2-1,2c-1.6,2.5-4,4.3-8.4,4.3h-2.6c-6,0-9.8-3.9-9.8-9.4v-15.6
		c0-5.5,3.8-9.4,9.8-9.4h2.6c4.4,0,6.8,1.8,8.4,4.3c0.5,0.8,1,1.6,1,2c0,0.2-0.1,0.3-0.3,0.4l-4.2,2.2c-0.2,0.1-0.4,0.3-0.6,0.3
		c-0.2,0-0.3-0.1-0.4-0.4c-1-2.3-2.3-3.1-3.8-3.1h-2.6c-2.1,0-3.8,1.7-3.8,3.8V360C103.8,362,105.6,363.8,107.7,363.8z M147.1,368.3
		c0,0.4-0.2,0.5-0.5,0.5h-5c-0.4,0-0.5-0.2-0.5-0.5v-13.1c0-0.4-0.2-0.5-0.5-0.5h-9.8c-0.4,0-0.5,0.2-0.5,0.5v13.1
		c0,0.4-0.2,0.5-0.5,0.5h-5c-0.4,0-0.5-0.2-0.5-0.5V336c0-0.4,0.2-0.5,0.5-0.5h5c0.4,0,0.5,0.2,0.5,0.5v12.6c0,0.4,0.2,0.5,0.5,0.5
		h9.8c0.4,0,0.5-0.2,0.5-0.5V336c0-0.4,0.2-0.5,0.5-0.5h5c0.4,0,0.5,0.2,0.5,0.5V368.3z M174.3,368.8H169c-0.3,0-0.5-0.1-0.5-0.4
		l-1.6-5.5c-0.1-0.3-0.3-0.3-0.5-0.3h-7.6c-0.3,0-0.5,0.1-0.5,0.3l-1.6,5.5c-0.1,0.3-0.3,0.4-0.5,0.4h-5.3c-0.4,0-0.6-0.2-0.6-0.4
		c0-0.2,0.2-0.5,0.3-1l9.6-31.6c0.1-0.3,0.3-0.4,0.5-0.4h3.8c0.3,0,0.5,0.1,0.5,0.4l9.6,31.6c0.1,0.3,0.3,0.7,0.3,1
		C174.9,368.6,174.7,368.8,174.3,368.8z M197.8,368.2c0,0.4-0.2,0.5-0.5,0.5h-18.7c-0.4,0-0.5-0.2-0.5-0.5V336
		c0-0.4,0.2-0.5,0.5-0.5h5c0.4,0,0.5,0.2,0.5,0.5v26.7c0,0.4,0.2,0.5,0.5,0.5h12.6c0.4,0,0.5,0.2,0.5,0.5V368.2z M219,340.5
		c0,0.4-0.2,0.5-0.5,0.5h-5.8c-0.4,0-0.5,0.2-0.5,0.5v26.7c0,0.4-0.2,0.5-0.5,0.5h-5c-0.4,0-0.5-0.2-0.5-0.5v-26.7
		c0-0.4-0.2-0.5-0.5-0.5h-5.8c-0.4,0-0.5-0.2-0.5-0.5V336c0-0.4,0.2-0.5,0.5-0.5h18.6c0.4,0,0.5,0.2,0.5,0.5V340.5z M254.9,358.9
		c0,6-3.8,9.8-9.8,9.8h-11.9c-0.4,0-0.5-0.2-0.5-0.5V336c0-0.4,0.2-0.5,0.5-0.5h11.9c6,0,9.8,3.9,9.8,9.8V358.9z M247.5,316.4
		c-33-1.4-64.8-19.7-64.3-55.5H225v0c0,21.5,52.9,21.7,52.9,1.9c0-11.8-14-14.5-30.9-15.5c-35.7-2.6-59.6-14.5-61.3-49.1L243,141
		c20.4-1.6,41.7,4,55.7,16.8l-28.5,28.5c-10.5-12.2-42.3-8-43.5,8.7c-1,12.8,11.6,15.5,26.8,17.2c33.6,3.6,66.4,8.7,66.4,51
		c0,34-31.6,52-64.4,53.4C252.9,316.5,250.2,316.5,247.5,316.4z M267.3,368.3c0,0.4-0.2,0.5-0.5,0.5h-5c-0.4,0-0.5-0.2-0.5-0.5V336
		c0-0.4,0.2-0.5,0.5-0.5h5c0.4,0,0.5,0.2,0.5,0.5V368.3z M283.5,363.8h2.6c1.4,0,2.8-0.8,3.8-3.1c0.1-0.3,0.3-0.4,0.4-0.4
		c0.2,0,0.4,0.2,0.6,0.3l4.2,2.2c0.2,0.1,0.3,0.2,0.3,0.4c0,0.3-0.5,1.2-1,2c-1.6,2.5-4,4.3-8.4,4.3h-2.6c-6,0-9.8-3.9-9.8-9.4
		v-15.6c0-5.5,3.8-9.4,9.8-9.4h2.6c4.4,0,6.8,1.8,8.4,4.3c0.5,0.8,1,1.6,1,2c0,0.2-0.1,0.3-0.3,0.4l-4.2,2.2
		c-0.2,0.1-0.4,0.3-0.6,0.3c-0.2,0-0.3-0.1-0.4-0.4c-1-2.3-2.3-3.1-3.8-3.1h-2.6c-2.1,0-3.8,1.7-3.8,3.8V360
		C279.7,362,281.4,363.8,283.5,363.8z M323,368.3c0,0.4-0.2,0.5-0.5,0.5h-5c-0.4,0-0.5-0.2-0.5-0.5v-13.1c0-0.4-0.2-0.5-0.5-0.5
		h-9.8c-0.4,0-0.5,0.2-0.5,0.5v13.1c0,0.4-0.2,0.5-0.5,0.5h-5c-0.4,0-0.5-0.2-0.5-0.5V336c0-0.4,0.2-0.5,0.5-0.5h5
		c0.4,0,0.5,0.2,0.5,0.5v12.6c0,0.4,0.2,0.5,0.5,0.5h9.8c0.4,0,0.5-0.2,0.5-0.5V336c0-0.4,0.2-0.5,0.5-0.5h5c0.4,0,0.5,0.2,0.5,0.5
		V368.3z M359.2,340.5c0,0.4-0.2,0.5-0.5,0.5h-12.6c-0.4,0-0.5,0.2-0.5,0.5v7c0,0.4,0.2,0.5,0.5,0.5h10.3c0.4,0,0.5,0.2,0.5,0.5v4.5
		c0,0.4-0.2,0.5-0.5,0.5h-10.3c-0.4,0-0.5,0.2-0.5,0.5v7.5c0,0.4,0.2,0.5,0.5,0.5h12.6c0.4,0,0.5,0.2,0.5,0.5v4.5
		c0,0.4-0.2,0.5-0.5,0.5H340c-0.4,0-0.5-0.2-0.5-0.5V336c0-0.4,0.2-0.5,0.5-0.5h18.7c0.4,0,0.5,0.2,0.5,0.5V340.5z M370.8,368.3
		c0,0.4-0.2,0.5-0.5,0.5h-5c-0.4,0-0.5-0.2-0.5-0.5V336c0-0.4,0.2-0.5,0.5-0.5h5c0.4,0,0.5,0.2,0.5,0.5V368.3z M399.8,368.3
		c0,0.4-0.2,0.5-0.5,0.5h-4.4c-0.2,0-0.4-0.1-0.5-0.3l-9.5-17.2c-0.2-0.4-1-2.3-1.1-2.7l-0.2,0.1c0.1,1.3,0.3,8.9,0.3,13.1v6.6
		c0,0.4-0.2,0.5-0.5,0.5h-5c-0.4,0-0.5-0.2-0.5-0.5V336c0-0.4,0.2-0.5,0.5-0.5h4.4c0.2,0,0.4,0.1,0.5,0.3l9.5,17.3
		c0.2,0.4,1,2.3,1.1,2.7l0.2-0.1c-0.1-1.3-0.3-8.9-0.3-13.1V336c0-0.4,0.2-0.5,0.5-0.5h5c0.4,0,0.5,0.2,0.5,0.5V368.3z M409.5,369.3
		c-1.9,0-3.5-1.6-3.5-3.5c0-1.9,1.6-3.5,3.5-3.5c1.9,0,3.5,1.6,3.5,3.5C413,367.7,411.4,369.3,409.5,369.3z"/>
	<path d="M245.1,341h-5.8c-0.4,0-0.5,0.2-0.5,0.5v21.1c0,0.4,0.2,0.5,0.5,0.5h5.8c2.1,0,3.8-1.6,3.8-3.8v-14.6
		C248.9,342.8,247.1,341,245.1,341z"/>
</g>
</svg>
