<?xml version="1.0" encoding="utf-8"?>
<!-- Generator: Adobe Illustrator 26.0.2, SVG Export Plug-In . SVG Version: 6.00 Build 0)  -->
<svg version="1.1" id="Ebene_1" xmlns="http://www.w3.org/2000/svg" xmlns:xlink="http://www.w3.org/1999/xlink" x="0px" y="0px"
	 viewBox="0 0 841.9 341.3" style="enable-background:new 0 0 841.9 341.3;" xml:space="preserve">
<style type="text/css">
	.st0{fill:#010202;}
</style>
<g>
	<path id="Pfad_190" class="st0" d="M60.9,307.8l33.2-33.2h160.1V81.3H60.9V307.8z M194,214.4h-73v-73h73V214.4z"/>
	<g id="Gruppe_51" transform="translate(1525.732 432.783)">
		<path id="Pfad_191" class="st0" d="M-1143.6-254.3c0,20.6-14.6,35.8-35.2,35.8c-10.2,0-18.9-4.3-24.4-10.9v38h-14.5v-63.3
			c0-21,15.5-36.2,37-36.2C-1159.1-290.9-1143.6-275.7-1143.6-254.3z M-1158.5-254.7c0-13.8-9.4-23.5-22.3-23.5
			c-13.1,0-22.4,9.8-22.4,23.6c0,13.6,9.4,23.6,22.4,23.6C-1167.8-231.2-1158.5-241.1-1158.5-254.7z"/>
		<path id="Pfad_192" class="st0" d="M-1118.3-289.6v69.8h-14.5v-69.8H-1118.3z"/>
		<path id="Pfad_193" class="st0" d="M-1050.4-219.8l-21.1-27.2l-21,27.2h-16.9l27.5-35l-27.1-34.8h16.7l20.7,26.5l20.7-26.5h16.9
			l-27.1,34.8l27.4,35C-1033.7-219.8-1050.4-219.8-1050.4-219.8z"/>
		<path id="Pfad_194" class="st0" d="M-959.5-250.2h-59.6c1.8,11.6,10.9,19.7,23,19.7c9.9,0,18.5-6.2,21.1-14.6h14.8
			c-4,15.5-18.9,26.5-36,26.5c-21.6,0-37.3-15.2-37.3-36.2s15.7-36.2,37.3-36.2s37,15.2,37.2,36.3
			C-959.1-253.1-959.2-251.6-959.5-250.2z M-1018.6-261.4h45.5c-2.4-10.4-11.5-17.6-23-17.6C-1007.4-279-1016.1-271.8-1018.6-261.4z
			"/>
		<path id="Pfad_195" class="st0" d="M-932.9-318v98.2h-14.5V-318H-932.9z"/>
		<path id="Pfad_196" class="st0" d="M-753.6-277.4v-12.2h-15.7v-18H-784v18h-12.5v12.2h12.5v47.6l0,0c0,5.5,4.5,10,10,10l0,0h10.6
			v-14.5h-6v-43.1L-753.6-277.4L-753.6-277.4z"/>
		<path id="Pfad_197" class="st0" d="M-819.2-286.4v-4h-14.6v70.6h14.6v-41.6c0-10.5,6.4-16,17.2-16v-12.2
			C-808.8-289.6-814.5-288.5-819.2-286.4z"/>
		<path id="Pfad_198" class="st0" d="M-862.6-290.5v6.3c-6.1-4.3-13.8-6.7-22.4-6.7c-21.6,0-37,15.2-37,36.2s14.3,36.2,33.9,36.2
			c10.6,0,20-4.3,25.7-10.9v9.6h14.5v-70.7H-862.6z M-884.8-231.2c-12.9,0-22.3-9.8-22.3-23.5c0-13.6,9.4-23.6,22.3-23.6
			c13,0,22.4,9.9,22.4,23.6C-862.4-241-871.8-231.2-884.8-231.2z"/>
	</g>
</g>
</svg>
