<?xml version="1.0" encoding="utf-8"?>
<!-- Generator: Adobe Illustrator 26.3.1, SVG Export Plug-In . SVG Version: 6.00 Build 0)  -->
<svg version="1.1" id="Ebene_1" xmlns="http://www.w3.org/2000/svg" xmlns:xlink="http://www.w3.org/1999/xlink" x="0px" y="0px"
	 viewBox="0 0 595.28 221.47" style="enable-background:new 0 0 595.28 221.47;" xml:space="preserve" preserveAspectRatio="none">
<style type="text/css">
	.st0{fill:#5F4C73;}
	.st1{fill:#86638A;}
	.st2{fill:none;}
</style>
<polygon class="st2" points="374.52,127.49 374.75,128 374.77,127.94 "/>
<polygon class="st0" points="407.18,39.94 407.2,39.79 407.15,39.77 "/>
<polygon class="st1" points="407.18,39.98 407.18,39.94 407.15,39.77 "/>
<g>
	<path d="M134.98,85.17c-9.93,0-18.01,9.33-18.01,20.81c0,11.47,8.08,20.8,18.01,20.8c9.93,0,18.01-9.33,18.01-20.8
		C152.99,94.5,144.91,85.17,134.98,85.17z"/>
	<path d="M544.14,112.48l17.44-21.34l-56.97-39.02l-40.01,15.51l-57.4-27.83l-0.02,0.15l-0.01,0.04l-0.03-0.21l0.05,0.03l0-0.03
		l-76.91-9.7l0.16,0.49l-0.22-0.49l-11.66,14.94l-48.55-6.25l-43.33,25.55l-18.54-28.64L140.8,38.8l-33.51,21.8l-74.34-1.75
		l12.37,35.01l0,0l-5.65,64.57l84.47,23.3l-1.64-11.81l0.03,0.08l41.62-29.44l104.73,15.86l20.6,20.82l-2.82,12.8l89.47-10.53
		L374.75,128l-0.23-0.51l0.25,0.45l-0.02,0.06L433,168.25l62.75,3.43l66.36-27.98L544.14,112.48z M392.14,74.89h12.26v51.71h22.06
		v10.45h-34.32V74.89z M544.05,137.06H531.1l-12.85-20.24h-18.44l0.87-11.73h18.56c4.5,0,9.75-2.4,9.75-9.17
		c0-6.78-5.25-9.18-9.75-9.18h-17.2L502.92,75h16.33c11.44,0,20.06,8.99,20.06,20.91c0,7.87-3.71,14.66-9.94,18.26L544.05,137.06z
		 M464.61,71.77l29.11,65.28h-12.36l-16.76-39.75l-17.62,39.75H435.5L464.61,71.77z M310.92,79.77l-2.7,12.27l-0.25-0.29
		c-3.43-4.05-8.01-6.28-12.89-6.28c-9.9,0-17.95,9.2-17.95,20.5c0,11.3,8.05,20.5,17.95,20.5c1.87,0,3.72-0.33,5.5-0.99l0.3-0.11
		l-2.53,11.48c-1.13,0.13-2.23,0.2-3.28,0.2c-16.25,0-29.47-13.94-29.47-31.08s13.22-31.08,29.47-31.08
		C300.72,74.89,306.19,76.58,310.92,79.77z M178.29,74.89h12.25v51.71h22.06v10.45h-34.32V74.89z M231.57,74.89l17.06,37.36v24.81
		h-12.14v-24.31L218.8,74.89H231.57z M53.65,105.09h21.82c4.49,0,9.74-2.4,9.74-9.17c0-6.78-5.25-9.18-9.74-9.18H53.65V75h21.82
		c11.44,0,20.06,8.99,20.06,20.91c0,11.92-8.62,20.9-20.06,20.9H65.32v4.54l-11.68,16.71V105.09z M105.42,105.97
		c0-17.4,13.26-31.55,29.56-31.55c16.3,0,29.56,14.15,29.56,31.55s-13.26,31.55-29.56,31.55
		C118.68,137.52,105.42,123.37,105.42,105.97z M327.02,115.4V74.89h11.47v40.05c0,5.51,1.25,11.84,10.98,11.84
		c9.74,0,10.98-6.33,10.98-11.84V74.89h11.46v40.51c0,11.01-6.94,22.12-22.45,22.12S327.02,126.41,327.02,115.4z"/>
</g>
</svg>
