<?xml version="1.0" encoding="utf-8"?>
<!-- Generator: Adobe Illustrator 26.0.2, SVG Export Plug-In . SVG Version: 6.00 Build 0)  -->
<svg version="1.1" id="Layer_1" xmlns="http://www.w3.org/2000/svg" xmlns:xlink="http://www.w3.org/1999/xlink" x="0px" y="0px"
	 viewBox="0 0 841.9 404.7" style="enable-background:new 0 0 841.9 404.7;" xml:space="preserve">
<style type="text/css">
	.st0{fill:#1C1C1A;}
	.st1{fill:#020203;}
</style>
<g id="Ebene_1">
	<g>
		<g>
			<path class="st0" d="M114.2,98.2c-16.9,0-30.7-13.8-30.7-30.7c0-16.9,13.8-30.7,30.7-30.7s30.7,13.8,30.7,30.7
				C144.9,84.4,131.2,98.2,114.2,98.2z M114.2,43.7c-13.2,0-23.9,10.7-23.9,23.9c0,13.1,10.7,23.9,23.9,23.9s23.9-10.7,23.9-23.9
				C138.1,54.4,127.4,43.7,114.2,43.7z"/>
			<g>
				<path class="st0" d="M258.2,100.7h-82.2l41.1-71.2L258.2,100.7z M187.8,93.8h58.5l-29.3-50.7L187.8,93.8z"/>
			</g>
			<g>
				<path class="st0" d="M378,84.6h-88.8V50.4H378V84.6z M296,77.8h75.1V57.2H296L296,77.8L296,77.8z"/>
			</g>
		</g>
	</g>
	<g>
		<path class="st1" d="M137.1,224.3c0,12.9-11.1,21.1-24.7,21.1h-13v13.3c0,5.3,1.2,10.4,1.8,12.9v0.3h-12v-0.3
			c0.6-2.5,1.8-7.5,1.8-12.9v-42.3c0-5.3-1.2-10.4-1.8-12.9v-0.3h25.6C128.1,203.3,137.1,212.6,137.1,224.3z M128.2,224.3
			c0-9.4-5.9-17.4-15.7-17.4H99.4v35h12.3C121.6,241.9,128.2,234.3,128.2,224.3z"/>
		<path class="st1" d="M185.3,271.6v0.3h-8.6c-0.3-1.2-0.7-4.7-0.9-7.9c-4.7,5.9-9.7,8.6-15.6,8.6c-7.6,0-15.5-4.3-15.5-16.3v-18.4
			c0-5.3-1.2-10.4-1.8-12.9v-0.3h9.7v30.7c0,8.2,4.9,11.7,10.6,11.7c4.3,0,8.5-2.2,12.5-6c-0.1-1.2-0.1-2.2-0.1-3v-20.3
			c0-5.3-1.2-10.4-1.8-12.9v-0.3h9.7v34C183.5,264.1,184.8,269.1,185.3,271.6z"/>
		<path class="st1" d="M235.6,271.6v0.3h-11.4v-0.3c0.6-2.5,1.8-7.5,1.8-12.9v-17.4c0-8.3-5.1-11.8-10.6-11.8
			c-4.4,0-8.6,2.2-12.6,6.2v23c0,5.3,1.2,10.4,1.8,12.9v0.3h-11.4v-0.3c0.6-2.5,1.8-7.5,1.8-12.9v-20.9c0-5.3-1.2-10.4-1.8-12.9
			v-0.3h9.6v8c4.5-5.9,9.7-8.6,15.5-8.6c7.6,0,15.4,4.3,15.4,16.3v18.3C233.8,264.1,235,269.1,235.6,271.6z"/>
		<path class="st1" d="M252.7,258.7c0,5.3,1.2,10.4,1.8,12.9v0.3H243v-0.3c0.6-2.5,1.8-7.5,1.8-12.9v-43.2c0-5.2-1.1-10.2-2.1-12.5
			l-0.1-0.4l1.8-0.2l8.3-1.3L252.7,258.7L252.7,258.7z M284.1,271.5v0.4h-9.7l-19.7-25.6l-0.1-0.2l10.4-9.1c5-4.5,6.7-8.7,5.1-11.8
			v-0.4h13.2v0.4l-21.2,18.4L284.1,271.5z"/>
		<path class="st1" d="M317.8,264c-2.5,5-7.2,8.7-13,8.7c-7.2,0-11-5.2-11-12.8v-31.8h-7v-2.4c7.9-2.1,11.3-7.5,13.6-14h1.1v13h13.3
			v3.3h-13.3l0.1,30.8c0,5.4,2.5,8.3,7,8.3C310.9,267.1,314.4,266.5,317.8,264z"/>
		<path class="st1" d="M367.6,212.9h-0.4c-3-2-9.2-6.4-15.7-6.4h-18v28.4h10.4c6.1,0,11.9-2,14.8-3h0.4v9h-0.4
			c-2.9-0.9-8.7-3-14.8-3h-10.4v33.9h-10.2v-0.3c0.6-2.5,1.8-7.5,1.8-12.9v-42.3c0-5.3-1.2-10.4-1.8-12.9v-0.3h44.3V212.9z"/>
		<path class="st1" d="M365.9,248.2c0-15,10.2-24,22.8-24s22.9,9.1,22.9,24c0,15-10.3,24.5-22.9,24.5
			C376,272.7,365.9,263.2,365.9,248.2z M402.7,248.2c0-11.5-5.4-21-14.1-21c-8.7,0-13.9,9.4-13.9,21c0,11.6,5.1,21.2,13.9,21.2
			C397.3,269.4,402.7,259.9,402.7,248.2z"/>
		<path class="st1" d="M446.3,224.7l-1.1,9.1h-0.3c-4.6-3.8-11.8-5-17.4,1v23.9c0,5.3,1.2,10.4,1.8,12.9v0.3h-11.4v-0.3
			c0.6-2.5,1.8-7.5,1.8-12.9v-20.9c0-5.3-1.2-10.4-1.8-12.9v-0.3h9.6v7.6C431.3,226,438.5,222.3,446.3,224.7z"/>
		<path class="st1" d="M519.7,271.6v0.3h-11.4v-0.3c0.6-2.5,1.8-7.5,1.8-12.9v-17.4c0-8.1-5-11.7-10.2-11.7c-3.5,0-6.7,1.9-10.4,5.3
			c0.5,1.6,0.7,3.4,0.7,5.5v18.3c0,5.3,1.2,10.4,1.8,12.9v0.3h-11.4v-0.3c0.6-2.5,1.8-7.5,1.8-12.9v-17.4c0-8.2-5-11.7-10.2-11.7
			c-3.3,0-6.5,1.6-9.8,4.8v24.4c0,5.3,1.2,10.4,1.8,12.9v0.3h-11.4v-0.3c0.6-2.5,1.8-7.5,1.8-12.9v-20.9c0-5.3-1.2-10.4-1.8-12.9
			v-0.3h9.6v6.4c4.1-4.8,8.3-7,13.2-7c5.2,0,10.8,2.4,13.2,8.5c4.6-5.9,9-8.5,14.5-8.5c7,0,14.6,4.3,14.6,16.3v18.3
			C517.8,264.1,519.1,269.1,519.7,271.6z"/>
		<path class="st1" d="M527.7,265.8V254h0.4c6.3,7.6,13.4,15.4,23.9,15.4c8.8,0,15.1-5,15.1-12.9c0-8.5-7.5-12.8-18.6-16.3
			c-14.3-4.5-21-11.3-21-19.8c0-9.6,8.3-18.1,22.7-18.1c9,0,17,3.4,22.5,6.4v11h-0.4c-6.2-7.4-14.4-13.8-23-13.8
			c-8.3,0-14.4,5-14.4,11.3c0,7,7.8,11.7,19.8,15.5c13.3,4.6,19.9,11,19.9,21c0,13-10.6,19.1-22.9,19.1
			C543.1,272.9,535.2,269.6,527.7,265.8z"/>
		<path class="st1" d="M610.6,264c-2.5,5-7.2,8.7-13,8.7c-7.2,0-11-5.2-11-12.8v-31.8h-7v-2.4c7.9-2.1,11.3-7.5,13.6-14h1.1v13h13.3
			v3.3h-13.3l0.1,30.8c0,5.4,2.5,8.3,7,8.3C603.7,267.1,607.2,266.5,610.6,264z"/>
		<path class="st1" d="M643.7,224.7l-1.1,9.1h-0.3c-4.6-3.8-11.8-5-17.4,1v23.9c0,5.3,1.2,10.4,1.8,12.9v0.3h-11.4v-0.3
			c0.6-2.5,1.8-7.5,1.8-12.9v-20.9c0-5.3-1.2-10.4-1.8-12.9v-0.3h9.6v7.6C628.7,226,635.9,222.3,643.7,224.7z"/>
		<path class="st1" d="M650.4,207.3c0-3.2,2.7-5.7,5.8-5.7c3.2,0,5.9,2.5,5.9,5.7c0,3.1-2.7,5.7-5.9,5.7
			C653,213,650.4,210.5,650.4,207.3z M650.9,271.6c0.6-2.5,1.8-7.5,1.8-12.9v-20.9c0-5.3-1.2-10.4-1.8-12.9v-0.3h9.5v34
			c0,5.3,1.2,10.4,1.8,12.9v0.3h-11.3V271.6z"/>
		<path class="st1" d="M669.6,248.3c0-15.2,9.4-24.1,22.2-24.1c6.4,0,11.8,2.4,16,4.7l0.1,10.7h-0.5c-3.1-5.4-8.1-12.3-15.5-12.3
			c-8.9,0-13.6,9-13.6,19.5c0.1,12,6.1,20.3,16.4,20.3c4.3,0,9.7-1.5,15.2-6.9l0.2,0.1c-3.5,7.7-10.4,12.4-18.7,12.4
			C679.6,272.7,669.6,263.7,669.6,248.3z"/>
		<path class="st1" d="M758.9,271.6v0.3h-11.4v-0.3c0.6-2.5,1.8-7.5,1.8-12.9v-17.4c0-8.3-5-11.8-10.8-11.8c-4.3,0-8.5,2.2-12.4,6
			v23.2c0,5.3,1.2,10.4,1.8,12.9v0.3h-11.4v-0.3c0.6-2.5,1.8-7.5,1.8-12.9v-43.2c0-5.2-1.2-10.2-2.1-12.5l-0.1-0.4l1.8-0.2l8.2-1.3
			v31.5c4.7-5.9,9.7-8.5,15.5-8.5c7.6,0,15.4,4.3,15.4,16.3v18.3C757.1,264.1,758.4,269.1,758.9,271.6z"/>
	</g>
	<g>
		<path class="st1" d="M83.9,356.9c0.9-1.9,2.9-5.7,4-9.7l8.5-32c1.1-4,1.2-7.9,1.3-9.7l0.1-0.2h19.4c8.3,0,13.1,5.8,11.2,13
			c-1.6,6-6.5,10.1-12.2,12.1c5.5,1.7,9.7,5.9,7.6,13.3c-2.3,8.7-11.2,13.5-20.7,13.5H83.8L83.9,356.9z M102,354.6
			c8.5,0,13.1-4,15-11.1c2.1-7.8-1.9-11.7-8.9-11.7l-9.9,0.1L92,354.6H102z M109,329.2c6.4-0.2,10.7-4.5,12.5-11
			c1.6-5.9-0.1-10.5-6.7-10.5h-10.2l-5.8,21.5H109z"/>
		<path class="st1" d="M154.2,321.8l-2.3,6.4h-0.2c-1.1-1.1-2.5-1.6-3.9-1.5c-5.1,0.2-10.2,8.5-13.1,17.5l-3.4,12.9h-5.8l6.9-25.7
			c1.1-4,1.2-7.9,1.3-9.7l0.1-0.2h6.9l-3.2,12.3C141.1,326.1,147.2,318.5,154.2,321.8z"/>
		<path class="st1" d="M187.7,344.6c-3.1,7.2-7.9,13-12.2,13c-2.5,0-4.5-1.8-3.1-7l1-3.8c-4.2,7.1-9.5,10.9-13.8,10.9
			c-6,0-9.7-7.1-5.3-19.3c4.6-13,12.8-17.4,18.3-17.4c3.8,0,6.2,2,6.9,4.8c2.1-1.4,4-2.8,5.3-4.4h1.2l-8.1,29.7
			c-1.1,4.2,4.6,0.5,9.2-7.1L187.7,344.6z M176.3,336.2l1.8-6.6c0.2-2.7-0.9-5.9-4.2-6c-4.7-0.1-10.2,5.4-13.4,14.4
			c-3.3,9.1-2.2,15.6,2.2,15.6C167.3,353.6,173.3,346.4,176.3,336.2z"/>
		<path class="st1" d="M227.9,344.6c-3.1,7.2-7.9,13-12,13c-2.7,0-4.7-1.9-3.3-7L217,334c1.8-6.5-0.4-8.9-3.4-8.9
			c-6.3,0-13.1,10.5-16.4,20.8l-3,11.3h-5.8l7.1-25.7c1-4,1.2-8.1,1-9.8v-0.2h7.1l-3.4,12.9c3.8-6.9,9.3-13.3,16-13.3
			c4.8,0,9.1,3.2,6.6,12.2l-4.9,18.2c-1,3.8,4.7,0.3,9.3-7.4L227.9,344.6z"/>
		<path class="st1" d="M264.9,344l0.5,0.6c-3.1,7.2-7.9,13-12.2,13c-2.5,0-4.5-1.8-3.1-7l1.1-3.9c-4.3,7.1-9.6,11-13.9,11
			c-6,0-9.7-7.1-5.3-19.3c4.6-13,12.9-17.4,18.2-17.4c3.6,0,5.8,2,6.6,4.8l3-11.2c1-4,1.4-7.8,1.1-9.5l-0.1-0.2l7.6-1.2l-12.8,47.6
			C254.6,355.4,260.3,351.6,264.9,344z M253.8,336.9l1.8-6.6c0.2-3.1-0.8-6.3-4.2-6.5c-4.5-0.1-10.1,5.2-13.3,14.1
			c-3.3,9.1-2.2,15.6,2.2,15.6C244.9,353.6,250.7,346.6,253.8,336.9z"/>
		<path class="st1" d="M268.2,349.7l5-18.5c1.1-4,1.1-7.4,0.9-9.6l0.1-0.2h7.4l-7.6,28c-1.8,6.9,4.2,1.8,8.9-5.8l0.4,0.6
			c-3.1,7.2-7.8,13-12,13C268.7,357.2,266.7,355.2,268.2,349.7z M277.5,308.7c0.6-2.4,3-4.3,5.2-4.3c2.2,0,3.6,2,3,4.3
			c-0.6,2.5-3.1,4.3-5.3,4.3S276.8,311.1,277.5,308.7z"/>
		<path class="st1" d="M323.5,344.6c-3.1,7.2-7.9,13-12,13c-2.7,0-4.7-1.9-3.3-7l4.5-16.6c1.8-6.5-0.4-8.9-3.4-8.9
			c-6.3,0-13,10.5-16.4,20.8l-3,11.3h-5.8l7.1-25.7c1-4,1.2-8.1,1-9.8v-0.2h7.1l-3.4,12.9c3.8-6.9,9.3-13.3,16-13.3
			c4.8,0,9.1,3.2,6.6,12.2l-4.9,18.2c-1,3.8,4.7,0.3,9.3-7.4L323.5,344.6z"/>
		<path class="st1" d="M320.8,362.6c0.8-2.7,2.8-5.1,5.6-6.7c-1.7-1.1-2.3-3.5-1.7-5.8c1-3.4,3.8-5.3,7.1-6.3
			c-2.9-2.3-3.8-6.3-2.6-11c2.1-8,9.6-11.8,16.4-11.8c2.8,0,5.5,0.7,7.4,2.1c3-3.5,6.7-5,10.7-4.4l-2.4,5.2l-0.2,0.1
			c-1.8-1.2-4.2-1.4-7.3-0.2c2.5,2.1,3.5,6.1,2.2,10.5c-2.2,8-9.7,12-16.5,12c-2.1,0-4.2-0.4-6.1-1.4c-2.1,0.4-3.7,1.8-4.2,3.5
			c-0.6,2.5,1.4,3.8,4,3.8h10.2c6.5,0,10.6,4,8.5,10.2c-2.8,8.6-14.2,9.2-18.7,9.2C327.4,371.5,318.6,369.9,320.8,362.6z
			 M347.8,362.6c0.7-2.9-1.2-5.1-5.9-5.1h-9.1c-1.6,0-3-0.1-4.2-0.4c-2,1.7-3.4,3.8-3.6,6.1c-0.5,4,3.2,6.1,9.4,6.1
			C341.6,369.2,346.9,366,347.8,362.6z M350.2,334.1c1.7-6.6-0.4-11-5.2-11c-4.2,0-8.2,3.5-10,10c-1.7,6.5,0.5,10.9,5.2,10.9
			C344.6,344.1,348.6,340.1,350.2,334.1z"/>
		<path class="st1" d="M376.7,344.2c2-7.3,8.8-11.4,15.1-14.1c-2.5-4.3-4.9-8.1-3.4-13.5c2-7.8,9.4-12,16.6-12c7,0,12.4,4,10.7,10.7
			c-1.5,6.1-7.6,9.7-16.9,13.8l8.7,15.1c1.3-1.7,2.8-3.7,3.8-5.5c2-3.4,1.7-6.3,1.3-7.8l0.1-0.2h7.4l-0.1,0.2
			c-2.1,2.1-4.3,4.7-6.3,7.6c-1.7,2.6-3.3,5.1-5.1,7.4c1.6,2.7,2.6,4,4,5.8c1.2,1.5,3.2,2,5.4,1.1c-0.7,2.6-3.2,5-6.5,5
			c-2,0-3.6-1-5-2.9c-0.9-1.3-1.7-2.7-2.5-4c-5,4.5-10.2,7.1-15.9,7.1C380.5,357.7,374.4,352.7,376.7,344.2z M402.8,348.8l-9.7-16.7
			c-5.3,3-8.8,6.6-10,11.2c-1.7,6.3,1.6,11,7.8,11C395.1,354.3,399.1,352.3,402.8,348.8z M410.5,315.1c1.3-4.6-1.3-8.2-5.9-8.2
			c-4.8,0-8.9,3.8-10,8c-1.1,4.1,0.9,8,3.5,12.4C404.3,323.8,409.2,320.1,410.5,315.1z"/>
		<path class="st1" d="M438.7,356.9c1-1.9,2.9-5.7,4-9.7l8.6-32c1.1-4,1.1-7.9,1.2-9.7l0.1-0.2H469c12.1,0,20.2,10.8,15.8,27.5
			c-4.1,15.3-17.6,24.4-29.7,24.4h-16.4L438.7,356.9z M454.4,354.6c10.7,0,19.9-8.9,23.4-22.4c3.8-14.4,0-24.6-10.8-24.6h-7.5
			l-12.5,46.9H454.4z"/>
		<path class="st1" d="M493.2,339.7c-1.8,8.2,0.9,13.8,6.9,13.8c3.9,0,10-2.3,14.6-10.6l0.6,0.6c-4.1,9.4-11.6,14.1-17.7,14.1
			c-7.7,0-13.4-7.4-9.8-19.7c3-10.4,11.2-17,19.4-17c5.8,0,10.6,3.1,9.5,8.3C515.5,335,507.5,340.7,493.2,339.7z M493.9,337.3
			l-0.2,0.6c11.5,0,16.3-4.1,17.4-8.4c1-3.7-0.8-6.3-4.1-6.3C501,323.2,495.8,330.9,493.9,337.3z"/>
		<path class="st1" d="M516.7,354.1l2.4-7.1h0.3c1.4,4,5.1,8.3,10.1,8.4c2.9,0.1,6-1,7.2-4.2c1.7-4.2-2-7.4-6.5-10.4
			c-4-2.7-9.3-6.5-7.3-12.5c1.6-4.8,6.3-7.4,12.4-7.5c4.4-0.1,8.4,1.1,11.5,2.7l-2.2,6.9l-0.2,0.1c-1.4-4.3-5-7.4-9.7-7.3
			c-3,0.1-5.7,1.4-6.6,4.1c-1.4,4,3,6.6,6.6,9.1c5.9,4.1,9,8,7.3,13.3c-1.7,5.3-6.4,8.1-12.5,8.1C524.8,358,520.1,356.6,516.7,354.1
			z"/>
		<path class="st1" d="M547.5,349.7l5-18.5c1.1-4,1.1-7.4,0.9-9.6l0.1-0.2h7.3l-7.6,28c-1.8,6.9,4.2,1.8,8.9-5.8l0.4,0.6
			c-3.1,7.2-7.8,13-12,13C548,357.2,545.9,355.2,547.5,349.7z M556.7,308.7c0.6-2.4,3-4.3,5.2-4.3c2.2,0,3.6,2,3,4.3
			c-0.7,2.5-3.1,4.3-5.3,4.3S556,311.1,556.7,308.7z"/>
		<path class="st1" d="M559.9,362.6c0.8-2.7,2.8-5.1,5.6-6.7c-1.7-1.1-2.3-3.5-1.7-5.8c1-3.4,3.8-5.3,7.1-6.3
			c-2.9-2.3-3.8-6.3-2.6-11c2.1-8,9.6-11.8,16.4-11.8c2.8,0,5.5,0.7,7.3,2.1c3-3.5,6.7-5,10.7-4.4l-2.4,5.2l-0.2,0.1
			c-1.8-1.2-4.2-1.4-7.3-0.2c2.5,2.1,3.5,6.1,2.2,10.5c-2.2,8-9.7,12-16.5,12c-2.1,0-4.2-0.4-6.1-1.4c-2.1,0.4-3.7,1.8-4.2,3.5
			c-0.7,2.5,1.4,3.8,4,3.8h10.2c6.5,0,10.6,4,8.5,10.2c-2.8,8.6-14.2,9.2-18.7,9.2C566.5,371.5,557.7,369.9,559.9,362.6z
			 M586.9,362.6c0.7-2.9-1.2-5.1-5.9-5.1h-9.1c-1.6,0-3-0.1-4.2-0.4c-2,1.7-3.4,3.8-3.6,6.1c-0.5,4,3.2,6.1,9.4,6.1
			C580.7,369.2,586,366,586.9,362.6z M589.3,334.1c1.7-6.6-0.4-11-5.2-11c-4.2,0-8.2,3.5-10,10c-1.7,6.5,0.5,10.9,5.2,10.9
			C583.7,344.1,587.7,340.1,589.3,334.1z"/>
		<path class="st1" d="M635.4,344.6c-3.1,7.2-7.9,13-12,13c-2.7,0-4.7-1.9-3.3-7l4.5-16.6c1.8-6.5-0.4-8.9-3.4-8.9
			c-6.3,0-13,10.5-16.4,20.8l-3,11.3H596l7.1-25.7c1-4,1.2-8.1,1-9.8v-0.2h7.1l-3.4,12.9c3.8-6.9,9.3-13.3,16-13.3
			c4.8,0,9.1,3.2,6.6,12.2l-4.9,18.2c-1,3.8,4.7,0.3,9.3-7.4L635.4,344.6z"/>
	</g>
</g>
<g id="Ebene_2">
</g>
<g id="Ebene_3">
</g>
</svg>
