<?xml version="1.0" encoding="utf-8"?>
<!-- Generator: Adobe Illustrator 26.3.1, SVG Export Plug-In . SVG Version: 6.00 Build 0)  -->
<svg version="1.1" id="Ebene_1" xmlns="http://www.w3.org/2000/svg" xmlns:xlink="http://www.w3.org/1999/xlink" x="0px" y="0px"
	 viewBox="0 0 650.34 157.96" style="enable-background:new 0 0 650.34 157.96;" xml:space="preserve" preserveAspectRatio="none">
<style type="text/css">
	.st0{fill:#010202;}
</style>
<g>
	<path class="st0" d="M49.06,67.45c0-7.8-6.35-14.22-14.09-14.22c-5.36,0-14.62,0-14.62,0v50.67h6.75v-24.8l17.2,24.8h8L36.49,81.74
		C44.5,80.74,49.06,74.86,49.06,67.45z M27.1,76.31v-17c0,0,4.89,0,6.15,0c6.08,0,8.66,3.5,8.66,8.2c0,4.63-1.79,8.8-9.26,8.8
		C30.61,76.31,27.1,76.31,27.1,76.31z"/>
	<path class="st0" d="M64.33,103.9h7.61l5.09-11.97h22.09l5.16,11.97h7.61L88.01,51.71L64.33,103.9z M96.61,86.04H79.54l8.53-19.38
		L96.61,86.04z"/>
	<polygon class="st0" points="138.6,89.48 124.45,53.23 116.77,53.23 138.67,106.21 160.1,53.23 152.56,53.23 	"/>
	<polygon class="st0" points="177.02,103.9 202.75,103.9 202.75,97.48 183.9,97.48 183.9,79.22 202.22,79.22 202.22,72.94 
		183.9,72.94 183.9,59.38 202.75,59.38 202.75,53.23 177.02,53.23 	"/>
	<polygon class="st0" points="261.28,90.4 223.78,52.11 223.78,103.9 230.26,103.9 230.26,67.85 267.63,105.81 267.63,53.23 
		261.28,53.23 	"/>
	<path class="st0" d="M296.5,103.9h3.29l2.2-5.19h9.57l2.23,5.19h3.29l-10.34-22.6L296.5,103.9z M310.48,96.16h-7.39l3.7-8.39
		L310.48,96.16z"/>
	<polygon class="st0" points="340.84,98.05 324.6,81.47 324.6,103.9 327.41,103.9 327.41,88.29 343.59,104.73 343.59,81.96 
		340.84,81.96 	"/>
	<path class="st0" d="M358.86,81.96c-2.09,0-5.64,0-5.64,0v21.94c0,0,3.92,0,6.33,0c5.84,0,10.8-4.07,10.8-10.94
		C370.35,85.71,364.62,81.96,358.86,81.96z M359.98,101.12c-1.46,0-3.78,0-3.78,0V84.8c0,0,2.12,0,3.44,0
		c4.24,0,7.59,3.38,7.59,8.16C367.23,97.85,364.1,101.12,359.98,101.12z"/>
	<polygon class="st0" points="397.42,103.9 404.3,103.9 404.3,79.22 421.36,79.22 421.36,72.94 404.3,72.94 404.3,59.38 
		421.96,59.38 421.96,53.23 397.42,53.23 	"/>
	<rect x="440.67" y="53.23" class="st0" width="6.88" height="50.67"/>
	<polygon class="st0" points="507.27,90.4 469.77,52.11 469.77,103.9 476.25,103.9 476.25,67.85 513.62,105.81 513.62,53.23 
		507.27,53.23 	"/>
	<path class="st0" d="M539.01,78.76c0-12.1,8.07-19.97,19.11-19.97c7.61,0,12.83,3.97,12.83,3.97v-7.08
		c-3.84-2.12-8.86-3.5-13.36-3.5c-14.35,0-25.66,11.44-25.66,26.46c0,15.15,10.85,26.46,25.93,26.46c5.42,0,11.84-2.51,13.23-3.64
		v-7.21c-3.57,2.05-7.67,4.17-12.96,4.17C546.15,98.4,539.01,90.01,539.01,78.76z"/>
	<polygon class="st0" points="620.29,53.23 620.29,73.14 597.34,73.14 597.34,53.23 590.46,53.23 590.46,103.9 597.34,103.9 
		597.34,79.09 620.29,79.09 620.29,103.9 627.17,103.9 627.17,53.23 	"/>
</g>
</svg>
