<?xml version="1.0" encoding="utf-8"?>
<!-- Generator: Adobe Illustrator 26.3.1, SVG Export Plug-In . SVG Version: 6.00 Build 0)  -->
<svg version="1.1" xmlns="http://www.w3.org/2000/svg" xmlns:xlink="http://www.w3.org/1999/xlink" x="0px" y="0px"
	 viewBox="0 0 3926.9 1582.37" style="enable-background:new 0 0 3926.9 1582.37;" xml:space="preserve" preserveAspectRatio="none">
<g id="WORDMARK">
	<g>
		<g>
			<rect x="1108.11" y="958.69" width="34.98" height="223.57"/>
			<polygon points="1416.76,1126.28 1289.8,958.69 1253.78,958.69 1253.78,1182.26 1288.74,1182.26 1288.74,1010.64 1417.8,1182.26 
				1451.73,1182.26 1451.73,958.69 1416.76,958.69 			"/>
			<polygon points="1511.22,988.18 1583.62,988.18 1583.62,1182.26 1618.61,1182.26 1618.61,988.18 1690.65,988.18 1690.65,958.69 
				1511.22,958.69 			"/>
			<polygon points="1755.29,1182.26 1911.98,1182.26 1911.98,1152.77 1790.27,1152.77 1790.27,1083.04 1909.53,1083.04 
				1909.53,1053.55 1790.27,1053.55 1790.27,988.18 1911.98,988.18 1911.98,958.69 1755.29,958.69 			"/>
			<path d="M2171.91,1027.4c0-41.23-30.43-68.71-74.85-68.71h-98.28v223.57h34.98v-86.15h43.71l55.62,86.15h40.56l-59.79-89.49
				C2143.57,1089.07,2171.91,1067.62,2171.91,1027.4z M2033.76,1066.62v-78.44h58.75c25.19,0,43.37,15.76,43.37,39.22
				c0,23.46-18.18,39.22-43.37,39.22H2033.76z"/>
			<path d="M2315.6,958.69l-92.7,223.57h38.48l18.89-46.25h114.36l18.88,46.25H2452l-92.69-223.57H2315.6z M2290.41,1106.17
				l46.88-118.32l47.2,118.32H2290.41z"/>
			<path d="M2602.71,985.89c27.63,0,50.71,13.75,62.95,32.51l29.73-15.08c-18.19-26.15-46.86-47.26-92.68-47.26
				c-66.46,0-119.61,46.92-119.61,115.64c0,68.71,53.15,115.64,119.61,115.64c45.81,0,74.14-21.12,92.68-47.27l-29.73-15.08
				c-12.24,18.77-35.32,32.52-62.95,32.52c-47.22,0-83.59-35.86-83.59-85.81C2519.12,1021.41,2555.5,985.89,2602.71,985.89z"/>
			<polygon points="2732.39,988.18 2804.78,988.18 2804.78,1182.26 2839.76,1182.26 2839.76,988.18 2911.8,988.18 2911.8,958.69 
				2732.39,958.69 			"/>
			<rect x="2987.03" y="958.69" width="34.98" height="223.57"/>
			<polygon points="3198.74,1145.73 3124.25,958.69 3084.37,958.69 3177.05,1182.26 3220.77,1182.26 3313.45,958.69 3273.59,958.69 
							"/>
			<polygon points="3370.26,1182.26 3526.95,1182.26 3526.95,1152.77 3405.22,1152.77 3405.22,1083.04 3524.49,1083.04 
				3524.49,1053.55 3405.22,1053.55 3405.22,988.18 3526.95,988.18 3526.95,958.69 3370.26,958.69 			"/>
		</g>
		<path d="M1505.8,553.31c0-85.75-59.01-153.52-163-153.52h-234.67v461.27h120.85V704.76h61.83l78.68,156.29h138.41l-95.55-169.44
			C1455.91,676.4,1505.8,633.52,1505.8,553.31z M1324.53,603.79h-95.55V500.05h95.55c31.62,0,58.31,20.06,58.31,51.86
			C1382.84,583.73,1356.14,603.79,1324.53,603.79z"/>
		<polygon points="1601.82,861.05 1945.39,861.05 1945.39,760.77 1722.66,760.77 1722.66,677.79 1940.47,677.79 1940.47,576.82 
			1722.66,576.82 1722.66,500.06 1945.39,500.06 1945.39,399.78 1601.82,399.78 		"/>
		<path d="M2502.1,630.06c0-143.15-106.09-230.28-253.63-230.28h-196.73v461.27h197.43C2396.01,861.05,2502.1,773.21,2502.1,630.06z
			 M2172.59,757.31v-253.8h76.58c85.72,0,129.27,55.33,129.27,126.56c0,68.47-47.77,127.25-129.97,127.25H2172.59z"/>
		<path d="M2797.05,392.17c-143.32,0-250.83,98.21-250.83,238.59c0,140.39,107.51,238.59,250.83,238.59
			c143.33,0,250.12-98.2,250.12-238.59C3047.18,490.38,2940.38,392.17,2797.05,392.17z M2797.05,764.23
			c-77.99,0-127.87-58.79-127.87-133.48c0-75.38,49.87-133.48,127.87-133.48c77.29,0,127.18,58.1,127.18,133.48
			C2924.23,705.45,2874.34,764.23,2797.05,764.23z"/>
		<polygon points="3282.61,706.13 3384.49,861.05 3527.12,861.05 3364.11,623.84 3516.58,399.78 3373.25,399.78 3282.61,544.31 
			3190.56,399.78 3047.95,399.78 3201.12,624.53 3037.41,861.05 3180.73,861.05 		"/>
	</g>
</g>
<g id="SYMBOL">
	<g>
		<path d="M980.7,1105.52L880.5,931.75c14.67-12.78,28.21-27.18,40.32-43.14c36.66-50.09,59.19-109.39,59.19-179
			c0-108.77-58.48-175.19-128.95-231.75c-93.44-75-137.69-189.72-63.44-299.12c-144.67,62-196.48,218.94-138.47,351.98
			c46.22,105.99-28.63,146.02-73.02,122.48c-69.1-36.65-52.49-143.1-7.41-203.22C414.78,520.2,353.68,711.58,439.03,857.85
			c16.14,28.31,36.73,53.21,60.66,74.04l-100.12,173.63c-31.23,54.15,7.86,121.81,70.37,121.81h440.4
			C972.85,1227.33,1011.93,1159.67,980.7,1105.52z M910.46,1182.22H469.78c-27.76,0-45.12-30.03-31.27-54.09l210.06-364.77h-51.73
			v-58.63H783.4v58.63h-51.73l210.06,364.77C955.58,1152.19,938.22,1182.22,910.46,1182.22z"/>
		<polygon points="619.19,958.66 531.91,1110.22 848.38,1110.22 761.1,958.66 		"/>
	</g>
</g>
</svg>
