<svg xmlns="http://www.w3.org/2000/svg" xmlns:xlink="http://www.w3.org/1999/xlink" width="1384.99" height="1365.138" viewBox="0 0 1384.99 1365.138">
  <defs>
    <clipPath id="clip-path">
      <rect id="Rectangle_13236" data-name="Rectangle 13236" width="1384.99" height="1365.138" fill="none"/>
    </clipPath>
  </defs>
  <g id="Group_914" data-name="Group 914" transform="translate(0 0.005)">
    <g id="Group_912" data-name="Group 912" transform="translate(0 -0.005)" clip-path="url(#clip-path)">
      <path id="Path_242" data-name="Path 242" d="M534.853,0h74.573v10.44h10.917c.164,3.317.307,6.215.454,9.181l10.237.5c.178,3.544.332,6.6.488,9.7h20.447c.17-3.12.328-6.019.494-9.088h74.458c.172,3.325.322,6.221.5,9.723h20.811c.2,3.533.361,6.435.559,9.951h20.718c.171,3.689.313,6.748.48,10.347h21.5v9.821l10.163.448c.187,3.293.36,6.331.557,9.8H823.33v9.836l10.424.457c.181,3.379.346,6.431.534,9.931h20.773c.192,3.506.359,6.549.559,10.218h21.274v9.959h21.093c.226,3.493.415,6.4.627,9.667h31.279c.219-3.361.416-6.388.651-9.984h10.519V101.33l10.59-.522V81.064l10.706-.573V20.669h20.81V91.134h-10.2v30.2H962.523c-.193,3.506-.36,6.553-.538,9.782l-10.459.518v9.492l-21.277.968v8.948H908.576v-9.452H877.029c-.181-3.773-.328-6.829-.494-10.284H855.561c-.167-3.468-.316-6.529-.469-9.709H823.06v9.836l-9.711.427c-.4,6.7-.775,13.016-1.155,19.389l-10.234.424v30.166l-10.634.524v49.813l-10.766.634v70.719H769.831V403.956L759.2,404.4V504.957l-10.531.513v60.16h-10.68v40.242l-10.8.476v29.765l-10.386.521V656.4l10.15.427c.184,3.209.352,6.122.563,9.8h31.458c.237,3.8.425,6.839.618,9.949l9.933.418c.163,3.451.307,6.513.455,9.673l10.285.441c.165,3.479.309,6.533.461,9.75l10.773.465V716.9l10.777.551v20.21H813.12v40.064h9.765V909.008l-10.243.43v29.629l-10.548.6v30.083h-10.6c-.187,3.506-.349,6.555-.52,9.767l-9.865.493c-.2,3.5-.385,6.7-.592,10.3h-9.928c-.2,3.467-.37,6.5-.555,9.751l-10.637.545c-.184,3.369-.34,6.259-.517,9.513h-9.968v10.244h10c.177,3.417.335,6.471.5,9.746l10.084.554c.368,6.793.711,13.126,1.081,19.95h10.023V1070.4l10.919.539v80.05h10.34v-90.256l10.686-.442V1000.1l10.879-.506v-40l10.488-.483V919.254l10.784-.487V878.58h10.7V848.349H866.3V827.692h10.4V798.069l11.127-.526V777.716h10.111V747.473h11.039V737.179l9.867-.549c.364-6.615.7-12.8,1.057-19.2l9.62-.547v-9.848H897.938V696.825H887.31c-.178-3.662-.326-6.705-.5-10.22H876.6v-9.721l-10.761-.446V646.766l-10.135-.553V555.7l10.521-.5V535.776h31.512v40.171H887.283v19.691l-9.793.506V645.83l9.99.591v20.1l10.634.524v9.721h21.57v9.683h20.784c.24-3.447.45-6.482.693-9.973H961.73c.176-3.536.328-6.6.5-9.982l10.115-.442c.334-6.718.648-13.033.987-19.848H983.88v-9.573l10.527-.549V616.445l10.47-.46c.173-3.348.33-6.395.5-9.7l9.651-.43c.394-6.761.77-13.221,1.167-20.029h10.055v-20.28h11.005V545.53l9.792-.551v-9.416l-9.954-.432V515.345l-10.9-.453V485.081l-10.8-.47V444.3h-10.679V394.32l-10.651-.526V303.542L983.863,303V212.374l10.465-.681v-70l10.923-.512v-29.9l10.706-.444V90.958h10.083c.214-3.592.4-6.76.624-10.479h20.858c.177-3.49.324-6.4.484-9.543h20.928c.193,3.233.375,6.268.59,9.854h20.816c.179,3.615.331,6.666.495,9.978l10.609.514v19.612l10.074.52c.367,6.763.718,13.235,1.1,20.214h10.1v19.611l10.9.529v40.089h10.668v40.13l10.716.469v60.237h20.968V272.676l10.771-.554V242.307h10.682V222.535l10.766-.513V201.894h10.756V182.2l10.933-.753V161.4h10.6V141.709l10.561-.523v-10l9.854-.556c.355-6.5.695-12.689,1.051-19.2l10.421-.606V90.939h10.3c.237-3.559.448-6.718.682-10.238h10.061c.184-3.588.35-6.785.52-10.074l9.778-.444c.333-6.74.646-13.069.977-19.744h10.16c.171-3.423.324-6.482.489-9.791l10.085-.435c.174-3.408.331-6.468.515-10.073H1346.4c.2-3.459.362-6.367.542-9.527l10.71-.495c.191-3.478.357-6.509.547-9.956h9.891V0h16.9v20.67l-6-.328V30.47l-9.875.541c-.334,6.579-.654,12.9-1,19.744h-10.136c-.179,3.479-.328,6.4-.49,9.542l-10.405.654v20.1h-10.69v20.513h-10.61v29.6l-10.935.56v20.035l-10.409.546v29.461l-10.685.521v29.785l-10.834.471V242.59l-10.482.524v39.9h-10.982v29.968l-10.471.621v39.684l-10.717.58V393.67l-10.84.523v30.06l-10.576.507V465.1H1208.08V505.39h-10.628v39.946l-10.584.594v39.833l-10.362.468V615.5h9.958v-9.421l10.9-.565V585.876h10.547c.173-3.6.321-6.65.472-9.789l10.364-.508V545.751l11.078-.58V524.894H1240.1v-9.6h21.2v9.749l-10.553.463v29.756l-10.894.535v20.23h-10.472v19.538l-10.834.552v20.407h-10.637v9.51l-10.3.566c-.164,3.3-.31,6.213-.487,9.751h-21.213V646.6h-10.776v20.065l-9.751.41v9.536h20.807v10.417h10.289c.188,3.586.349,6.638.538,10.232h11.14v9.167l20.5.912c.162,3.457.3,6.505.45,9.621l10.1.432c.188,3.228.357,6.135.569,9.765h21.273v10.491h21.409v9.333h64V727.212h10.473v-80.49h21.155V737.18l-10.5.546V757.2l-10.667.485v9.972l-10.392.454c-.155,3.3-.292,6.2-.448,9.5h-63.88V767.454h-21.418v-9.382H1208.8c-.366,6.835-.7,13.026-1.043,19.458l-10.248.5V808.2h-10.821v40.038l-10.567.589V918.86l-10.857.705v90.7h-10.493v100.715l-10.681.475v60.06l-10.582.459v50.086l-10.791.518v40.3h-10.876v30.26h-10.715v19.575l-10.551.613v19.623l-10.549.484c-.2,3.627-.374,6.816-.565,10.308h-9.642c-.163,3.219-.311,6.12-.477,9.378l-10.945.549v9.467h-32.273v-9.637h-20.778c-.211-3.741-.384-6.793-.56-9.9l-10.706-.445v-29.683l-10.1-.622v-70.28h21.27v50.219h10.659v30.482h10.527v9.6h31.388c.21-3.558.4-6.739.594-10.027l10.59-.61v-29.628h11.115v-30.285h10.661v-39.95l10.5-.553v-60.671h10.6v-80.624h10.584V989.941l10.677-.612V909.3l11.1-.577V858.356h10.395V818.409l10.882-.457V788.147l10.726-.593V767.6H1187V747.7l10.118-.466c.181-3.454.342-6.512.509-9.717l9.806-.473V727.29h-20.894V717.206l-10.53-.44v-9.6h-21.131c-.209-3.79-.377-6.83-.569-10.3h-9.932c-.174-3.347-.324-6.248-.516-9.925h-21.384V677.22h-74.833v9.368l-9.946.426v9.839l10.374.438v39.8l10.2.475v60.242l-10.282.657V918.9l-10.942.578v60.661h-10.616V1030.1l-10.613.563v39.923l-10.68.543v39.806l-10.616.51v40.025H983.535V1181.6l-10.755.488v20.069l-10.435.562V1232.1l-10.675.548v19.5l-10.666.493v29.815l-10.515.457c-.227,3.557-.42,6.6-.644,10.106H919.533V1312.7l-10.785.612v19.96h-10.4c-.188,3.546-.35,6.6-.526,9.9l-10.065.5c-.184,3.429-.346,6.466-.541,10.092H866.243c-.185,3.492-.338,6.381-.49,9.26H833.81v-9.448H823.045V1343.6l-10.591-.489v-19.644l-10.8-.567v-39.8l-10.461-.594v-90.14H780.623v49.714l-10.945.535v29.837l-10.567.547v19.839H748.573v20l-10.859.558v9.859l-9.939.542c-.176,3.264-.34,6.3-.512,9.5l-10.554.589v9.465l-10.748.472c-.161,3.244-.305,6.148-.46,9.256H641.459v-9.464l-10.658-.53c-.186-3.471-.349-6.517-.537-10.034H620.116v-9.737l-10.847-.487v-9.4h-9.755c-.334,6.771-.646,13.11-.984,19.982H588.454c-.17,3.619-.314,6.682-.461,9.807l-10.626.464v9.507H513.6c-.164-3.5-.3-6.419-.449-9.587l-10.609-.507c-.184-3.461-.345-6.509-.532-10.026H491.876v-9.756l-10.924-.505v-29.754l-10.7-.446v-39.951H460.063v30.121H449.056v20.046l-10.721.443v9.44l-9.79.563c-.364,6.805-.71,13.267-1.074,20.059H417.378c-.176,3.406-.335,6.46-.507,9.783l-10.391.49v9.46l-10.843.669v9.682c-4.545,0-8.659-.216-12.735.07a80.625,80.625,0,0,0-9.129,1.646H353.888l-11.29-2.693c-.169-2.6-.367-5.646-.573-8.829l-10.017-.455c-.167-3.336-.32-6.391-.475-9.51l-10.617-.488v-19.824l-10.882-.473V1273.2h-10.52v29.589l-10.844.5v19.519l-10.492.471v19.926l-10.82.461v9.506H235.721c-.18-3.372-.343-6.426-.51-9.553l-10.327-.463V1222.344l10.522-.475v-50.431h10.537v-130.9l-10.207-.466c-.321-6.623-.626-12.938-.946-19.563H203.5v40.322H192.753v50.015l-10.972.591v30.24H171.32v40.272H160.4V1212.3h-10.6v29.763l-10.671.473v20.254h-10.83v20.033H117.7v20.3H107.139v19.733l-10.692.465v9.931H85.916c-.183,3.5-.342,6.552-.513,9.831l-9.991.575c-.191,3.46-.359,6.5-.517,9.381H32.265v-9.515H21.619c-.184-3.6-.349-6.81-.536-10.448H10.794v-19.633L0,1312.879V1192.137l10.756-.553c.174-3.328.334-6.372.492-9.4H31.97v39.733l-9.837.5v90.5l9.9.531c.215,3.325.41,6.355.629,9.742H42.835c.2,3.412.373,6.455.55,9.524h9.953c.216-3.291.416-6.314.649-9.842H64.549v-9.52l10.354-.544c.2-3.417.371-6.448.569-9.875H85.8v-20.025l10.77-.5v-19.6l10.735-.493V1232.53l10.864-.587v-30.3h10.524v-29.807l10.528-.569v-40.072h10.641v-40.5h10.8v-40.556h10.712v-50.082l10.832-.467V959.646l10.516-.482V918.808h10.7V878.5H214.3V848.147h10.388v-29.63l10.573-.525V788.073l10.23-.5c.369-6.717.724-13.184,1.106-20.156h10.258V747.231l10.264-.471V717.279l-10.067-.543c-.168-3.42-.317-6.45-.489-9.917H235.23v-9.4H192.987c-.163,3.358-.3,6.268-.472,9.759H171.387c-.172,3.614-.316,6.64-.479,10.073H160.561v10.106H149.83V737.2l-10.813.465v9.465l-10.7.621v20.037H118.088c-.208,3.587-.384,6.646-.566,9.77l-10.375.477v19.541l-10.591.553v29.928l-10.962.585V858.8H75.165v50.208l-10.188.5V1019.93l10.258.48v20H85.52c.185,3.643.342,6.71.495,9.711H96.663v-10.045h20.431c.4-6.888.759-13.2,1.153-20.07h10.409v-19.89l10.693-.629v-30.1h10.689V929.045h10.579v-70.7h10.526V818.592h21.178v30.041H182.189v80.779H171.236v40.55H160.613v29.626l-10.521.478v29.992l-10.7.474c-.171,3.309-.328,6.346-.51,9.894h-9.678c-.331,6.9-.638,13.269-.98,20.379h-21.09v9.512H64.686c-.169-3.323-.324-6.38-.5-9.922H53.459V1040.65l-10.321-.657V878.905l10.653-.628V838.5l10.856-.518V807.816h10.7V788.132l10.54-.6V767.544H96.521V747.8l10.922-.687v-9.442l10.327-.435c.179-3.6.338-6.793.524-10.507h10.184V716.683H138.66c.179-3.4.339-6.458.515-9.806l10.113-.462c.208-3.246.391-6.135.6-9.425h10.573c.191-3.462.359-6.521.573-10.386h20.749c.184-3.7.328-6.584.486-9.764H256.5c.182,3.406.345,6.465.537,10.063h10.541c.213,3.45.393,6.352.582,9.4l10.459.615v9.473h10.273V525.383l10.53-.471V373.95l10.805-.509V252.468h10.244V182.223h-10V222.24h-11.13v30.734H288.855v40.189H278.192v40.508H267.285v39.96l-10.672.443V404.28H246.268v39.927l-10.977.563v30.24l-10.42.45v39.417l-10.953.506v29.832l-10.577.6v19.772H192.879v29.99l-11.148.67v20.088H171.115V636.09l-10.247.428c-.216,3.585-.4,6.622-.6,9.991H150.159c-.172,3.548-.327,6.753-.49,10.122l-9.816.419c-.186,3.378-.355,6.436-.536,9.735l-10.567.515v9.46H117.9v9.678h-42.8V677.1H64.331c-.2-3.656-.369-6.7-.562-10.2H53.562V656.531H43.155V535.651l10.71-.627V515.431l10.749-.574v-9.39L74.9,504.86c.2-3.447.373-6.482.55-9.551H96.261c.167,3.32.321,6.357.483,9.567L107,505.52v39.644H85.974c-.188-3.326-.359-6.366-.531-9.416H75.4c-.154,3.305-.291,6.23-.444,9.506l-10.153.493V646.683H75.4v10.151H85.625c.172,3.357.314,6.138.465,9.068H106.5c.191-3.246.361-6.131.552-9.369h10.836v-10.1h10.35c.179-3.567.331-6.623.5-9.911l10.547-.5V626.7l10.658-.689V605.966h10.876V586.238l10.412-.553V555.729l10.861-.512V535.709l10.555-.521V505.465l10.668-.634V464.978l10.852-.679V434.113h10.575V394.025l10.676-.446v-39.9l10.842-.477V313.312l10.651-.5V282.649h10.556V242.222h10.722V212.353l10.657-.611V171.6h10.767V141.7l10.66-.632V111.235l10.668-.493v-30.1h10.746V50.369h10.527V20.3h10.511c.173-3.631.317-6.671.465-9.76h10.286V151.424l-10.335.517V293.224H342.858V413.779H353v-39.83l10.649-.5V333.5l10.616-.466V293.118l10.759-.467V252.784l10.642-.455v-30.26l10.785-.539V182.118l11.064-.555v-20.1H427.9V131.307h10.728V111.445l10.584-.605V91.3l10.063-.471c.335-6.853.652-13.329,1-20.368h10.549V60.454L481.22,60V40.264h10.971V30.475l10.632-.44V20.551l21.069-1v-9.41h10.961ZM566.7,91.17h10.6c.191-3.706.349-6.754.519-10.07l9.714-.436c.332-6.732.651-13.2.973-19.748l10.368-.5V50.854l10.244-.49V30.1h-9.953c-.211-3.425-.4-6.468-.575-9.345H545.645c-.2,3.434-.376,6.318-.571,9.606H534.765V40.685H514.086c-.229,3.794-.414,6.844-.6,9.968l-10.763.515V70.787H492.181c-.169,3.567-.314,6.624-.465,9.8l-10.3.446V100.68l-10.178.583c-.356,6.684-.7,13.152-1.072,20.1H459.9v29.9l-10.776.512V171.8H438.549v30.422H427.882V232.2l-10.625.6v39.67l-10.77.55v39.864l-10.99.48v30.46H385.105v40.316h-10.57v40.1l-10.58.515v49.709l-11.145.532v39.887l-10.528.552v39.928l-10.572.576V606.1H320.866v40.183l-10.544.457v50.086l-10.543.44c-.2,3.48-.367,6.507-.562,9.962h-9.994v9.71l9.923.461c.37,6.7.725,13.16,1.109,20.123h10.333v30.243h10.037v141.25l-10.316.541v39.7l-10.924.531v19.963H289.137c-.223,3.588-.413,6.654-.607,9.782l-10.3.519v10.312h-10.1c-.207,3.287-.389,6.18-.609,9.672H256.929v29.955l10.789.5v29.734l10.195.521v120.972l-10.363.5v50.426H257.115v90.19H267.42v-30.089h10.924v-29.925l10.751-.485V1232.47l10.4-.584v-39.837l10.767-.77V1090.956l10.557-.51v-70l10.914-.544V969.539h10.64V929.49l10.8-.576v-29.76l10.415-.464V869.08l10.875-.671V838.583l10.659-.5v-30.29h10.931V788.21l10.372-.529V767.911l10.033-.47c.394-6.751.77-13.212,1.147-19.679l10.076-.418V727.128h11.018V716.572h9.71v-9.261H438.389V697.067H427.362v-9.6l-10.235-.609v-9.911l-11.026-.551V626.685l-9.992-.419V515.129l10.211-.441V424.44l10.666-.633v-49.88l10.734-.566v-49.93l10.9-.485V292.81l10.337-.659v-39.29l11.061-.512V222.564l10.713-.62V202.279l10.463-.437V172.03l11-.479V151.642l10.766-.444V131.3h10.428v-20l10.772-.485V91.228l10.422-.452c.174-3.424.329-6.471.509-10.01h10.619v-10.5h9.943c.2-3.357.37-6.26.547-9.245h10.651c0,10.31,0,20.3-.006,30.278H556.218c-.175,3.228-.341,6.261-.514,9.434l-10.167.6v19.956H534.6v19.976l-10.733.568v19.91H513.2v19.785l-10.385.566V212l-10.9.483v30.068H481.157v29.958l-10.461.554v39.8l-10.582.578v49.975l-10.981.462v60.255l-10.535.557V535.636h-9.947v80.29l9.863.415v50.052l10.963.618v19.277h20.878c.191-3.226.364-6.129.55-9.269l10.467-.541v-9.451l10.682-.494V656.395l9.883-.571c.389-6.517.759-12.708,1.146-19.205l10.278-.538V616.039h10.681V596.233l10.555-.543V565.619h11.119V545.4h10.321V515.2l10.707-.477V484.813l10.672-.59V444.235H588.3v-40.51h10.55v-40.2H609.5V312.749h10.431v-20H567.052c-.187-3.584-.347-6.632-.523-9.995h-10.37v-9.8l-10.707-.522v-130.8l10.6-.6V111.315l10.642-.5ZM342.689,1101.038v211.757l10.322.5v20.085h10.827v9.445h21.048c.186-3.529.338-6.426.517-9.813h10.579V1323.4l10.617-.5v-10.4h9.8c.425-6.816.819-13.119,1.232-19.739h10.114v-20.33l10.691-.508v-29.48L449.09,1242v-29.784l10.768-.484v-40.342h10.895v-40.261h10.5v-50.771h10.8v-70.525h10.162V757.743l-10.388-.5V737.715l-10.261-.534v-9.814l9.641-.476c.243-3.4.461-6.437.671-9.37h10.461c.218,3.376.413,6.407.634,9.832h9.986c.17,3.464.321,6.518.482,9.82l10.588.468V767.7h10.976V939.021H545.3V878.545h10.528V838.1h10.868V807.93h10.714V778.044l11.074-.5V757.356h9.9V727.415l-9.806-.445c-.384-6.814-.749-13.275-1.114-19.765l-9.662-.454c-.163-3.314-.312-6.353-.467-9.508l-10.347-.465c-.169-3.452-.319-6.5-.492-10.041H555.929V676.91H513.542c-.169,3.325-.324,6.384-.507,9.991H491.713v9.838l-10.591.488v9.827H470.7c-.181,3.785-.333,6.978-.495,10.377l-9.682.412c-.317,6.723-.609,12.914-.91,19.278l-10.519.521V757.6H438.308v20.438H427.576v19.689l-10.436.5v29.808l-10.9.6V858.88H395.451v30.135H384.936v40.3H374.431v40.448H363.78v60.32l-10.728.57v70.384Zm234.7-565.723v19.852l-10.493.544v29.931l-10.91.559v19.932h-10.7v19.757l-10.258.619v20.105h10.739v9.772H577.7v10.037l10.855.626v19.628l9.954.415c.178,3.525.332,6.582.49,9.7l10.934.5v29.347H619.6c.205-3.349.392-6.392.612-9.967h10.1c.17-3.628.314-6.69.462-9.844l10.7-.512v-9.811l9.86-.485c.2-3.23.381-6.13.589-9.482h10.385c.275-3.468.513-6.479.786-9.932h10.421c.23-3.511.429-6.548.63-9.637l10.164-.479V646.63l10.792-.451V616.37l10.494-.464V565.8l10.86-.514V474.449H726.9V373.987l10.9-.605v-80.2l10.6-.471V242.6l10.756-.495V201.764h10.708V171.6l10.593-.571V141.7l11.083-.482V120.947H802.21v-9.539l10.02-.488v-9.6l-10.3-.482V91.209L791.574,90.7c-.184-3.509-.345-6.555-.524-9.978H770.055c-.174-3.451-.33-6.511-.5-9.867l-10.462-.5v-9.7H738.062c-.167-3.53-.3-6.433-.471-9.98h-42.43c-.184-3.542-.334-6.439-.495-9.551h-9.75c-.268,3.292-.513,6.305-.794,9.75H652.8V80.491l9.922.5V222.2l-10.273.549V293.2H641.713v60.1l-10.875.51v39.873l-10.561.742v39.655l-10.737.656v39.74L598.562,475v29.929l-10.389.431v29.951Zm544.935,120.63c.152-3.275.287-6.18.434-9.356l9.746-.492v-9.043l-20.308-1.1c-.17-3.217-.33-6.268-.5-9.476l-10.628-.616c-.166-3.367-.309-6.263-.475-9.628h-10.1v-10l-10.385-.466-.491-9.623-10.694-.531v-19.5h-21.222v19.575l-10.461.434c-.165,3.422-.312,6.466-.483,10.006h-9.621c-.394,6.869-.758,13.224-1.137,19.824l-10.229.535v20.169h-10.883v9.982l-9.935.412c-.307,6.587-.6,12.929-.907,19.422l-10.279.477c-.182,3.409-.345,6.45-.539,10.044H972.768v9.827l-10.649.475v9.448l-10.72.523v20.233H940.978c-.18,3.511-.337,6.545-.512,9.959H930.412v19.669l-10.76.629v29.87l-11,.594v19.954H898.173v29.909l-10.8.482v30.272H876.8v30.02l-10.561.5v40.278H855.4v50.21l-10.7.468v70.55H834.044V1171.5l-9.921.514v100.226l10.027.591v49.985l10.365.488c.178,3.342.341,6.4.508,9.547h31.185c.178-3.4.338-6.46.514-9.81l10.039-.451c.369-6.714.716-13.03,1.083-19.73h10.4v-19.946l10.761-.525v-19.561l10.809-.493v-20.156h10.666v-20.088h10.373V1192l10.756-.595v-29.821l10.657-.471v-39.83l10.9-.472v-30.215h10.459v-50.1l10.837-.522V999.988l10.129-.489V939.28H962.539c-.178-3.668-.327-6.725-.5-10.248H951.27V909.263l-10.661-.576v-29.7l-10.024-.446V818.32l10.177-.531V767.549h10.705V737.64l10.994-.467v-19.9l10.753-.453v-9.409l10.234-.49c.193-3.734.357-6.92.524-10.135l9.845-.441c.166-3.3.32-6.343.482-9.564l10.092-.482c.157-3.3.3-6.365.473-9.927h10.194c.193-3.415.357-6.318.546-9.665h10.484c.166-3.5.31-6.559.48-10.188h21.014c.176-3.64.324-6.691.476-9.84H1111.7c.167,3.144.321,6.056.492,9.264ZM673.989,697.022c-.186,3.653-.341,6.695-.516,10.131H663.283c-.17,3.456-.32,6.5-.479,9.712l-10.63.495v9.981H641.7c-.17,3.5-.318,6.548-.494,10.184h-9.829v50.01l10.526.518v50.282h9.932V990.34H641.482v39.842l-10.66.465V1050.6H620.271V1061H610.178c-.211,3.281-.4,6.193-.61,9.493h-42.5c-.2-3.522-.366-6.562-.558-9.987h-10.1c-.182-3.447-.345-6.509-.522-9.859l-10.77-.463v-49.844l-10.682-.583v-9.4H524.19v70.443H513.4v50.221l-10.585.526v50.03H492.246v120.822l10.756.5v29.862h9.974c.168,3.55.318,6.749.495,10.489h21.078c.179,3.614.329,6.665.48,9.714H555.8l.524-10.041H576.76c.363-6.9.7-13.215,1.038-19.715l10.637-.48V1282.6h10.55v-20.231h10.6v-29.854l10.956-.595v-30.264H631v-30.34h10.535v-40.206H652.2v-40.119l10.792-.524v-50.382h10.9v-40.026l10.4-.53V959.583l10.786-.483V918.718h10.7V878.51H716.39V848.42l10.666-.6V818.007l10.67-.616V788.082l10.727-.6v-19.86l10.721-.646V737.334H769.5V716.923H758.884V697.034H738.009c-.175-3.719-.32-6.771-.465-9.841h-42.8v9.829Zm459.478-333.553h9.972V292.834h-10.582V232.816l-10.526-.694V192.271l-10.451-.518V161.908l-10.924-.513V131.952l-10.469-.56V121.075h-11.022V101.4h-31.7v9.4l-11.034.637v9.921h-10.2v40.472h-10.2V373.533l10.493.44v60.42h10.551v39.989l10.552.441v29.921l10.453.513c.194,3.493.364,6.538.528,9.492h10.328V495.271l10.551-.46v-19.72l10.851-.7V454.445h9.956c.359-6.87.693-13.226,1.038-19.82l10.167-.571V403.931h10.854v-19.8l10.814-.608ZM705.976,1312.846l9.77-.423c.388-6.632.757-12.939,1.149-19.647H727.12v-19.687l10.749-.674V1242.4l10.635-.492v-49.829l10.123-.534V1060.4h-9.741c-.359-6.677-.7-12.977-1.062-19.725h-10c-.18-3.513-.336-6.562-.529-10.323H716.782c-.229-3.774-.414-6.824-.6-9.823H705.661v40.061H695.207v40.273l-10.856.472v40.344h-10.74v30.251H662.918v30.275l-10.442.451v29.223l-10.777.633v29.849l-10.378.515v50.088l10.262.454v9.463l10.413.562c.175,3.35.327,6.245.485,9.278h42c.208-3.427.383-6.318.568-9.37l10.927-.478ZM598.547,1050.2c.173-3.272.333-6.327.51-9.681l10.644-.5v-9.392l10.408-.552V990.047l10.3-.6V848.324H620.1v-50H598.513v20H588.261v40.054l-10.847.5V898.9l-10.2.479v130.413l10.727.713v19.7ZM962.789,788.173V908.4l10.283.511c.174,3.536.324,6.585.483,9.833h20.9v-9.432l10.393-.465c.162-3.412.306-6.457.459-9.67l10.417-.491V858.679l10.294-.51V717.415h-21.06v9.912h-10.47c-.172,3.487-.322,6.532-.484,9.811l-9.686.456c-.362,6.719-.7,13.051-1.057,19.632l-10.136.423V787.66l-10.34.513M567.3,152.066V262.53l9.927.488c.168,3.3.323,6.333.479,9.4h31.924v-9.378l10.745-.524V232.029H630.5V71.619H620.427V80.86l-10.742.616v19.575H599c-.193,3.567-.358,6.6-.545,10.047H588.213v20.1l-10.931.484v20.386ZM1154.16,555.348v-161.1h-10.025v20.083h-10.71V433.99l-10.582.465v30.181h-11.085v20.284h-10.566v19.918l-10.725.567v19.881h-10.44c-.181,3.487-.341,6.534-.512,9.819l-9.476.517v20.107h9.791V565.7h10.838v20.057l10.332.492c.16,3.441.3,6.352.444,9.5l10.106.451c.185,3.559.343,6.6.526,10.112h10.7v9.2h10.647v-9.536h10.546v-50.63ZM267.466,949.827l10.641-.548v-40l10.3-.51V767.921H267.536v29.752l-10.631.564v39.809l-10.794.537v39.888l-10.649.578v39.977l-10.579.534v50.277H214.4v19.75h31.615c.2-3.415.374-6.449.571-9.862h10.3v-9.78l10.58-.593Zm513.039-10.694V899.195l10.15-.52V767.948H769.743v29.762l-10.732.448v30l-10.382.541v39.81l-10.813.74v49.64l-10.663.579v50.393H716.81v19.555h31.028c.229-3.6.422-6.649.624-9.846l10.04-.425c.353-6.585.692-12.9,1.041-19.419l10.469-.572V939.579l10.493-.446M1176.12,373.922v80.3h10.573V413.917h10.728V374.03l10.844-.487V343.652l10.607-.59V313.4l10.508-.5V272.534h11.05V242.174h10.588V212.505l10.908-.668V192.169l10.406-.487V161.538h10.613V141.892l10.4-.651V121.5h-10.277c-.178,3.282-.343,6.332-.52,9.6l-10.19.568v19.5l-10.978.538v20.366h-10.739v19.608l-10.812.521v20.2h-10.363v19.982h-10.857v19.977l-10.546.472v19.576l-10.659.483v29.962l-10.832.542v19.649l-10.593.447v19.767l-9.92.631v29.593l10.062.44m-844,90.1h9.854V424.715h-9.854Zm971.684-362.7h-9.573v9.356h9.573ZM330.885,152.067h-9.3v9.256h9.3Z" transform="translate(0 0.005)"/>
    </g>
  </g>
</svg>
