<svg xmlns="http://www.w3.org/2000/svg" xmlns:xlink="http://www.w3.org/1999/xlink" width="1547" height="723.589" viewBox="0 0 1547 723.589">
  <defs>
    <clipPath id="clip-path">
      <rect id="Rectangle_378807" data-name="Rectangle 378807" width="1547" height="723.589"/>
    </clipPath>
  </defs>
  <g id="Group_6425" data-name="Group 6425" transform="translate(0 0.004)">
    <g id="Group_6424" data-name="Group 6424" transform="translate(0 -0.004)" clip-path="url(#clip-path)">
      <path id="Path_3436" data-name="Path 3436" d="M508.716,67.671h13.021V56.524h12.976V45.185h13.1V33.957h26.021V22.823h65.285V33.756h26.02V45.095h13.1V67.611h13.1V90.239h12.976v45.093h12.864V248.264H704.552v45.093h-13.1v22.628H678.472V338.5H665.5V349.84h-13.1v11.229H626.4v11.339h12.657v22.627h13.1v22.517h12.976v33.8h13.1v33.856h12.976V406.436h13.1V338.767h13.1v-45.2h12.976V248.47h12.976V214.554h13.1v-33.8h13.1V158.122h12.976V124.207h13.1V101.69h12.976V79.174h13.1V67.835h12.976V45.207h13.1V34.093h12.925V67.658H848.043V78.886H835.067v22.628h-13.1V124.03h-13.1v33.916H795.883v22.628h-13.1v33.8H769.8v33.8H756.7v45.2H743.723v56.492h-13.1v78.957H717.7V677.114h12.723v22.571h26.021V688.644h13.1V677.416h13.1V666.077h12.976V643.56H808.6V620.933h13.1v-33.8h13.1V564.5h12.976V530.585h13.1V485.493h12.976v-33.8h13.142V395.049H899.87V384.023H887.11v11.116H834.954V383.883H821.979V361.257H808.971V214.574h12.716v-56.38h13.1V135.567h12.975V101.653h13.1V79.137h13.1V67.8h12.974V56.571h12.975V45.232h13.1V34h13.1V22.737h65.155v11.08h13.1V56.333h12.975v33.8h12.952v112.93h-12.628v56.491h-13.1v56.38h-13.1v45.2H978.506v45.093H965.533v56.49h-13.1v45.091h-13.1v45.2H926.352v67.778H913.339v67.668h12.826v11.252h52.11V688.7H991.25V677.359h13.1V654.843h13.1V620.928h12.975v-45.2h13.1v-56.38h12.974V474.254h13.1V417.764h12.974v-45.2h13.1V327.47h13.1v-45.2h12.975V237.175h12.975V203.261h13.1V158.169h13.1v-45.2h12.975V79.052h13.1V56.536H1200V34.02h13.1V22.681h26.02V11.487h78.328V22.453H1343.6V33.792h12.975V45.02h12.975V56.358h13.1V67.585h13.1V78.924h12.975V90.263h13.1V101.49h12.975v11.228h13.1v11.339h26.02v11.195h26.148V124.286h13.1V90.371h12.975V34.044H1547V90.217h-7.548v33.8h-13.1v22.627h-12.975v11.188h-39.193V146.848h-26.02V135.621h-13.1V124.282h-12.975V112.943h-13.1V101.716h-13.1V90.377H1382.9V79.2h-26.02v33.593h-13.1v45.091h-13.1v56.491H1317.7v79.067h-13.1V372.4h-12.975v67.667h-13.1v67.779h-12.863V643.348H1278.3v33.8h13.1v11.339h26.02v11.339h26.05v22.39H1317.7V711.306h-26.149V699.967h-26.02V677.341h-13.1V654.825h-13.1V609.707h-12.974V643.3h-12.975v22.627h-13.1v11.228h-13.1v11.339H1174.19v11.339h-13.1v11.228h-26.02v11.132h-39.193V711.255h-26.02V699.917h-13.1V688.69h-13.1V654.86h-12.975v22.3H1017.7v22.626h-13.1v11.229h-13.1V722.44c-5.309,0-10.231-.126-15.143.026-10.907.336-21.813,1.2-32.711,1.114-10.024-.078-20.038-1.116-30.358-1.75V711.286h-13.1V688.66H887.332V587.017h12.7v-56.38h12.975v-56.38h13.1v-45.2h12.975v-56.49h13.1V327.473h13.1v-45.2h12.975v-56.38h12.974V158.112h13.031V90.445H991.5V56.53H978.524V45.343H952.469V90.2h12.654v78.956H952.39V282.084H939.417v67.778h-13.1v56.38h-13.1v45.2H900.237v45.093H887.262v33.914h-13.1v33.8h-13.1v22.626H848.08V620.8h-13.1v22.516H822v22.515H808.9v11.339H795.924v11.339h-13.1v22.516H756.672v11.261H717.607V711.29H704.632V688.665h-13.1v-33.8h-13.1V519.421H665.453v67.507h-13.1v33.8h-13.1v33.915H626.272v11.228H613.3V688.5h-13.1v11.228H574.046v11.263h-78.2V699.9h-13.1V688.67H469.767v-22.42h-13.1v10.933H443.689v11.339h-13.1v11.227h-13.1V711h-78.2V699.989H326.308v-11.2H313.2v22.125H274.179v-22.25h12.546V677.322h-12.7V666.095H261.047V654.867h-13.1V643.528H234.969V632.19h-13.1v-22.4H195.717v22.28H182.742v22.516H169.767v11.339h-13.1V677.15h-13.1v11.339H130.585v11.339h-13.1v11.228H91.462v11.133H52.269V711.257H26.248V699.919h-13.1V666H0V553.117H13.135V542.024h25.73v45.049H26.321v90.348H39.255v11.226h13.1v11.039H91.417V688.407h26.146V677.181h12.973V665.955h13.1V643.33h12.973V631.994h13.1V609.48h13.1V598.142h12.61V553.055H182.6v-45.2H169.5V462.768H156.4V383.707H143.718V169.2H156.64V124.113h13.1V101.489h12.974V90.151h13.1V79.229H235V90.437h12.973v22.514H260.95v22.624h13.1v33.8h13.1v45.2h12.969v56.486h13.1v44.79h13.1V282.07h12.972V259.556h12.972V225.645h13.1V203.131h13.1V180.507h12.972V146.595h13.1V124.081h13.1V101.456h12.973V90.23h12.973V67.606h13.1V56.38h13.1V45.043h12.974V33.705h13.1V22.479H508.83V11.253H521.8V0h13.045V22.518H521.916V45.006h-13.1V67.76H495.954V78.785h12.762Zm-65.14,56.55H430.3v22.651H417.33v22.512H404.359v22.623h-13.1v33.8h-13.1V248.43H365.192v33.91h-13.1v22.512H339v33.91H326.367V496.428h12.939V451.441h13.1v-45.2H365.37v-45.2h13.095V315.961h12.969V270.876h13.1v-45.2H417.5v-33.91h13.1v-33.8h12.877V124.131h12.864V101.825H443.576ZM417.3,270.845v45.311H404.328v45.2h-13.1v56.378h-13.1v45.2H365.152v56.378H352.179v45.2h-13.1V620.9H326.4v33.914h12.851v33.913H365.4v10.921h26.148V688.437h26.019V665.921h12.975V654.583h13.1V632.068h13.1V598.154h12.975V564.24h13.1v-33.8H495.8V485.346h13.1v-45.2h12.973V383.655h13.1V338.564h13.1v-45.2h12.974V248.272h12.974v-45.2h13.1v-33.8h13.1V146.641H613.2V112.727h13.1V101.808H638.91v33.784H626.038v33.8H613.064v45.2h-13.1V259.69h-13.1v56.49H574.232v44.784h26V349.828h26.02V338.6h13.1V327.262h12.974V315.924h13.1v-33.8h12.629V101.466H665.192V78.951H652.217V56.325h-13.1V45.347H573.833v11.19h-26.02V67.875h-13.1V79.1h-13.1V90.44H508.633v11.228H495.658v22.626h-13.1V146.81h-13.1v22.626H456.478v22.626h-13.1v33.8H430.4v44.98Zm848.1,45.123h13.093V259.485h13.1V203.111h13.1v-45.2h12.97V124h13.1V78.915h12.719V56.4h-13.005V45.066h-39.06V34.1h-39.19V45.216h-13.1V56.552h-12.973V67.889h-13.1V90.4h-12.972v33.8h-13.1v56.485H1174v45.2h-13.1v45.087h-13.1v45.2h-12.969v45.2h-13.1v45.087h-13.1v45.2h-12.97v45.087H1082.7v56.485h-12.834V688.61h13v11.095h52.105V688.446h26.145V677.22h13.1V654.6H1187.2V631.972h13.1v-33.8h12.97V553.085h13.1v-45.2h12.969V451.4h13.1V383.74H1265.4ZM169.839,157.963v248.47h12.823V474.2h13.095v45.086h13.1v22.38h12.971V519.122h13.1V496.609h13.1V462.7h12.971V440.076h13.1v-33.8h13.1V372.367h12.584v-33.8h-12.83V259.51H273.854V203.136h-13.1v-45.2h-12.97V135.316h-13.1V112.8h-13.1V101.768H208.616v11.281h-13.1v11.225H182.544v33.688ZM587.057,665.9h13.1V643.268h13.1v-33.8h12.974v-33.8h12.712V417.583H626.111V394.956h-13.1V384H560.772v33.773H547.8v45.2H534.7v45.091H521.721v33.8h-13.1v33.914H495.645V609.7h-13.1v22.515H469.915v22.626h12.866v22.516h12.975v10.991h78.326V677.232h12.975ZM835.149,203.11v146.9h12.837V372.27h39.19v-22.4h13.1V327.239h12.972V270.751h13.1V157.937h12.6V101.451H926.076V56.593H913.1V67.852H900V79.079H886.9V101.7H873.924V124.33h-13.1v33.8H847.851V203.11ZM299.788,632.181V429.2H286.845v33.7H273.754V485.52H260.791v33.9H247.7V541.93H234.735v22.507H222.027v22.618h12.828v22.618H247.95v11.222h13.095v22.618h12.967v10.959h13.095v-22.29Z" transform="translate(0 0.004)"/>
    </g>
  </g>
</svg>
