<?xml version="1.0" encoding="UTF-8"?><svg id="a" xmlns="http://www.w3.org/2000/svg" xmlns:xlink="http://www.w3.org/1999/xlink" viewBox="0 0 483 476"><defs><style>.c{fill:none;}.d{clip-path:url(#b);}</style><clipPath id="b"><polygon class="c" points="-75.54 934.26 -78.99 478.7 527.97 482.61 527.97 934.26 -75.54 934.26"/></clipPath></defs><path d="M124.11,475l-4.74-1.11-.19-2.93-3.49-.16-.16-3.3-3.72-.17v-6.87l-3.78-.16v-17.18h-1.92v10.22l-3.77,.17v6.77l-3.64,.16v6.91l-3.75,.16v3.33h-12.67l-.18-3.35-3.63-.16v-43.54l3.65-.17v-17.52h3.66v-43.69l-3.5-.16-.33-6.75h-9.17v13.98h-3.73v17.29l-3.81,.2v10.53h-3.63v13.96h-3.79v10.52h-3.68v10.28l-3.7,.16v7.06h-3.76v6.94h-3.68v7.04h-3.67v6.8l-3.71,.16v3.48h-3.7l-.17,3.36-3.47,.2-.18,3.3H11.63v-3.3h-3.65l-.19-3.62h-3.61v-6.85l-3.74-.2v-43.5l3.77-.19,.17-3.3H13.26v15.46l-3.41,.17v29.73l3.38,.18,.22,3.34h3.53l.19,3.3h1.83l.23-3.41h3.61v-3.26l3.64-.19,.2-3.47h3.54v-6.9l3.74-.17v-6.8l3.72-.17v-10.32l3.77-.2v-10.55h3.65v-10.29l3.65-.2v-13.94h3.69v-14.04h3.75v-14.06h3.72v-17.33l3.76-.16v-13.84l3.65-.17v-14.03h3.71v-13.97h3.77v-10.52h3.6v-10.23l3.67-.18v-10.37l3.59-.18,.39-7.03h3.51v-6.96l3.56-.16v-8.57l-3.45-.19-.17-3.4h-7.44v-3.26h-12.97l-.16,3.38h-7.33l-.16,3.31-.83,.19h-2.73v3.5h-3.72v3.38l-3.75,.16v3.27l-3.71,.22v6.99h-3.6l-.19,3.35-3.56,.16v6.77l-3.68,.19v10.37l-3.8,.2v10.5h-3.62v17.36l-3.54,.17v36.63l3.47,.16,.09,.83v6.07h3.53l.17,3.37h2.01v-3.48h7.14l.4-6.96h3.56v-6.85l3.71-.22v-10.49h3.71v-13.99h3.67v-24.51h3.65v-13.78h9.08v12.15h-3.52v28.01h-3.8v14.06h-3.69v10.23l-3.65,.17v10.4l-3.75,.17-.18,3.47h-3.36l-.34,7.07h-7.28v3.3H22.93l-.18-3.44h-3.76v-6.9l-3.58-.23v-57.47l3.7-.22v-13.8l3.77-.18v-10.5h3.71v-6.78l3.66-.21v-6.98h3.69v-6.79l3.79-.24v-3.29l3.63-.15,.18-3.68h3.49v-3.48h3.58l.18-3.36,3.52-.16,.21-3.3h3.66l.2-3.6h7.2l.17-3.39h27.4l.19,3.49h3.65l.21,3.31,3.68,.22v3.23h1.83v-62.71l3.65-.16v-52.33l3.75-.18v-41.98h3.56v-22.62h-1.74v13.87h-3.86v10.65h-3.64v13.93h-3.7v14.04h-3.79v13.82l-3.7,.15v10.51h-3.59v13.8l-3.81,.2v10.49l-3.62,.16v13.66l-3.8,.18v10.33l-3.67,.21v6.9h-3.63v10.35l-3.87,.23v7.01h-3.68v6.81l-3.6,.15-.21,3.5h-3.5l-.17,3.47-3.41,.15-.19,3.37-3.62,.18v3.32h-3.77v3.36H26.5v-3.24h-3.69l-.2-3.54h-3.59v-3.59h-3.61v-43.59l3.72-.22v-6.8l3.73-.2v-3.25l3.61-.21,.19-3.36h8.86l.17,3.37,3.6,.22v15.42h-8.98l-.18-3.26h-1.84l-.15,3.26-3.49,.17v33.3h3.68v3.52h3.51l.16,3.14h5.44l.19-3.25h3.71v-3.5h3.63l.17-3.4,3.62-.17v-3.22l3.7-.24v-7h3.77v-6.8l3.61-.19v-10.39l3.77-.18v-6.76l3.66-.18v-10.3l3.7-.22v-13.81l3.77-.24v-10.52h3.67v-13.86l3.7-.15v-13.83l3.76-.17v-13.83l3.7-.17v-10.5h3.66v-14.02h3.72v-10.31l3.7-.21v-13.96h3.74v-10.32l3.7-.22v-10.35l3.7-.17v-10.47h3.73v-10.5h3.65V7.04h3.69l.16-3.38h5.26V54.19l-3.59,.18v49.02h-3.57v40.06h1.79v-13.77l3.7-.17v-13.85l3.68-.16v-13.84l3.73-.16v-13.82l3.7-.16v-10.48l3.74-.19v-13.66l3.84-.19v-7.01h3.6v-10.45h3.72v-6.84l3.67-.21v-6.78l3.53-.16,.34-7.1h3.62v-3.43l3.61-.16v-6.88h3.81v-3.36l3.69-.15v-3.28l7.31-.35V3.52h3.8V0h27.61V3.62h3.74l.16,3.22,3.55,.17,.17,3.32h5.45l.17-3.15h27.48l.18,3.37h7.22l.19,3.45h7.2l.17,3.59h7.5v3.44l3.48,.15,.19,3.36h7.37v3.45l3.58,.16,.18,3.41h7.21l.2,3.54h7.43v3.45h7.27l.22,3.35h9.23l.23-3.46h3.6v-3.27l3.67-.18v-6.84l3.72-.2V7.17h8.95v26.16h-3.54v10.47h-3.67l-.18,3.35-3.59,.18v3.29l-7.38,.34v3.14h-9.25v-3.28h-10.91l-.17-3.56h-7.28l-.16-3.37h-9.42v3.37l-3.42,.15-.4,6.72-3.5,.15v10.45l-3.69,.18v17.26l-3.74,.22v24.57h-3.72v34.78l-3.69,.15v34.86l-3.65,.18v20.9h-3.71v13.91l-3.74,.16v10.31l-3.6,.18v5.2l3.47,.15,.19,3.36h10.91l.22,3.48,3.46,.15,.16,3.35,3.57,.15,.16,3.38,3.78,.16v6.8l3.74,.19v6.96h3.76v13.89h3.39v47.21l-3.56,.15v10.26l-3.66,.21v10.48h-3.72l-.18,3.35-3.43,.17-.21,3.61h-3.44l-.19,3.34-3.69,.19-.18,3.34h-3.42v1.82h3.43l.18,3.42,3.5,.19,.37,6.87h3.52v6.9l3.79,.19v27.71h1.86v-31.25l3.71-.15v-20.86l3.77-.18v-13.87l3.64-.17v-13.82l3.74-.17v-13.97h3.71v-10.48h3.78v-7.16h3.61v-10.23l3.86-.18v-6.91h3.51v-10.49h3.83v-3.52l3.47-.19,.37-6.66,3.29-.19v-1.73h-10.96v-3.54h-3.65l-.17-3.54h-3.58v-3.4l-3.73-.15v-10.3l-3.52-.19v-33.03l3.65-.17v-6.77h12.67v15.66h-3.63v6.78l-3.4,.18v15.59l3.47,.21v6.96l3.69,.18v3.33h7.49v3.36h5.54l.24-3.46h7.12l.17-3.43,3.51-.15,.34-6.92h3.62v-3.27l3.65-.19v-6.81l3.68-.16,.17-3.36,3.36-.15,.41-6.98h3.44v-7.03h3.82v-6.89l3.4-.19v-1.62l-3.45-.15v-6.86l-3.78-.16v-10.34l-3.74-.16v-13.94h-3.71v-17.37l-3.7-.18v-31.29l-3.54-.19v-33.05l3.63-.24v-24.28l3.79-.18v-10.37l3.72-.15v-6.93h3.55l.22-3.63h7.23l.17-3.31h8.9l.21,3.42h7.23l.17,3.5,3.72,.18v6.8l3.45,.18,.38,6.97h3.55v6.84l3.78,.18v13.86h3.7v13.95l3.72,.16v20.85h5.54v-6.9l3.74-.19v-10.38h3.71v-6.81l3.74-.18v-7.02h3.73v-6.77l3.79-.26v-7.01h3.68v-6.78l3.67-.18v-3.46l3.46-.2,.37-6.66,3.57-.21v-6.94h3.63l.24-3.55h3.48l.18-3.46,3.39-.15,.34-6.88h3.53l.17-3.36,3.5-.15,.18-3.53h7.11l.19-3.27,3.72-.17,.19-3.49h3.39V0h7.6V8.95l-2.08-.11v3.42l-3.47,.19-.35,6.89h-3.52l-.17,3.26-3.57,.22v7.02h-3.71v7.11h-3.68v10.22l-3.79,.19v6.94l-3.61,.19v10.22l-3.71,.18v10.33l-3.76,.16v10.41l-3.64,.18v13.87h-3.81v10.34l-3.63,.22v13.76l-3.72,.2v13.81l-3.76,.18v10.42l-3.67,.18v14.02h-3.74v13.97h-3.69v13.8l-3.67,.21v13.82l-3.6,.16v8.46h1.72v-3.22l3.78-.2v-6.85h3.7l.16-3.35,3.56-.17v-10.34l3.84-.2v-7.07h3.57v-3.33h9.09v5.07l-3.66,.16v10.31l-3.78,.19v7.05h-3.63v6.73l-3.76,.19v7.12h-3.69v3.25l-3.61,.2-.17,3.42h-7.32v3.55h-3.74v6.92l-3.38,.14v1.61h7.22v3.61h3.53l.19,3.55h3.91v3.22l7.07,.31,.16,3.33,3.49,.15,.2,3.35h7.43v3.64h7.43v3.24h20.48v-6.85h3.63v-27.9h9.07v33.05l-3.65,.19v6.76l-3.7,.17v3.46l-3.64,.16-.16,3.33h-23.86v-3.52h-7.43v-3.25h-12.88l-.36,6.71-3.51,.17v10.5h-3.76v13.83l-3.67,.2v24.27l-3.77,.24v31.5h-3.64v34.88l-3.71,.17v20.82l-3.67,.16v17.36l-3.74,.18v14.01h-3.77v10.49h-3.72v6.74l-3.66,.21v6.81l-3.7,.17-.2,3.61h-3.35l-.16,3.21-3.76,.19v3.32h-12.93v-3.34h-7.16l-.2-3.47-3.76-.16v-10.31l-3.5-.21v-26.05h9.11v17.41h3.7v10.57h3.65v3.33h9.21l.2-3.43,3.63-.21v-10.32h3.86v-10.5h3.7v-13.81l3.64-.19v-21.08h3.68v-27.95h3.67v-31.36l3.7-.21v-27.75l3.85-.2v-17.51h3.61v-13.81l3.78-.16v-10.32l3.72-.21v-6.96h3.73v-6.86l3.56-.16,.18-3.37,3.36-.16v-1.69h-7.25v-3.53l-3.65-.15v-3.29h-7.29l-.2-3.57h-3.45l-.18-3.44h-7.46v-3.37h-24.24v3.21l-3.45,.15v1.75l3.6,.15v13.8l3.54,.16v22.52l-3.57,.23v41.76l-3.8,.2v21.07h-3.68v17.28l-3.68,.2v13.84l-3.71,.19v13.8l-3.68,.18v13.92h-3.81v10.41l-3.73,.17v6.95l-3.62,.19v10.19l-3.7,.19v6.77l-3.7,.17v10.34l-3.7,.16-.22,3.54h-3.53v6.77l-3.74,.21v6.97h-3.65l-.18,3.39-3.49,.17-.19,3.54h-7.28l-.17,3.21h-12.77v-3.28h-3.74v-3.5l-3.67-.17v-6.82l-3.75-.2v-13.8l-3.63-.21v-31.2h-1.94v17.19l-3.8,.19v10.34l-3.67,.19v6.92h-3.66v6.89l-3.77,.19v3.42l-3.49,.19-.18,3.29-3.62,.2v3.29l-3.77,.16-.16,3.24h-23.91v-3.32l-3.66-.18-.18-3.44h-3.57v-3.41l-3.76-.17v-3.22h-1.7l-.34,6.93h-3.5l-.16,3.36-3.65,.16v3.33h-23.82l-.16-3.36-3.68-.18-.18-3.44h-3.56v-3.42l-3.79-.18v-10.31l-3.72-.15v-13.81h-1.8v10.44h-3.82v6.91l-3.72,.15v3.26l-3.44,.2-.37,7h-3.5l-.17,3.35-3.56,.17v3.27l-3.76,.23v3.41h-2.29c-1.01-.03-1.97-.04-2.94,.02-.67,.05-1.35,.2-2.07,.35-.33,.07-.67,.14-1,.21h-7.06Zm-3.1-2.48l3.3,.79,6.7-.02c.16-.04,.47-.11,.79-.18,.75-.16,1.52-.33,2.32-.39,1.01-.07,2.02-.06,3.08-.04h.53v-3.29l3.76-.23v-3.29l3.65-.17,.18-3.43h3.51l.37-6.91,3.35-.19v-3.29l3.72-.15v-6.98h3.82v-10.44h5.27v13.89l3.72,.15v10.32l3.79,.18v3.34h3.47l.18,3.51,3.69,.18,.15,3.29h20.44v-3.26l3.73-.16,.16-3.44h3.5l.34-6.93h5.08v3.3l3.76,.17v3.34h3.48l.19,3.52,3.74,.19v3.24h20.53l.16-3.17,3.69-.16v-3.27l3.7-.21,.18-3.3,3.41-.19v-3.42l3.77-.19v-6.98h3.66v-6.83l3.67-.19v-10.35l3.8-.19v-17.28h5.4v31.3l3.63,.21v13.79l3.75,.2v6.81l3.67,.17v3.42h3.74v3.28h9.4l.17-3.21h7.28l.19-3.46,3.49-.17,.18-3.47h3.56v-6.87l3.74-.21v-6.87h3.63l.22-3.47,3.6-.16v-10.33l3.7-.17v-6.76l3.7-.19v-10.18l3.62-.2v-6.96l3.73-.17v-10.48h3.81v-13.84l3.68-.18v-13.8l3.71-.19v-13.84l3.68-.2v-17.37h3.68v-20.99l3.8-.2v-41.74l3.57-.23v-19.25l-3.54-.16v-13.8l-3.6-.15v-5.07l3.45-.15v-3.28h27.7v3.37h7.37l.18,3.44h3.44l.2,3.57h7.38v3.36l3.65,.15v3.46h7.25v5.07l-3.44,.17-.18,3.37-3.47,.16v6.94h-3.73v6.87l-3.72,.21v10.34l-3.78,.16v13.89h-3.61v17.42l-3.85,.2v27.74l-3.7,.21v31.45h-3.67v27.95h-3.68v20.99l-3.64,.19v13.89h-3.7v10.5h-3.86v10.22l-3.72,.21-.21,3.52h-12.57v-3.33h-3.65v-10.57h-3.7v-17.41h-5.65v22.69l3.5,.22v10.27l3.67,.15,.19,3.4h7.26v3.34h9.47v-3.24l3.84-.19,.17-3.29h3.35l.19-3.54,3.62-.17v-6.79l3.66-.21v-6.84h3.72v-10.49h3.77v-13.93l3.74-.18v-17.37l3.67-.16v-20.82l3.71-.17v-34.95h3.64v-31.39l3.77-.25v-24.29l3.67-.2v-13.93h3.76v-10.42l3.6-.18,.36-6.78h16.25v3.25h7.43v3.52h20.48l.15-3.26,3.57-.16v-3.46l3.7-.17v-6.75l3.65-.19v-29.67h-5.61v27.9h-3.63v6.85h-23.94v-3.24h-7.43v-3.64h-7.33l-.2-3.42-3.51-.15-.16-3.34-7.15-.32v-3.14h-3.82l-.19-3.55h-3.62v-3.61h-7.22v-5l3.38-.14v-6.99h3.74v-3.55h7.4l.16-3.34,3.54-.19v-3.34h3.69v-7.03l3.76-.19v-6.82h3.63v-6.97l3.78-.19v-10.32l3.66-.16v-1.69h-5.62v3.33h-3.57v6.99l-3.84,.2v10.34l-3.63,.18-.17,3.43h-3.62v6.77l-3.78,.2v3.31h-5.19v-11.84l3.6-.16v-13.8l3.67-.21v-13.9h3.69v-13.97h3.74v-13.94l3.67-.18v-10.42l3.76-.18v-13.8l3.72-.2v-13.75l3.63-.22v-10.44h3.81v-13.79l3.64-.18v-10.42l3.76-.16v-10.32l3.71-.18v-10.21l3.61-.19v-6.95l3.79-.19v-10.31h3.68v-7.11h3.71v-6.92l3.65-.27,.17-3.31h3.51l.34-6.8,3.39-.19v-3.61l2.08,.11V1.73h-4.13v3.52h-3.48l-.18,3.42-3.72,.17-.19,3.34h-7.1l-.18,3.46-3.5,.15-.17,3.43h-3.53l-.34,6.81-3.39,.15-.18,3.53h-3.5l-.24,3.55h-3.52v6.85l-3.66,.21-.37,6.66-3.38,.19v3.47l-3.67,.18v6.87h-3.68v6.89l-3.79,.26v6.89h-3.73v6.94l-3.74,.18v6.89h-3.71v10.29l-3.74,.19v6.98h-9.01v-20.92l-3.72-.16v-13.87h-3.7v-13.94l-3.78-.18v-6.76h-3.46l-.39-7.05-3.54-.18v-6.8l-3.64-.18-.17-3.42h-7.22l-.21-3.42h-5.62l-.17,3.31h-7.24l-.22,3.63h-3.45v6.86l-3.72,.15v10.36l-3.79,.18v24.25l-3.63,.24v29.79l3.54,.19v31.29l3.7,.18v17.29h3.71v14.01l3.74,.16v10.33l3.78,.16v6.86l3.45,.15v4.91l-3.4,.19v6.99h-3.82v7.03h-3.54l-.4,6.91-3.34,.15-.18,3.37-3.59,.16v6.8l-3.65,.19v3.36h-3.7l-.34,6.85-3.51,.15-.17,3.5h-7.15l-.24,3.46h-8.89v-3.36h-7.49v-3.41l-3.69-.18v-6.98l-3.47-.21v-18.86l3.4-.18v-6.87h3.63v-12.19h-9.21v6.69l-3.65,.17v29.74l3.52,.19v10.28l3.73,.15v3.33h3.5l.17,3.54h3.73v3.54h10.96v5.1l-3.38,.19-.37,6.66-3.38,.19v3.62h-3.83v10.49h-3.51v6.83l-3.86,.18v10.31h-3.61v7.16h-3.78v10.48h-3.71v13.89l-3.74,.17v13.82l-3.64,.17v13.87l-3.77,.18v20.87l-3.71,.15v31.32h-5.32v-27.79l-3.79-.19v-6.82h-3.43l-.38-6.96-3.5-.19-.17-3.33h-3.52v-5.28h3.51l.18-3.26,3.7-.19,.19-3.42h3.44l.2-3.53,3.42-.17,.18-3.43h3.63v-10.38l3.66-.21v-10.28l3.56-.15v-43.82h-3.39v-13.89h-3.76v-7.05l-3.74-.19v-6.78l-3.7-.16-.16-3.38-3.57-.15-.16-3.35-3.44-.14-.21-3.42h-10.92l-.2-3.43-3.57-.15v-8.51l3.6-.18v-10.32l3.74-.16v-13.99h3.71v-20.81l3.65-.18v-34.87l3.69-.15v-34.85h3.72v-24.47l3.74-.22v-17.28l3.69-.18v-10.46l3.6-.15,.4-6.72,3.32-.15v-3.45h12.81l.16,3.37h7.28l.17,3.56h10.99v3.28h5.79v-3.06l7.38-.34v-3.29l3.67-.18,.19-3.43h3.58v-10.47h3.54V8.9h-5.49V29.59l-3.72,.2v6.85l-3.67,.18v3.36h-3.7l-.23,3.46h-12.48l-.22-3.35h-7.37v-3.45h-7.33l-.2-3.54h-7.21l-.19-3.48-3.66-.16v-3.37h-7.28l-.2-3.43-3.57-.16v-3.37h-7.42l-.17-3.59h-7.18l-.19-3.45h-7.23l-.17-3.37h-24.2l-.18,3.15h-8.74l-.17-3.4-3.56-.17-.15-3.14h-3.83V1.73h-24.15v3.52h-3.8v3.22l-7.31,.35v3.29l-3.69,.15v3.43h-3.81v6.81l-3.61,.16v3.51h-3.7l-.34,7.02-3.45,.16v6.76l-3.67,.21v6.93h-3.72v10.45h-3.6v6.93l-3.84,.19v13.66l-3.74,.19v10.5l-3.7,.16v13.82l-3.73,.16v13.84l-3.68,.16v13.85l-3.7,.17v13.85h-5.25v-43.53h3.57V52.72l3.59-.18V5.39h-1.88l-.16,3.38h-3.61v10.43h-3.65v10.5h-3.73v10.4l-3.7,.17v10.33l-3.7,.22v10.42h-3.74v13.87l-3.7,.21v10.4h-3.72v14.02h-3.66v10.42l-3.7,.17v13.83l-3.76,.17v13.84l-3.7,.15v13.93h-3.67v10.41l-3.77,.24v13.82l-3.7,.22v10.31l-3.66,.18v6.76l-3.77,.18v10.38l-3.61,.19v6.88h-3.77v6.89l-3.7,.24v3.25l-3.7,.18-.17,3.47h-3.55v3.5h-3.81l-.19,3.25h-8.72l-.16-3.14h-3.59v-3.52h-3.68v-36.68l3.56-.17,.15-3.33h5.13l.18,3.26h5.61v-12.06l-3.52-.22-.16-3.27h-5.58l-.19,3.26-3.52,.21v3.26l-3.73,.2v6.79l-3.72,.22v40.22h3.61v3.59h3.5l.19,3.54h3.79v3.24h13.12v-3.36h3.77v-3.24l3.71-.18,.19-3.38,3.4-.15,.17-3.54h3.52l.21-3.43,3.51-.15v-6.88h3.68v-6.91l3.87-.23v-10.45h3.63v-6.81l3.67-.21v-10.35l3.8-.18v-13.67l3.62-.16v-10.48l3.81-.2v-13.89h3.59v-10.44l3.7-.15v-13.89h3.79v-14.04h3.7v-13.93h3.64v-10.65h3.86v-13.87h5.2v26.08h-3.56v41.9l-3.75,.18v52.34l-3.65,.16v61.35h1.9l.19-3.42,3.61-.15v-17.36l3.66-.16v-13.97h3.77v-17.34l3.67-.2v-13.84l3.65-.19v-13.83l3.87-.18v-17.23l3.67-.18v-13.94h3.67v-13.98h3.61v-10.52l3.81-.17v-13.81l3.74-.19v-13.75l3.69-.21v-10.44h3.7v-10.55h3.67v-6.9l3.74-.18v-10.41h3.61l.37-6.92,3.49-.2v-6.82l3.62-.25,.16-3.34h3.62v-6.76l3.78-.18,.21-3.49h7.12v-3.58h3.63l.2-3.33h20l.2,3.24h3.51v8.72l-3.56,.17v3.32l-3.64,.17-.34,6.85-3.37,.15-.18,3.53-3.64,.04v6.73l-3.69,.17v10.29l-3.68,.21v43.7l3.72,.18v3.36h3.55l.18,3.47h18.39v8.67h-3.62v17.6h-3.7v13.94h-3.66v14.04h-3.78v13.82l-3.7,.2v10.38l-3.72,.17v10.5h-3.58v7.01h-3.86v10.38l-3.66,.19v6.91h-3.71v6.9l-3.61,.19-.39,6.47-.78,.23-2.61,.15v3.52l-3.71,.17v3.27l-3.68,.19-.2,3.25h-8.92v-6.73l-3.81-.21v-17.34l-3.42-.14v-29.53h3.45v-38.42l3.66-.19v-20.9l3.81-.16v-17.31l3.67-.2v-13.8l3.63-.19v-10.43h3.74v-10.39l3.78-.17v-10.36l3.6-.2v-6.91h3.7v-6.86l3.72-.2v-6.97h3.79v-6.87l3.57-.21,.18-3.32,3.64-.04v-8.72h-2.01l-.19,3.21h-3.4v3.64h-3.73l-.17,3.43-3.58,.15v6.79l-3.74,.17v6.97h-3.62v6.86l-3.74,.15v6.9l-3.82,.17v10.34l-3.63,.15v6.8l-3.72,.21v10.34l-3.84,.18v13.61l-3.59,.23v10.46l-3.78,.17v17.3l-3.72,.2v17.29l-3.7,.22v31.3l-3.54,.15v36.87l3.47,.14v17.24l3.83,.19v3.44l3.55,.21v3.28h3.83v3.55h3.48v4.94h-3.37v3.66h-3.82v6.97l-3.54,.15-.4,6.82-3.44,.16v6.85l-3.6,.18v6.83h-3.79v10.46l-3.7,.17v10.33l-3.77,.23v10.28l-3.62,.16v10.31l-3.74,.2v13.93h-3.69v17.42l-3.79,.19v24.27l-3.66,.18v34.76l-3.74,.27v13.82l-3.61,.2v10.36l-3.73,.17v10.41h-3.79v10.43h-5.31v-33h3.62v-17.44l3.6-.17v-40.29l-3.54-.18v-10.3l-3.74-.17v-12.08h3.73l.21-3.35h3.45v-3.53l3.63-.18,.21-3.43h3.51v-6.88l3.79-.18v-13.76l3.58-.19v-47.28h-3.48v-10.48h-3.54l-.39-7.01-3.49-.16v-3.62h-3.68v-3.33l-3.58-.21-.2-3.21h-3.66l-.19-3.49h-24.11l-.17,3.39h-7.21l-.2,3.6h-3.67l-.21,3.23-3.5,.16-.18,3.44h-3.49v3.48h-3.58l-.18,3.61-3.54,.15v3.26l-3.79,.24v6.9h-3.69v6.88l-3.66,.21v6.87h-3.71v10.42l-3.77,.18v13.78l-3.7,.22v54.22l3.58,.23v6.79h3.68l.18,3.44h13.04v-3.3h7.36l.34-7.07h3.36l.17-3.39,3.67-.16v-10.4l3.65-.17v-10.31h3.69v-14.06h3.8v-28.01h3.52v-8.68h-5.62v13.78h-3.65v24.51h-3.67v13.99h-3.71v10.39l-3.71,.22v6.95h-3.66l-.4,6.96h-7.04v3.48h-5.38l-.17-3.37h-3.61v-6.97l-3.56-.17v-39.93l3.54-.17v-17.45h3.62v-10.41l3.8-.2v-10.38l3.68-.19v-6.78l3.65-.17,.2-3.42h3.5v-6.9l3.71-.22v-3.29l3.75-.16v-3.45h3.72v-3.5h3.63l.17-3.49h7.33l.17-3.38h16.35v3.26h7.36l.17,3.48,3.53,.19v11.87l-3.56,.16v7.04h-3.61l-.38,6.95-3.5,.17v10.37l-3.67,.18v10.31h-3.6v10.52h-3.77v13.97h-3.71v13.95l-3.65,.17v13.85l-3.76,.16v17.4h-3.72v14.06h-3.75v14.04h-3.69v13.85l-3.65,.2v10.38h-3.65v10.46l-3.77,.2v10.33l-3.72,.17v6.8l-3.74,.17v6.98h-3.63l-.2,3.38-3.54,.19v3.34h-3.72l-.22,3.41h-5.08l-.19-3.3h-3.52l-.22-3.42-3.49-.19v-33.02l3.41-.17v-12.09H6.03l-.17,3.22-3.69,.19v40.21l3.74,.2v6.76h3.53l.19,3.62h3.74v3.3h13.11l.18-3.21,3.46-.2,.18-3.45h3.61v-3.41l3.71-.16v-6.88h3.67v-7.04h3.68v-6.94h3.76v-6.98l3.7-.16v-10.36h3.68v-10.52h3.79v-13.96h3.63v-10.44l3.81-.2v-17.38h3.73v-13.98h12.55l.33,6.82,3.58,.16v47.07h-3.66v17.44l-3.65,.17v40.23l3.54,.16,.17,3.28h9.29v-3.26l3.75-.16v-6.91l3.64-.16v-6.77l3.77-.17v-10.3h5.38v17.25l3.78,.16v6.87l3.64,.17,.16,3.3,3.47,.16,.21,3.2Zm-29.62-13.9h1.85v-10.43h3.79v-10.34l3.73-.17v-10.34l3.61-.2v-13.8l3.74-.27v-34.8l3.66-.18v-24.27l3.79-.19v-17.5h3.69v-13.84l3.74-.2v-10.33l3.62-.16v-10.25l3.77-.23v-10.35l3.7-.17v-10.54h3.79v-6.75l3.6-.18v-6.86l3.53-.17,.4-6.83,3.45-.14v-7.04h3.82v-3.66h3.37v-1.48h-3.48v-3.55h-3.83v-3.38l-3.55-.21v-3.43l-3.83-.19v-17.23l-3.47-.14v-40.19l3.54-.15v-31.27l3.7-.22v-17.3l3.72-.2v-17.32l3.78-.17v-10.43l3.59-.23v-13.64l3.84-.18v-10.32l3.72-.21v-6.83l3.63-.15v-10.33l3.82-.17v-6.9l3.74-.15v-6.93h3.62v-6.9l3.74-.17v-6.79l3.66-.16,.18-3.5h3.64v-3.64h3.5l.19-3.21h5.37v10.45h1.94l.18-3.46,3.37-.15,.33-6.84,3.56-.17v-3.32l3.56-.17v-5.34h-3.4l-.2-3.24h-16.74l-.2,3.33h-3.53v3.58h-7.23l-.21,3.42-3.69,.18v6.84h-3.7l-.16,3.36-3.54,.15v6.8l-3.58,.2-.37,7.01h-3.52v10.33l-3.74,.18v6.98h-3.67v10.55h-3.7v10.35l-3.69,.21v13.76l-3.74,.19v13.83l-3.81,.17v10.6h-3.61v13.98h-3.67v13.86l-3.67,.18v17.23l-3.87,.18v13.82l-3.65,.19v13.84l-3.67,.2v17.43h-3.77v13.89l-3.66,.16v17.36l-3.7,.15-.2,3.49h-3.42v1.67l3.4,.16,.38,6.94h3.63v10.48h3.48v50.66l-3.58,.19v13.77l-3.79,.18v6.96h-3.61l-.21,3.35-3.53,.18v3.62h-3.56l-.21,3.35h-3.62v8.69l3.74,.17v10.31l3.54,.18v43.59l-3.6,.17v17.52h-3.62v29.54Zm66.76-220.68h5.56l.19-3.17,3.58-.19v-3.28l3.71-.17v-3.5l3.48-.2,.4-6.66,3.52-.18v-6.99h3.71v-6.82l3.66-.19v-10.47h3.86v-7.01h3.58v-10.43l3.72-.17v-10.36l3.7-.2v-13.91h3.78v-14.04h3.66v-13.94h3.7v-17.6h3.62v-5.2h-18.3l-.18-3.47h-3.64l-.08-3.44-3.64-.18V49.15l3.68-.21v-10.31l3.69-.17v-5.07h-1.95l-.18,3.22-3.48,.21v6.97h-3.79v6.88l-3.72,.2v6.95h-3.7v6.81l-3.6,.2v10.38l-3.78,.17v10.46h-3.74v10.34l-3.63,.19v13.8l-3.67,.2v17.34l-3.81,.16v20.88l-3.66,.19v38.51h-3.45v26.14l3.42,.14v17.36l3.81,.21v6.64Zm-22.46,229.34h-8.99v-3.27h-3.76v-7l-3.58-.17v-75.1h3.6v-24.36l3.72-.2v-20.96h3.7v-14.02h3.65v-13.97h3.65v-10.45h3.74v-10.44l3.78-.21v-10.34l3.62-.17v-6.87h3.72v-7.09h3.74v-6.88l3.69-.18,.32-6.69,3.36-.14,.18-3.63h3.58v-3.37l3.67-.17v-3.45h7.44l.18-3.46h16.4v3.41h3.62l.17,3.52,3.59,.16,.16,3.3,3.35,.16,.39,6.85,3.45,.16v12.07h-3.44v6.96l-3.84,.17v10.4h-3.72v10.46h-3.77v14.02h-3.65v20.97h-5.3v-59.39h-3.81v-10.46l-3.63-.16-.17-3.37h-3.45l-.22-3.41h-2.01l-.23,3.21-3.29,.16v1.76l3.56,.18v6.77l3.6,.17v89.09h-3.53v24.45h-3.75v17.6h-3.64v13.96h-3.78v13.95l-3.74,.17v10.33l-3.7,.15v10.22l-3.71,.18v7.09h-3.56l-.43,6.84h-3.35v3.57l-3.68,.17v3.37h-3.72l-.18,3.4Zm-7.26-1.73h5.62l.18-3.4h3.63v-3.29l3.68-.17v-3.65h3.45l.43-6.84h3.46v-7.01l3.71-.18v-10.22l3.7-.15v-10.32l3.74-.17v-14.02h3.78v-13.96h3.64v-17.6h3.75v-24.45h3.53v-85.7l-3.6-.17v-6.77l-3.56-.18v-5.05l3.4-.17,.23-3.29h5.25l.22,3.41h3.48l.17,3.44,3.71,.16v10.38h3.81v59.39h1.84v-20.97h3.65v-14.02h3.77v-10.46h3.72v-10.32l3.84-.17v-7.04h3.44v-8.69l-3.36-.15-.39-6.85-3.36-.16-.16-3.29-3.59-.16-.17-3.44h-3.7v-3.41l-13.02,.02-.17,3.44h-7.36v3.37l-3.67,.17v3.45h-3.66l-.17,3.56-3.36,.14-.32,6.68-3.61,.18v6.96h-3.74v7.09h-3.72v6.79l-3.62,.17v10.33l-3.78,.21v10.53h-3.74v10.45h-3.65v13.97h-3.65v14.02h-3.7v20.87l-3.72,.2v24.45h-3.6v71.72l3.58,.17v6.92h3.76v3.27Zm66.57-1.68h-8.85l-.16-3.37h-7.32l-.17-3.64h-3.5v-10.39l-3.73-.18v-43.58h3.67v-17.3l3.67-.18v-17.45h3.74v-24.42h5.29v3.3l3.71,.2v17.27l3.7,.16,.18,3.38h3.5l.19,3.46h13.12l.21-3.29h3.45v-3.61h3.66v-6.88l3.7-.16v-13.85h3.59v-50.97h-3.45v-17.47l-3.65-.18v-19.03h3.45l.17-3.53h3.59v-3.42l3.73-.17,.17-3.4h3.54l.18-3.51h7.16v-3.41h16.55l.16,3.41h7.28v6.9h3.69v8.81h-3.58v10.23l-3.72,.22v6.89l-3.72,.21v10.16l-3.7,.21v10.34l-3.7,.21v10.48h-3.68v13.94h-3.71v13.96l-3.74,.17v13.84l-3.61,.18v13.92h-3.78v17.43l-3.74,.18v13.95h-3.7v13.94h-3.66v10.52h-3.63v10.45l-3.8,.21v10.4h-3.68v7.01h-3.66v6.94l-3.73,.17-.36,6.87h-7.09l-.18,3.48Zm-7.21-1.73h5.56l.18-3.48h7.09l.36-6.8,3.65-.16v-7.02h3.66v-7.01h3.68v-10.3l3.8-.21v-10.54h3.63v-10.52h3.66v-13.94h3.7v-13.87l3.74-.18v-17.51h3.78v-13.83l3.61-.18v-13.85l3.74-.17v-14.04h3.71v-13.94h3.68v-10.38l3.7-.21v-10.33l3.7-.21v-10.16l3.72-.21v-6.88l3.72-.22v-10.33h3.58v-5.34h-3.69v-6.9h-7.2l-.16-3.41h-13.16v3.41h-7.24l-.18,3.51h-3.54l-.16,3.33-3.65,.17v3.5h-3.67l-.17,3.53h-3.37v15.65l3.65,.18v17.39h3.45v54.43h-3.59v13.78l-3.7,.16v6.95h-3.66v3.61h-3.56l-.21,3.29h-16.38l-.19-3.46h-3.51l-.18-3.45-3.78-.16v-17.29l-3.71-.2v-3.21h-1.83v24.42h-3.74v17.37l-3.67,.18v17.39h-3.67v40.19l3.73,.17v10.31h3.42l.17,3.64h7.31l.17,3.37Zm118.4,1.69h-12.47l-.18-3.35-3.64-.17v-17.34l-3.48-.21v-36.39l3.44-.18v-38.4h3.7v-24.42l3.71-.16v-17.44h3.76v-13.92l3.66-.18v-10.45h3.67v-10.46l3.75-.17v-10.41h3.63v-6.87l3.82-.21v-10.35l3.73-.22v-6.87h3.53l.18-3.45h3.57v-6.97l3.72-.18v-3.28l3.7-.17v-3.44h3.68l.18-3.44,3.56-.17,.31-6.74,3.41-.14v-3.5h3.78v-6.95l3.59-.19,.4-6.91h3.33l.17-3.44,3.59-.15v-6.82h9.09v6.8l3.67,.18,.17,3.33,3.65,.16v3.43h3.46l.17,3.38,3.68,.21,.17,3.28,7.09,.38v4.78l-3.42,.17-.15,3.28h-5.17l-.17-3.21h-20.44l-.17,3.41h-7.29l-.17,3.53h-3.65l-.19,3.35h-3.53l-.16,3.4-3.5,.17-.17,3.32-3.42,.15-.18,3.51-3.51,.17v3.27l-3.73,.16v6.9l-3.81,.16v10.41h-3.72v17.37l-3.53,.18v19.23l3.37,.15,.11,.83v9.48l3.7,.2v6.81h3.69l.18,3.55h14.63v22.57l-3.51,.17v13.86l-3.76,.18v17.41h-3.63v10.44l-3.79,.16v13.81l-3.7,.16v10.33l-3.73,.21v10.48h-3.6v6.96h-3.7v6.95l-3.75,.17v6.78l-3.73,.18v6.96h-3.65l-.37,6.8-3.48,.16-.18,3.44Zm-10.83-1.73h9.18l.18-3.36,3.49-.16,.38-6.88h3.56v-6.87l3.73-.18v-6.78l3.75-.17v-7.03h3.7v-6.96h3.6v-10.39l3.73-.21v-10.35l3.7-.16v-13.81l3.79-.16v-10.51h3.63v-17.33l3.76-.18v-13.86l3.51-.17v-19.19h-14.55l-.17-3.55h-3.78v-6.9l-3.7-.2v-10.29l-3.48-.15v-22.53l3.53-.18v-17.46h3.72v-10.33l3.81-.16v-6.9l3.73-.16v-3.26l3.59-.17,.18-3.52,3.42-.15,.17-3.31,3.5-.17,.17-3.48h3.54l.19-3.35h3.63l.16-3.53h7.29l.17-3.41h23.73l.17,3.21h1.87l.15-3.2,3.34-.17v-1.49l-7-.38-.17-3.29-3.69-.21-.16-3.29h-3.54v-3.51l-3.56-.16-.17-3.34-3.75-.19v-6.72h-5.63v6.75l-3.67,.15-.17,3.5h-3.34l-.39,6.83-3.5,.18v7.04h-3.78v3.43l-3.49,.14-.31,6.73-3.57,.17-.19,3.52h-3.59v3.37l-3.7,.17v3.27l-3.72,.18v7.05h-3.66l-.18,3.45h-3.44v6.77l-3.73,.22v10.36l-3.82,.21v6.96h-3.63v10.33l-3.75,.17v10.53h-3.67v10.37l-3.66,.17v14h-3.76v17.37l-3.71,.16v24.5h-3.7v38.31l-3.44,.18v33.11l3.48,.21v17.32l3.55,.17,.17,3.27Zm-53.06,1.69h-15.4l-.17-3.26-3.65-.2v-3.27l-3.56-.16v-19.02l3.6-.18v-10.34l3.74-.22v-10.14l3.62-.16v-10.53h3.71v-10.49h3.73v-13.95l3.77-.16v-14h3.63v-13.89h5.33l.21,3.41h7.13l.18,3.58h3.47l.37,6.84h3.42v47.15l-3.51,.19v17.28l-3.69,.17v10.39l-3.73,.23v6.88h-3.6l-.4,6.78-3.34,.14v3.48l-3.84,.17-.2,3.24-.82,.04Zm-13.75-1.73h12.94l.2-3.21,3.74-.16v-3.48l3.44-.15,.4-6.85h3.5v-6.77l3.73-.23v-10.42l3.69-.17v-17.27l3.51-.19v-43.78h-3.33l-.37-6.84h-3.47l-.18-3.58h-7.11l-.21-3.41h-1.97v13.89h-3.63v13.93l-3.77,.16v14.02h-3.73v10.49h-3.71v10.46l-3.62,.16v10.12l-3.74,.22v10.36l-3.6,.18v15.71l3.56,.16v3.29l3.57,.19,.17,3.17Zm-18.71-96.21h-8.84v-6.88l-3.72-.25v-46.85l3.54-.17v-13.87l3.76-.17v-13.93h3.56v-6.93h9.22v17.33h3.58v50.61l-3.58,.21v13.88l-3.61,.19v3.26l-3.74,.18-.18,3.39Zm-7.11-1.73h5.46l.17-3.32,3.65-.17v-3.25l3.61-.19v-13.87l3.58-.21v-47.24h-3.58v-17.33h-5.76v6.93h-3.56v13.85l-3.76,.17v13.87l-3.54,.17v43.58l3.72,.25v6.77Zm-115.24-19.28h-12.66v-8.58h3.64v-17.39l3.67-.19v-13.86l3.7-.2v-13.83l3.74-.19v-13.8l3.69-.2v-10.36h8.98v50.52l-3.58,.18v13.86l-3.69,.19v6.77l-3.67,.21v3.44h-3.62l-.2,3.42Zm-10.93-1.73h9.29l.2-3.42h3.53v-3.34l3.67-.21v-6.77l3.69-.19v-13.87l3.58-.18v-47.14h-5.51v10.27l-3.69,.2v13.8l-3.74,.19v13.82l-3.7,.2v13.86l-3.67,.19v17.47h-3.64v5.12Zm185.06,1.67h-12.44v-8.51h3.59v-17.42l3.7-.2v-17.2l3.75-.26v-13.81l3.6-.19v-10.41l3.72-.16v-10.35h8.99v47.01l-3.52,.18v13.85l-3.64,.15v6.78l-3.67,.2-.36,6.74-3.49,.15-.22,3.45Zm-10.71-1.73h9.09l.21-3.38,3.48-.15,.36-6.72,3.59-.2v-6.8l3.64-.15v-13.84l3.52-.18v-43.63h-5.53v10.28l-3.72,.16v10.39l-3.6,.19v13.79l-3.75,.26v17.22l-3.7,.2v17.52h-3.59v5.05Zm96.35-22.77h-8.94l-.17-3.45-3.61-.18v-43.33l3.59-.18v-10.41l3.56-.15,.37-6.8,3.36-.16,.17-3.44h3.59v-3.44h9.04v50.49l-3.57,.18v13.87l-3.65,.17-.16,3.35-3.57,.16v3.31Zm-7.3-1.73h5.56v-3.23l3.65-.16,.16-3.35,3.58-.17v-13.87l3.57-.18v-47.11h-5.58v3.44h-3.67l-.17,3.36-3.36,.16-.37,6.81-3.47,.14v10.4l-3.59,.18v40.03l3.53,.18,.17,3.37Zm-122.84-64.87h-5.03v-10.21l-3.75-.17-.17-3.36-3.49-.15v-6.82l-3.77-.22v-3.43h-11.08v-3.39h-3.73v-8.65l3.56-.21v-6.9h3.71v-6.87l3.79-.19v-10.38l3.64-.19v-6.93h3.74v-10.35l3.6-.15v-10.37l3.81-.19v-13.77l3.72-.23v-13.74l3.67-.26v-13.84l3.77-.18v-20.87h3.72v-24.38l3.56-.19V29.77l-3.44-.17v-11.96h10.94l.28-3.38h5l.17,3.31h14.73l.16,3.46h7.34v3.4l3.59,.17,.17,3.38h7.28l.18,3.5,3.64,.18v3.34l3.58,.17v4.98l-3.48,.17v3.35h-3.7v6.99l-3.85,.17v10.16l-3.68,.2v10.5h-3.72v13.95l-3.73,.17v17.37l-3.68,.16v27.79l-3.78,.21v34.88h-3.62v31.45l-3.77,.18v17.37l-3.64,.16v10.34l-3.74,.16v6.88l-3.59,.28-.22,3.27h-3.63l-.28,3.44h-3.59l-.2,3.25-3.37,.17v3.4l-3.75,.18-.16,3.45h-3.52l-.21,3.46Zm-3.3-1.73h1.68l.21-3.46h3.5l.16-3.37,3.67-.18v-3.4l3.47-.17,.21-3.33h3.62l.27-3.44h3.6l.22-3.3,3.48-.16v-6.89l3.74-.16v-10.33l3.64-.16v-17.37l3.77-.18v-31.53h3.62v-34.78l3.78-.21v-27.81l3.68-.16v-17.37l3.73-.17v-14.03h3.72v-10.41l3.68-.2v-10.18l3.85-.17v-7.06h3.7v-3.27l3.48-.17v-1.68l-3.58-.17v-3.34l-3.55-.17-.18-3.42h-7.29l-.18-3.46-3.67-.17v-3.32h-7.26l-.16-3.46h-14.72l-.17-3.31h-1.76l-.28,3.38h-10.8v8.58l3.44,.17v50.6l-3.56,.19v24.47h-3.72v20.79l-3.77,.18v13.8l-3.67,.26v13.75l-3.72,.23v13.79l-3.81,.19v10.38l-3.6,.15v10.42h-3.74v6.84l-3.64,.19v10.38l-3.79,.19v6.95h-3.71v6.8l-3.56,.21v5.29h3.73v3.39h11.08v3.53l3.77,.22v6.79l3.41,.14,.17,3.37,3.83,.18v10.14Zm181.67-36.8h-5.43v-3.19h-3.67l-.18-3.54-3.51-.16-.15-3.29-3.62-.17v-6.91h-3.76v-3.46h-3.4v-8.66l3.33-.18,.18-3.45h3.58v-6.85l3.72-.2v-6.95h3.67v-7.03h3.85v-10.43l3.67-.16v-6.85h3.72v-6.96h5.21v57.58h-3.54v17.55h-3.66v3.31Zm-3.7-1.73h1.96v-3.31h3.66v-17.55h3.54v-54.12h-1.75v6.96h-3.72v6.78l-3.67,.16v10.5h-3.85v7.03h-3.67v6.86l-3.72,.2v6.94h-3.67l-.17,3.36-3.25,.18v5.28h3.4v3.46h3.76v6.99l3.55,.17,.15,3.29,3.51,.16,.18,3.47h3.76v3.19Zm-18.58-33.2h-5.27l-.19-3.33-3.67-.18v-10.37l-3.66-.15v-13.83h-3.66v-20.98l-3.64-.15V56.1h3.54v-14.03h3.54v-3.39l3.83-.22v-3.31h12.73v6.82h3.83v3.62l3.63,.19v10.2l3.79,.18v10.35l3.63,.18v13.83l3.65,.24v20.75h3.67v26.22h-3.46v6.91l-3.75,.21v6.91h-3.77v10.4l-3.57,.2-.36,6.92h-3.41v6.86l-3.77,.24v6.85l-3.66,.16v6.79Zm-3.63-1.73h1.9v-6.72l3.66-.16v-6.82l3.77-.24v-6.97h3.5l.36-6.83,3.49-.2v-10.49h3.77v-6.82l3.75-.21v-7h3.46v-22.76h-3.67v-20.86l-3.65-.24v-13.8l-3.63-.18v-10.34l-3.79-.18v-10.21l-3.63-.19v-3.53h-3.83v-6.82h-9.27v3.21l-3.83,.22v3.49h-3.54v14.03h-3.54v71.7l3.64,.15v20.91h3.66v13.9l3.66,.15v10.38l3.58,.18,.18,3.25Zm-248.75-15.85h-5.15v-15.36h5.15v15.36Zm-3.42-1.73h1.69v-11.9h-1.69v11.9Zm296.56-1.67h-5.4v-27.87l-3.49-.15v-11.9l3.44-.22v-6.87l3.67-.16v-6.81l3.76-.19v-10.39l3.7-.17v-6.79l3.66-.16v-6.96h3.77v-6.93h3.6v-6.96l3.75-.18v-6.84h3.73v-7.02l3.81-.19v-6.76l3.58-.2,.18-3.37h5.25v8.52l-3.61,.23v6.86h-3.68v10.41l-3.61,.17v6.81l-3.79,.23v10.34h-3.67v10.52h-3.83v13.95l-3.65,.17v10.28l-3.68,.2v10.37l-3.77,.17v13.87h-3.72v13.97Zm-3.67-1.73h1.94v-13.97h3.72v-13.79l3.77-.17v-10.35l3.68-.2v-10.29l3.65-.17v-14.03h3.83v-10.52h3.67v-10.23l3.79-.23v-6.83l3.61-.17v-10.49h3.68v-6.76l3.61-.23v-5.17h-1.88l-.18,3.28-3.49,.2v6.77l-3.81,.19v7.1h-3.73v6.76l-3.75,.18v7.04h-3.6v6.93h-3.77v6.89l-3.66,.16v6.79l-3.7,.17v10.38l-3.76,.19v6.82l-3.67,.15v6.83l-3.44,.22v8.62l3.49,.15v27.8Zm-196.59-61.3h-12.77l-.17-3.3-3.49-.17V52.72h3.46v-7.03l3.79-.17v-7.01h3.6l.19-3.48h3.66v-6.74l3.73-.21v-3.25h5.23v57.34h-3.51v10.53l-3.73,.18v3.29Zm-11.12-1.73h9.39v-3.21l3.73-.18v-10.61h3.51V26.56h-1.77v3.16l-3.73,.21v6.83h-3.75l-.19,3.48h-3.51v6.93l-3.79,.17v7.11h-3.46v36.61l3.4,.17,.16,3.22ZM117,57.66h-4.96v-4.94h4.96v4.94Zm-3.23-1.73h1.49v-1.48h-1.49v1.48Zm340.85-15.82h-5.05v-4.98h5.05v4.98Zm-3.32-1.73h1.59v-1.51h-1.59v1.51Z"/><g class="d"><rect x="239.77" y="428.81" width="3.84" height="3.84"/><rect x="235.93" y="428.81" width="3.84" height="3.84"/><rect x="220.56" y="428.81" width="3.84" height="3.84"/><rect x="212.88" y="428.81" width="3.84" height="3.84"/><rect x="205.2" y="428.81" width="3.84" height="3.84"/><rect x="201.36" y="428.81" width="3.84" height="3.84"/><rect x="239.77" y="432.65" width="3.84" height="3.84"/><rect x="235.93" y="432.65" width="3.84" height="3.84"/><rect x="224.4" y="432.65" width="3.84" height="3.84"/><rect x="220.56" y="432.65" width="3.84" height="3.84"/><rect x="212.88" y="432.65" width="3.84" height="3.84"/><rect x="205.2" y="432.65" width="3.84" height="3.84"/><rect x="201.36" y="432.65" width="3.84" height="3.84"/><rect x="239.77" y="436.49" width="3.84" height="3.84"/><rect x="232.09" y="436.49" width="3.84" height="3.84"/><rect x="216.72" y="436.49" width="3.84" height="3.84"/><rect x="197.51" y="436.49" width="3.84" height="3.84"/><rect x="239.77" y="440.33" width="3.84" height="3.84"/><rect x="232.09" y="440.33" width="3.84" height="3.84"/><rect x="220.56" y="440.33" width="3.84" height="3.84"/><rect x="209.04" y="440.33" width="3.84" height="3.84"/><rect x="201.36" y="440.33" width="3.84" height="3.84"/><rect x="239.77" y="444.17" width="3.84" height="3.84"/><rect x="220.56" y="444.17" width="3.84" height="3.84"/><rect x="197.51" y="444.17" width="3.84" height="3.84"/><rect x="193.67" y="444.17" width="3.84" height="3.84"/><rect x="228.25" y="448.01" width="3.84" height="3.84"/><rect x="220.56" y="448.01" width="3.84" height="3.84"/><rect x="216.72" y="448.01" width="3.84" height="3.84"/><rect x="212.88" y="448.01" width="3.84" height="3.84"/><rect x="209.04" y="448.01" width="3.84" height="3.84"/><rect x="205.2" y="448.01" width="3.84" height="3.84"/><rect x="197.51" y="448.01" width="3.84" height="3.84"/><rect x="193.67" y="448.01" width="3.84" height="3.84"/><rect x="239.77" y="451.85" width="3.84" height="3.84"/><rect x="232.09" y="451.85" width="3.84" height="3.84"/><rect x="224.4" y="451.85" width="3.84" height="3.84"/><rect x="239.77" y="455.7" width="3.84" height="3.84"/><rect x="232.09" y="455.7" width="3.84" height="3.84"/><rect x="224.4" y="455.7" width="3.84" height="3.84"/><rect x="266.66" y="459.54" width="3.84" height="3.84"/><rect x="262.82" y="459.54" width="3.84" height="3.84"/><rect x="255.14" y="459.54" width="3.84" height="3.84"/><rect x="247.45" y="459.54" width="3.84" height="3.84"/><rect x="243.61" y="459.54" width="3.84" height="3.84"/><rect x="220.56" y="459.54" width="3.84" height="3.84"/><rect x="270.5" y="463.38" width="3.84" height="3.84"/><rect x="255.14" y="463.38" width="3.84" height="3.84"/><rect x="243.61" y="463.38" width="3.84" height="3.84"/><rect x="224.4" y="463.38" width="3.84" height="3.84"/><rect x="220.56" y="463.38" width="3.84" height="3.84"/><rect x="266.66" y="467.22" width="3.84" height="3.84"/><rect x="262.82" y="467.22" width="3.84" height="3.84"/><rect x="258.98" y="467.22" width="3.84" height="3.84"/><rect x="255.14" y="467.22" width="3.84" height="3.84"/><rect x="251.29" y="467.22" width="3.84" height="3.84"/><rect x="247.45" y="467.22" width="3.84" height="3.84"/><rect x="220.56" y="467.22" width="3.84" height="3.84"/><rect x="178.31" y="467.22" width="3.84" height="3.84"/><rect x="174.47" y="467.22" width="3.84" height="3.84"/><rect x="166.78" y="467.22" width="3.84" height="3.84"/><rect x="162.94" y="467.22" width="3.84" height="3.84"/><rect x="258.98" y="471.06" width="3.84" height="3.84"/><rect x="251.29" y="471.06" width="3.84" height="3.84"/><rect x="239.77" y="471.06" width="3.84" height="3.84"/><rect x="235.93" y="471.06" width="3.84" height="3.84"/><rect x="232.09" y="471.06" width="3.84" height="3.84"/><rect x="224.4" y="471.06" width="3.84" height="3.84"/><rect x="212.88" y="471.06" width="3.84" height="3.84"/><rect x="205.2" y="471.06" width="3.84" height="3.84"/><rect x="201.36" y="471.06" width="3.84" height="3.84"/><rect x="197.51" y="471.06" width="3.84" height="3.84"/><rect x="193.67" y="471.06" width="3.84" height="3.84"/><rect x="189.83" y="471.06" width="3.84" height="3.84"/><rect x="185.99" y="471.06" width="3.84" height="3.84"/><rect x="182.15" y="471.06" width="3.84" height="3.84"/><rect x="174.47" y="471.06" width="3.84" height="3.84"/><rect x="166.78" y="471.06" width="3.84" height="3.84"/><rect x="266.66" y="474.9" width="3.84" height="3.84"/><rect x="247.45" y="474.9" width="3.84" height="3.84"/><rect x="243.61" y="474.9" width="3.84" height="3.84"/><rect x="239.77" y="474.9" width="3.84" height="3.84"/><rect x="232.09" y="474.9" width="3.84" height="3.84"/><rect x="228.25" y="474.9" width="3.84" height="3.84"/><rect x="216.72" y="474.9" width="3.84" height="3.84"/><rect x="205.2" y="474.9" width="3.84" height="3.84"/><rect x="193.67" y="474.9" width="3.84" height="3.84"/><rect x="185.99" y="474.9" width="3.84" height="3.84"/><rect x="182.15" y="474.9" width="3.84" height="3.84"/><rect x="174.47" y="474.9" width="3.84" height="3.84"/><path d="M274.34,428.81h-26.89v26.89h26.89v-26.89Zm-3.84,3.84v19.21h-19.21v-19.21h19.21Z"/><rect x="255.14" y="436.49" width="11.52" height="11.52"/><path d="M162.94,428.81v26.89h26.89v-26.89h-26.89Zm3.84,3.84h19.21v19.21h-19.21v-19.21Z"/><rect x="170.62" y="436.49" width="11.52" height="11.52"/><rect x="128.37" y="428.81" width="3.84" height="3.84"/><rect x="124.53" y="428.81" width="3.84" height="3.84"/><rect x="109.16" y="428.81" width="3.84" height="3.84"/><rect x="101.48" y="428.81" width="3.84" height="3.84"/><rect x="93.8" y="428.81" width="3.84" height="3.84"/><rect x="89.96" y="428.81" width="3.84" height="3.84"/><rect x="128.37" y="432.65" width="3.84" height="3.84"/><rect x="124.53" y="432.65" width="3.84" height="3.84"/><rect x="113" y="432.65" width="3.84" height="3.84"/><rect x="109.16" y="432.65" width="3.84" height="3.84"/><rect x="101.48" y="432.65" width="3.84" height="3.84"/><rect x="93.8" y="432.65" width="3.84" height="3.84"/><rect x="89.96" y="432.65" width="3.84" height="3.84"/><rect x="128.37" y="436.49" width="3.84" height="3.84"/><rect x="120.69" y="436.49" width="3.84" height="3.84"/><rect x="105.32" y="436.49" width="3.84" height="3.84"/><rect x="86.11" y="436.49" width="3.84" height="3.84"/><rect x="128.37" y="440.33" width="3.84" height="3.84"/><rect x="120.69" y="440.33" width="3.84" height="3.84"/><rect x="109.16" y="440.33" width="3.84" height="3.84"/><rect x="97.64" y="440.33" width="3.84" height="3.84"/><rect x="89.96" y="440.33" width="3.84" height="3.84"/><rect x="128.37" y="444.17" width="3.84" height="3.84"/><rect x="151.42" y="428.81" width="3.84" height="3.84"/><rect x="143.74" y="428.81" width="3.84" height="3.84"/><rect x="151.42" y="432.65" width="3.84" height="3.84"/><rect x="151.42" y="440.33" width="3.84" height="3.84"/><rect x="151.42" y="444.17" width="3.84" height="3.84"/><rect x="109.16" y="444.17" width="3.84" height="3.84"/><rect x="86.11" y="444.17" width="3.84" height="3.84"/><rect x="82.27" y="444.17" width="3.84" height="3.84"/><rect x="116.85" y="448.01" width="3.84" height="3.84"/><rect x="109.16" y="448.01" width="3.84" height="3.84"/><rect x="105.32" y="448.01" width="3.84" height="3.84"/><rect x="101.48" y="448.01" width="3.84" height="3.84"/><rect x="97.64" y="448.01" width="3.84" height="3.84"/><rect x="93.8" y="448.01" width="3.84" height="3.84"/><rect x="86.11" y="448.01" width="3.84" height="3.84"/><rect x="82.27" y="448.01" width="3.84" height="3.84"/><rect x="147.58" y="436.49" width="3.84" height="3.84"/><rect x="143.74" y="440.33" width="3.84" height="3.84"/><rect x="139.89" y="440.33" width="3.84" height="3.84"/><rect x="143.74" y="444.17" width="3.84" height="3.84"/><rect x="139.89" y="444.17" width="3.84" height="3.84"/><rect x="128.37" y="451.85" width="3.84" height="3.84"/><rect x="120.69" y="451.85" width="3.84" height="3.84"/><rect x="113" y="451.85" width="3.84" height="3.84"/><rect x="105.32" y="451.85" width="3.84" height="3.84"/><rect x="97.64" y="451.85" width="3.84" height="3.84"/><rect x="89.96" y="451.85" width="3.84" height="3.84"/><rect x="82.27" y="451.85" width="3.84" height="3.84"/><rect x="128.37" y="455.7" width="3.84" height="3.84"/><rect x="120.69" y="455.7" width="3.84" height="3.84"/><rect x="113" y="455.7" width="3.84" height="3.84"/><rect x="97.64" y="455.7" width="3.84" height="3.84"/><rect x="93.8" y="455.7" width="3.84" height="3.84"/><rect x="89.96" y="455.7" width="3.84" height="3.84"/><rect x="86.11" y="455.7" width="3.84" height="3.84"/><rect x="82.27" y="455.7" width="3.84" height="3.84"/><rect x="155.26" y="459.54" width="3.84" height="3.84"/><rect x="147.58" y="459.54" width="3.84" height="3.84"/><rect x="143.74" y="459.54" width="3.84" height="3.84"/><rect x="136.05" y="459.54" width="3.84" height="3.84"/><rect x="132.21" y="459.54" width="3.84" height="3.84"/><rect x="136.05" y="448.01" width="3.84" height="3.84"/><rect x="136.05" y="451.85" width="3.84" height="3.84"/><rect x="147.58" y="448.01" width="3.84" height="3.84"/><rect x="147.58" y="451.85" width="3.84" height="3.84"/><rect x="151.42" y="451.85" width="3.84" height="3.84"/><rect x="151.42" y="455.7" width="3.84" height="3.84"/><rect x="143.74" y="455.7" width="3.84" height="3.84"/><rect x="139.89" y="455.7" width="3.84" height="3.84"/><rect x="109.16" y="459.54" width="3.84" height="3.84"/><rect x="89.96" y="459.54" width="3.84" height="3.84"/><rect x="82.27" y="459.54" width="3.84" height="3.84"/><rect x="74.59" y="459.54" width="3.84" height="3.84"/><rect x="66.91" y="459.54" width="3.84" height="3.84"/><rect x="63.07" y="459.54" width="3.84" height="3.84"/><rect x="59.22" y="459.54" width="3.84" height="3.84"/><rect x="55.38" y="459.54" width="3.84" height="3.84"/><rect x="51.54" y="459.54" width="3.84" height="3.84"/><rect x="159.1" y="463.38" width="3.84" height="3.84"/><rect x="155.26" y="432.65" width="3.84" height="3.84"/><rect x="159.1" y="436.49" width="3.84" height="3.84"/><rect x="159.1" y="444.17" width="3.84" height="3.84"/><rect x="155.26" y="455.7" width="3.84" height="3.84"/><rect x="143.74" y="463.38" width="3.84" height="3.84"/><rect x="132.21" y="463.38" width="3.84" height="3.84"/><rect x="113" y="463.38" width="3.84" height="3.84"/><rect x="109.16" y="463.38" width="3.84" height="3.84"/><rect x="93.8" y="463.38" width="3.84" height="3.84"/><rect x="89.96" y="463.38" width="3.84" height="3.84"/><rect x="86.11" y="463.38" width="3.84" height="3.84"/><rect x="74.59" y="463.38" width="3.84" height="3.84"/><rect x="70.75" y="463.38" width="3.84" height="3.84"/><rect x="59.22" y="463.38" width="3.84" height="3.84"/><rect x="51.54" y="463.38" width="3.84" height="3.84"/><rect x="155.26" y="467.22" width="3.84" height="3.84"/><rect x="151.42" y="467.22" width="3.84" height="3.84"/><rect x="147.58" y="467.22" width="3.84" height="3.84"/><rect x="143.74" y="467.22" width="3.84" height="3.84"/><rect x="139.89" y="467.22" width="3.84" height="3.84"/><rect x="136.05" y="467.22" width="3.84" height="3.84"/><rect x="109.16" y="467.22" width="3.84" height="3.84"/><rect x="101.48" y="467.22" width="3.84" height="3.84"/><rect x="89.96" y="467.22" width="3.84" height="3.84"/><rect x="82.27" y="467.22" width="3.84" height="3.84"/><rect x="66.91" y="467.22" width="3.84" height="3.84"/><rect x="63.07" y="467.22" width="3.84" height="3.84"/><rect x="55.38" y="467.22" width="3.84" height="3.84"/><rect x="51.54" y="467.22" width="3.84" height="3.84"/><rect x="147.58" y="471.06" width="3.84" height="3.84"/><rect x="139.89" y="471.06" width="3.84" height="3.84"/><rect x="128.37" y="471.06" width="3.84" height="3.84"/><rect x="124.53" y="471.06" width="3.84" height="3.84"/><rect x="120.69" y="471.06" width="3.84" height="3.84"/><rect x="113" y="471.06" width="3.84" height="3.84"/><rect x="101.48" y="471.06" width="3.84" height="3.84"/><rect x="93.8" y="471.06" width="3.84" height="3.84"/><rect x="89.96" y="471.06" width="3.84" height="3.84"/><rect x="86.11" y="471.06" width="3.84" height="3.84"/><rect x="82.27" y="471.06" width="3.84" height="3.84"/><rect x="78.43" y="471.06" width="3.84" height="3.84"/><rect x="74.59" y="471.06" width="3.84" height="3.84"/><rect x="70.75" y="471.06" width="3.84" height="3.84"/><rect x="63.07" y="471.06" width="3.84" height="3.84"/><rect x="55.38" y="471.06" width="3.84" height="3.84"/><rect x="155.26" y="474.9" width="3.84" height="3.84"/><rect x="136.05" y="474.9" width="3.84" height="3.84"/><rect x="132.21" y="474.9" width="3.84" height="3.84"/><rect x="128.37" y="474.9" width="3.84" height="3.84"/><rect x="120.69" y="474.9" width="3.84" height="3.84"/><rect x="116.85" y="474.9" width="3.84" height="3.84"/><rect x="105.32" y="474.9" width="3.84" height="3.84"/><rect x="93.8" y="474.9" width="3.84" height="3.84"/><rect x="82.27" y="474.9" width="3.84" height="3.84"/><rect x="74.59" y="474.9" width="3.84" height="3.84"/><rect x="70.75" y="474.9" width="3.84" height="3.84"/><rect x="63.07" y="474.9" width="3.84" height="3.84"/><rect x="462.57" y="428.81" width="3.84" height="3.84"/><rect x="458.73" y="428.81" width="3.84" height="3.84"/><rect x="443.36" y="428.81" width="3.84" height="3.84"/><rect x="428" y="428.81" width="3.84" height="3.84"/><rect x="424.16" y="428.81" width="3.84" height="3.84"/><rect x="462.57" y="432.65" width="3.84" height="3.84"/><rect x="458.73" y="432.65" width="3.84" height="3.84"/><rect x="447.21" y="432.65" width="3.84" height="3.84"/><rect x="443.36" y="432.65" width="3.84" height="3.84"/><rect x="428" y="432.65" width="3.84" height="3.84"/><rect x="424.16" y="432.65" width="3.84" height="3.84"/><rect x="462.57" y="436.49" width="3.84" height="3.84"/><rect x="454.89" y="436.49" width="3.84" height="3.84"/><rect x="420.32" y="436.49" width="3.84" height="3.84"/><rect x="462.57" y="440.33" width="3.84" height="3.84"/><rect x="454.89" y="440.33" width="3.84" height="3.84"/><rect x="443.36" y="440.33" width="3.84" height="3.84"/><rect x="431.84" y="440.33" width="3.84" height="3.84"/><rect x="424.16" y="440.33" width="3.84" height="3.84"/><rect x="462.57" y="444.17" width="3.84" height="3.84"/><rect x="443.36" y="444.17" width="3.84" height="3.84"/><rect x="420.32" y="444.17" width="3.84" height="3.84"/><rect x="416.47" y="444.17" width="3.84" height="3.84"/><rect x="451.05" y="448.01" width="3.84" height="3.84"/><rect x="443.36" y="448.01" width="3.84" height="3.84"/><rect x="420.32" y="448.01" width="3.84" height="3.84"/><rect x="416.47" y="448.01" width="3.84" height="3.84"/><rect x="462.57" y="451.85" width="3.84" height="3.84"/><rect x="454.89" y="451.85" width="3.84" height="3.84"/><rect x="447.21" y="451.85" width="3.84" height="3.84"/><rect x="416.47" y="451.85" width="3.84" height="3.84"/><rect x="462.57" y="455.7" width="3.84" height="3.84"/><rect x="454.89" y="455.7" width="3.84" height="3.84"/><rect x="447.21" y="455.7" width="3.84" height="3.84"/><rect x="420.32" y="455.7" width="3.84" height="3.84"/><rect x="416.47" y="455.7" width="3.84" height="3.84"/><rect x="477.94" y="459.54" width="3.84" height="3.84"/><rect x="470.25" y="459.54" width="3.84" height="3.84"/><rect x="466.41" y="459.54" width="3.84" height="3.84"/><rect x="443.36" y="459.54" width="3.84" height="3.84"/><rect x="416.47" y="459.54" width="3.84" height="3.84"/><rect x="408.79" y="459.54" width="3.84" height="3.84"/><rect x="401.11" y="459.54" width="3.84" height="3.84"/><rect x="397.27" y="459.54" width="3.84" height="3.84"/><rect x="393.43" y="459.54" width="3.84" height="3.84"/><rect x="389.58" y="459.54" width="3.84" height="3.84"/><rect x="385.74" y="459.54" width="3.84" height="3.84"/><rect x="477.94" y="463.38" width="3.84" height="3.84"/><rect x="466.41" y="463.38" width="3.84" height="3.84"/><rect x="447.21" y="463.38" width="3.84" height="3.84"/><rect x="443.36" y="463.38" width="3.84" height="3.84"/><rect x="428" y="463.38" width="3.84" height="3.84"/><rect x="424.16" y="463.38" width="3.84" height="3.84"/><rect x="420.32" y="463.38" width="3.84" height="3.84"/><rect x="408.79" y="463.38" width="3.84" height="3.84"/><rect x="404.95" y="463.38" width="3.84" height="3.84"/><rect x="393.43" y="463.38" width="3.84" height="3.84"/><rect x="385.74" y="463.38" width="3.84" height="3.84"/><rect x="481.78" y="467.22" width="3.84" height="3.84"/><rect x="477.94" y="467.22" width="3.84" height="3.84"/><rect x="474.1" y="467.22" width="3.84" height="3.84"/><rect x="470.25" y="467.22" width="3.84" height="3.84"/><rect x="443.36" y="467.22" width="3.84" height="3.84"/><rect x="435.68" y="467.22" width="3.84" height="3.84"/><rect x="424.16" y="467.22" width="3.84" height="3.84"/><rect x="416.47" y="467.22" width="3.84" height="3.84"/><rect x="401.11" y="467.22" width="3.84" height="3.84"/><rect x="397.27" y="467.22" width="3.84" height="3.84"/><rect x="389.58" y="467.22" width="3.84" height="3.84"/><rect x="385.74" y="467.22" width="3.84" height="3.84"/><rect x="481.78" y="471.06" width="3.84" height="3.84"/><rect x="474.1" y="471.06" width="3.84" height="3.84"/><rect x="462.57" y="471.06" width="3.84" height="3.84"/><rect x="458.73" y="471.06" width="3.84" height="3.84"/><rect x="454.89" y="471.06" width="3.84" height="3.84"/><rect x="447.21" y="471.06" width="3.84" height="3.84"/><rect x="435.68" y="471.06" width="3.84" height="3.84"/><rect x="428" y="471.06" width="3.84" height="3.84"/><rect x="424.16" y="471.06" width="3.84" height="3.84"/><rect x="420.32" y="471.06" width="3.84" height="3.84"/><rect x="416.47" y="471.06" width="3.84" height="3.84"/><rect x="412.63" y="471.06" width="3.84" height="3.84"/><rect x="408.79" y="471.06" width="3.84" height="3.84"/><rect x="404.95" y="471.06" width="3.84" height="3.84"/><rect x="397.27" y="471.06" width="3.84" height="3.84"/><rect x="389.58" y="471.06" width="3.84" height="3.84"/><rect x="470.25" y="474.9" width="3.84" height="3.84"/><rect x="466.41" y="474.9" width="3.84" height="3.84"/><rect x="462.57" y="474.9" width="3.84" height="3.84"/><rect x="454.89" y="474.9" width="3.84" height="3.84"/><rect x="451.05" y="474.9" width="3.84" height="3.84"/><rect x="439.52" y="474.9" width="3.84" height="3.84"/><rect x="428" y="474.9" width="3.84" height="3.84"/><rect x="416.47" y="474.9" width="3.84" height="3.84"/><rect x="408.79" y="474.9" width="3.84" height="3.84"/><rect x="404.95" y="474.9" width="3.84" height="3.84"/><rect x="397.27" y="474.9" width="3.84" height="3.84"/><path d="M497.14,428.81h-26.89v26.89h26.89v-26.89Zm-3.84,3.84v19.21h-19.21v-19.21h19.21Z"/><rect x="477.94" y="436.49" width="11.52" height="11.52"/><path d="M385.74,428.81v26.89h26.89v-26.89h-26.89Zm3.84,3.84h19.21v19.21h-19.21v-19.21Z"/><rect x="393.43" y="436.49" width="11.52" height="11.52"/><rect x="480.45" y="386.55" width="3.84" height="3.84"/><rect x="476.61" y="386.55" width="3.84" height="3.84"/><rect x="472.77" y="386.55" width="3.84" height="3.84"/><rect x="476.61" y="390.39" width="3.84" height="3.84"/><rect x="351.17" y="428.81" width="3.84" height="3.84"/><rect x="347.33" y="428.81" width="3.84" height="3.84"/><rect x="312.76" y="428.81" width="3.84" height="3.84"/><rect x="351.17" y="432.65" width="3.84" height="3.84"/><rect x="347.33" y="432.65" width="3.84" height="3.84"/><rect x="335.8" y="432.65" width="3.84" height="3.84"/><rect x="312.76" y="432.65" width="3.84" height="3.84"/><rect x="351.17" y="436.49" width="3.84" height="3.84"/><rect x="343.49" y="436.49" width="3.84" height="3.84"/><rect x="308.92" y="436.49" width="3.84" height="3.84"/><rect x="351.17" y="440.33" width="3.84" height="3.84"/><rect x="343.49" y="440.33" width="3.84" height="3.84"/><rect x="331.96" y="440.33" width="3.84" height="3.84"/><rect x="332.7" y="372.55" width="3.84" height="3.84"/><rect x="328.86" y="372.55" width="3.84" height="3.84"/><rect x="321.18" y="372.55" width="3.84" height="3.84"/><rect x="313.49" y="372.55" width="3.84" height="3.84"/><rect x="340.38" y="376.39" width="3.84" height="3.84"/><rect x="325.02" y="376.39" width="3.84" height="3.84"/><rect x="340.38" y="380.23" width="3.84" height="3.84"/><rect x="328.86" y="380.23" width="3.84" height="3.84"/><rect x="317.33" y="380.23" width="3.84" height="3.84"/><rect x="312.76" y="440.33" width="3.84" height="3.84"/><rect x="351.17" y="444.17" width="3.84" height="3.84"/><rect x="331.96" y="444.17" width="3.84" height="3.84"/><rect x="308.92" y="444.17" width="3.84" height="3.84"/><rect x="305.07" y="444.17" width="3.84" height="3.84"/><rect x="339.65" y="448.01" width="3.84" height="3.84"/><rect x="331.96" y="448.01" width="3.84" height="3.84"/><rect x="351.17" y="451.85" width="3.84" height="3.84"/><rect x="343.49" y="451.85" width="3.84" height="3.84"/><rect x="335.8" y="451.85" width="3.84" height="3.84"/><rect x="351.17" y="455.7" width="3.84" height="3.84"/><rect x="343.49" y="455.7" width="3.84" height="3.84"/><rect x="335.8" y="455.7" width="3.84" height="3.84"/><rect x="378.06" y="459.54" width="3.84" height="3.84"/><rect x="374.22" y="459.54" width="3.84" height="3.84"/><rect x="366.54" y="459.54" width="3.84" height="3.84"/><rect x="358.85" y="459.54" width="3.84" height="3.84"/><rect x="355.01" y="459.54" width="3.84" height="3.84"/><rect x="331.96" y="459.54" width="3.84" height="3.84"/><rect x="312.76" y="459.54" width="3.84" height="3.84"/><rect x="305.07" y="459.54" width="3.84" height="3.84"/><rect x="297.39" y="459.54" width="3.84" height="3.84"/><rect x="289.71" y="459.54" width="3.84" height="3.84"/><rect x="285.87" y="459.54" width="3.84" height="3.84"/><rect x="282.03" y="459.54" width="3.84" height="3.84"/><rect x="278.18" y="459.54" width="3.84" height="3.84"/><rect x="274.34" y="459.54" width="3.84" height="3.84"/><rect x="381.9" y="463.38" width="3.84" height="3.84"/><rect x="366.54" y="463.38" width="3.84" height="3.84"/><rect x="355.01" y="463.38" width="3.84" height="3.84"/><rect x="335.8" y="463.38" width="3.84" height="3.84"/><rect x="331.96" y="463.38" width="3.84" height="3.84"/><rect x="316.6" y="463.38" width="3.84" height="3.84"/><rect x="312.76" y="463.38" width="3.84" height="3.84"/><rect x="308.92" y="463.38" width="3.84" height="3.84"/><rect x="297.39" y="463.38" width="3.84" height="3.84"/><rect x="293.55" y="463.38" width="3.84" height="3.84"/><rect x="282.03" y="463.38" width="3.84" height="3.84"/><rect x="274.34" y="463.38" width="3.84" height="3.84"/><rect x="378.06" y="467.22" width="3.84" height="3.84"/><rect x="374.22" y="467.22" width="3.84" height="3.84"/><rect x="370.38" y="467.22" width="3.84" height="3.84"/><rect x="366.54" y="467.22" width="3.84" height="3.84"/><rect x="362.69" y="467.22" width="3.84" height="3.84"/><rect x="358.85" y="467.22" width="3.84" height="3.84"/><rect x="331.96" y="467.22" width="3.84" height="3.84"/><rect x="324.28" y="467.22" width="3.84" height="3.84"/><rect x="312.76" y="467.22" width="3.84" height="3.84"/><rect x="305.07" y="467.22" width="3.84" height="3.84"/><rect x="289.71" y="467.22" width="3.84" height="3.84"/><rect x="285.87" y="467.22" width="3.84" height="3.84"/><rect x="278.18" y="467.22" width="3.84" height="3.84"/><rect x="274.34" y="467.22" width="3.84" height="3.84"/><rect x="370.38" y="471.06" width="3.84" height="3.84"/><rect x="362.69" y="471.06" width="3.84" height="3.84"/><rect x="351.17" y="471.06" width="3.84" height="3.84"/><rect x="347.33" y="471.06" width="3.84" height="3.84"/><rect x="343.49" y="471.06" width="3.84" height="3.84"/><rect x="335.8" y="471.06" width="3.84" height="3.84"/><rect x="324.28" y="471.06" width="3.84" height="3.84"/><rect x="316.6" y="471.06" width="3.84" height="3.84"/><rect x="312.76" y="471.06" width="3.84" height="3.84"/><rect x="308.92" y="471.06" width="3.84" height="3.84"/><rect x="305.07" y="471.06" width="3.84" height="3.84"/><rect x="301.23" y="471.06" width="3.84" height="3.84"/><rect x="297.39" y="471.06" width="3.84" height="3.84"/><rect x="293.55" y="471.06" width="3.84" height="3.84"/><rect x="285.87" y="471.06" width="3.84" height="3.84"/><rect x="278.18" y="471.06" width="3.84" height="3.84"/><rect x="378.06" y="474.9" width="3.84" height="3.84"/><rect x="358.85" y="474.9" width="3.84" height="3.84"/><rect x="355.01" y="474.9" width="3.84" height="3.84"/><rect x="351.17" y="474.9" width="3.84" height="3.84"/><rect x="343.49" y="474.9" width="3.84" height="3.84"/><rect x="339.65" y="474.9" width="3.84" height="3.84"/><rect x="328.12" y="474.9" width="3.84" height="3.84"/><rect x="316.6" y="474.9" width="3.84" height="3.84"/><rect x="305.07" y="474.9" width="3.84" height="3.84"/><rect x="297.39" y="474.9" width="3.84" height="3.84"/><rect x="293.55" y="474.9" width="3.84" height="3.84"/><rect x="285.87" y="474.9" width="3.84" height="3.84"/><path d="M385.74,428.81h-26.89v26.89h26.89v-26.89Zm-3.84,3.84v19.21h-19.21v-19.21h19.21Z"/><rect x="366.54" y="436.49" width="11.52" height="11.52"/><path d="M274.34,428.81v26.89h26.89v-26.89h-26.89Zm3.84,3.84h19.21v19.21h-19.21v-19.21Z"/><rect x="282.03" y="436.49" width="11.52" height="11.52"/><rect x="17.02" y="428.81" width="3.84" height="3.84"/><rect x="13.17" y="428.81" width="3.84" height="3.84"/><rect x="-2.19" y="428.81" width="3.84" height="3.84"/><rect x="17.02" y="432.65" width="3.84" height="3.84"/><rect x="13.17" y="432.65" width="3.84" height="3.84"/><rect x="1.65" y="432.65" width="3.84" height="3.84"/><rect x="-2.19" y="432.65" width="3.84" height="3.84"/><rect x="17.02" y="436.49" width="3.84" height="3.84"/><rect x="9.33" y="436.49" width="3.84" height="3.84"/><rect x="17.02" y="440.33" width="3.84" height="3.84"/><rect x="9.33" y="440.33" width="3.84" height="3.84"/><rect x="-2.19" y="440.33" width="3.84" height="3.84"/><rect x="17.02" y="444.17" width="3.84" height="3.84"/><rect x="47.7" y="432.65" width="3.84" height="3.84"/><rect x="43.86" y="432.65" width="3.84" height="3.84"/><rect x="47.7" y="436.49" width="3.84" height="3.84"/><rect x="40.02" y="436.49" width="3.84" height="3.84"/><rect x="47.7" y="440.33" width="3.84" height="3.84"/><rect x="40.02" y="440.33" width="3.84" height="3.84"/><rect x="47.7" y="444.17" width="3.84" height="3.84"/><rect x="-2.19" y="444.17" width="3.84" height="3.84"/><rect x="5.49" y="448.01" width="3.84" height="3.84"/><rect x="-2.19" y="448.01" width="3.84" height="3.84"/><rect x="17.02" y="451.85" width="3.84" height="3.84"/><rect x="9.33" y="451.85" width="3.84" height="3.84"/><rect x="1.65" y="451.85" width="3.84" height="3.84"/><rect x="17.02" y="455.7" width="3.84" height="3.84"/><rect x="9.33" y="455.7" width="3.84" height="3.84"/><rect x="1.65" y="455.7" width="3.84" height="3.84"/><rect x="43.91" y="459.54" width="3.84" height="3.84"/><rect x="40.06" y="459.54" width="3.84" height="3.84"/><rect x="32.38" y="459.54" width="3.84" height="3.84"/><rect x="24.7" y="459.54" width="3.84" height="3.84"/><rect x="20.86" y="459.54" width="3.84" height="3.84"/><rect x="-2.19" y="459.54" width="3.84" height="3.84"/><rect x="47.75" y="463.38" width="3.84" height="3.84"/><rect x="40.06" y="451.85" width="3.84" height="3.84"/><rect x="36.22" y="451.85" width="3.84" height="3.84"/><rect x="43.91" y="455.7" width="3.84" height="3.84"/><rect x="47.7" y="451.85" width="3.84" height="3.84"/><rect x="32.38" y="463.38" width="3.84" height="3.84"/><rect x="20.86" y="463.38" width="3.84" height="3.84"/><rect x="1.65" y="463.38" width="3.84" height="3.84"/><rect x="-2.19" y="463.38" width="3.84" height="3.84"/><rect x="43.91" y="467.22" width="3.84" height="3.84"/><rect x="40.06" y="467.22" width="3.84" height="3.84"/><rect x="36.22" y="467.22" width="3.84" height="3.84"/><rect x="32.38" y="467.22" width="3.84" height="3.84"/><rect x="28.54" y="467.22" width="3.84" height="3.84"/><rect x="24.7" y="467.22" width="3.84" height="3.84"/><rect x="-2.19" y="467.22" width="3.84" height="3.84"/><rect x="36.22" y="471.06" width="3.84" height="3.84"/><rect x="28.54" y="471.06" width="3.84" height="3.84"/><rect x="17.02" y="471.06" width="3.84" height="3.84"/><rect x="13.17" y="471.06" width="3.84" height="3.84"/><rect x="9.33" y="471.06" width="3.84" height="3.84"/><rect x="1.65" y="471.06" width="3.84" height="3.84"/><rect x="43.91" y="474.9" width="3.84" height="3.84"/><rect x="24.7" y="474.9" width="3.84" height="3.84"/><rect x="20.86" y="474.9" width="3.84" height="3.84"/><rect x="17.02" y="474.9" width="3.84" height="3.84"/><rect x="9.33" y="474.9" width="3.84" height="3.84"/><rect x="5.49" y="474.9" width="3.84" height="3.84"/></g></svg>