<svg xmlns="http://www.w3.org/2000/svg" xmlns:xlink="http://www.w3.org/1999/xlink" width="1583.993" height="442.734" viewBox="0 0 1583.993 442.734">
  <defs>
    <clipPath id="clip-path">
      <rect id="Rectangle_13237" data-name="Rectangle 13237" width="1583.993" height="442.734" transform="translate(0 0)" stroke="#000" stroke-width="1"/>
    </clipPath>
  </defs>
  <g id="Group_916" data-name="Group 916" transform="translate(0 0)">
    <g id="Group_915" data-name="Group 915" transform="translate(0 0)" clip-path="url(#clip-path)">
      <path id="Path_243" data-name="Path 243" d="M9.038,352.072v42.943L16,395.5v21.482H45.112c.1-2.195.2-4.329.322-6.8l6.81-.4.345-7.105h7.128v-7.154l7.21-.5V380.86l7.425-.564V366.137l7.049-.5V343.993l7.5-.384v-21.6l7.174-.479V299.906l7.364-.438V277.93l7.075-.47V248.6l7.425-.584V219.136l7.162-.462v-21.8h7.351v-29.3l7.169-.335V145.7l7.4-.571V116.246l7.161-.459V93.993h7.382V72.152l7.17-.5V50.021l7.328-.408V35.406h14.451V49.6l-7.1.364V152.681H176.3v95.287l-7.253.578v58.24h7.068V270.45h7.133V241.115l7.445-.445V211.644H197.8V182.319l7.485-.449V160.35l7.079-.5V131l7.425-.6v-14.16l7.165-.476V93.96h7.355V79.382l7.11-.344V64.7l7.282-.344c.157-2.313.309-4.558.47-6.95l6.927-.449v-14.2l7.212-.5c.12-2.437.226-4.583.348-7.075h6.783l.354-7.254H285c.123-2.7.221-4.848.33-7.255h50.7c.111,2.226.219,4.367.347,6.922l6.895.388v6.913h21.938V28.029h21.6c.123,2.3.237,4.432.375,7H408.75c.134,2.575.246,4.717.387,7.417H423.3c.137,2.682.246,4.816.366,7.179l6.8.322c.111,2.269.215,4.406.346,7.09H445c.126,2.662.228,4.794.345,7.252l7.084.386c.1,2.283.2,4.425.315,7.129h14.205l.352,7.278h14.123c.171,2.549.322,4.8.5,7.463H503.2c.115,2.536.211,4.667.32,7.068h7.16V86.652h14.468c.125-2.682.225-4.829.342-7.319h6.9V35.326h7.157V86.351l-6.9.5c-.108,2.35-.206,4.488-.32,6.977h-6.8l-.349,7.292h-14.2c-.12,2.664-.216,4.8-.323,7.2h-7.1c-.093-2.151-.186-4.287-.3-6.875H481.911c-.14-2.657-.257-4.887-.391-7.448H467.291V86.96h-7.379v6.685l-7.147.464c-.114,2.341-.219,4.487-.338,6.936l-7.2.5v14.2l-7.095.477v21.541l-7.369.422V174.55l-7.146.424v65.8h-7.352v66.054l-7.2.467v50.973l-7.332.38v29.093h-7.244v21.924l-7.4.578v14.2l-7.092.414v6.919l-7.315.34c-.146,2.341-.287,4.587-.44,7.029h-6.716V424.9l6.828-.453V410.285l7.425-.583V395.525l7.1-.459V351.484l7.375-.559V285.216l7.18-.4v-65.66l7.544-.54V175.036l7.1-.5V145.667l7.425-.548v-28.87l7.1-.5V101.581l7.285-.553c.109-2.347.208-4.494.324-6.984h6.7V72.119l-6.77-.46V64.594H423.7c-.135-2.586-.246-4.715-.38-7.274H409.17c-.136-2.646-.25-4.877-.381-7.438H394.546V42.857H365.5c-.117,2.172-.232,4.3-.372,6.9h-14.2v7.209l6.732.434V159.876l-6.788.4v51.1h-7.353v36.654l-7.191.468v28.868l-7.414.585v21.59h-7.163v22.011l-7.232.414v21.67h-7.31v21.927l-7.4.582v14.179l-7.1.453v14.181l-7.424.591v14.2l-7.092.4v6.917l-7.472.359V431.8l-7.058.319c-.111,2.28-.215,4.418-.346,7.1H249.137c-.131,2.661-.235,4.791-.352,7.182H234.556c-.116-2.261-.225-4.4-.347-6.777l-7.036-.5-.347-7.051H219.9v-14.7h-7.15V285.188l7.022-.419V241.052h7.112V211.717l7.446-.445V182.245h7.147V160.338l7.4-.48V145.626l7.211-.479V123.518l7.321-.436V108.765h7.112V94.126l7.445-.445V79.353h6.965c.168-2.572.315-4.806.474-7.223l6.995-.459V57.535h14.487v6.753l-7.082.421V79.034h-6.976c-.163,2.574-.3,4.806-.464,7.317l-7.191.5v14.181l-7.1.5v14.191l-7.414.525V137.8l-7.148.353v14.462h-7.342v21.913l-7.175.493v28.886l-7.424.533v28.9l-7.1.469v50.954l-7.247.4V417.087l7.069.341v14.339h21.6c.118-2.223.231-4.351.362-6.805l7.15-.565V410.221l7.033-.451v-6.984l7.467-.362V388.056l7.171-.324v-21.55l7.4-.565V351.43l7.161-.458v-21.79h7.382V307.338l7.213-.507v-28.87l7.425-.554V248.542l7.1-.5V219.184l7.246-.571V189.746h-6.934c-.135,2.14-.269,4.263-.424,6.714H307.3c-.112-2.137-.224-4.268-.351-6.693l-7.18-.568V175.04l-6.931-.468V108.713h6.875V86.868l7.407-.545V72.146l7.043-.484V64.7l7.372-.365V57.486l7.125-.54c.106-2.36.2-4.513.312-6.934l7.035-.408V42.754L329,42.238c-.112-2.373-.213-4.519-.331-7.013h-6.832V28.172H292.75c-.1,2.132-.2,4.263-.322,6.719l-7.083.388c-.1,2.283-.2,4.425-.316,7.129H270.679V56.965l-7.1.44v6.867l-7.341.41v14.28l-7.109.392v14.3l-7.449.43v14.282l-7.113.382v21.655l-7.534.54v14.2l-7.1.47V174.49l-7.418.557v21.622h-7.144v29.409h-7.318v29.4h-7.239v29.406H183.5V314.2l-7.237.323v29.164h-7.334v36.635l-7.182.479v28.877l-7.427.553v28.879h-6.944V314.5h6.872V219.161l7.368-.546v-80.5h6.923V101.494H161.8v28.975l-7.408.4v21.8h-7.182v29.208l-7.464.381v21.673l-7.169.5v28.885l-7.424.533v28.874l-7.1.5v28.89l-7.412.524v21.551l-7.033.353v21.645l-7.376.53v21.558H89.073V372.94l-7.448.442v14.3h-7.11v14.661l-7.357.424c-.12,2.317-.231,4.465-.363,7l-6.74.374c-.145,2.278-.288,4.525-.448,7.041H52.682c-.164,2.519-.311,4.774-.475,7.277l-6.828.418v6.805H23.5c-.1-2.155-.191-4.287-.311-6.966H8.84V402.554H1v-51.06l8.1.627-.058-.049M307.029,101.518V123.1l-7.108.405v43.679l7.3.436v14.256h29.1v-21.6l6.861-.391V64.76h-14.21c-.111,2.4-.21,4.551-.319,6.9l-7.057.475v14.23l-7.259.472v14.21l-7.308.472" transform="translate(-0.624 -12.807)" stroke="#000" stroke-width="1"/>
      <path id="Path_244" data-name="Path 244" d="M9.038,352.072v42.943L16,395.5v21.482H45.112c.1-2.195.2-4.329.322-6.8l6.81-.4.345-7.105h7.128v-7.154l7.21-.5V380.86l7.425-.564V366.137l7.049-.5V343.993l7.5-.384v-21.6l7.174-.479V299.906l7.364-.438V277.93l7.075-.47V248.6l7.425-.584V219.136l7.162-.462v-21.8h7.351v-29.3l7.169-.335V145.7l7.4-.571V116.246l7.161-.459V93.993h7.382V72.152l7.17-.5V50.021l7.328-.408V35.406h14.451V49.6l-7.1.364V152.681H176.3v95.287l-7.253.578v58.24h7.068V270.45h7.133V241.115l7.445-.445V211.644H197.8V182.319l7.485-.449V160.35l7.079-.5V131l7.425-.6v-14.16l7.165-.476V93.96h7.355V79.382l7.11-.344V64.7l7.282-.344c.157-2.313.309-4.558.47-6.95l6.927-.449v-14.2l7.212-.5c.12-2.437.226-4.583.348-7.075h6.783l.354-7.254H285c.123-2.7.221-4.848.33-7.255h50.7c.111,2.226.219,4.367.347,6.922l6.895.388v6.913h21.938V28.029h21.6c.123,2.3.237,4.432.375,7H408.75c.134,2.575.246,4.717.387,7.417H423.3c.137,2.682.246,4.816.366,7.179l6.8.322c.111,2.269.215,4.406.346,7.09H445c.126,2.662.228,4.794.345,7.252l7.084.386c.1,2.283.2,4.425.315,7.129h14.205l.352,7.278h14.123c.171,2.549.322,4.8.5,7.463H503.2c.115,2.536.211,4.667.32,7.068h7.16V86.652h14.468c.125-2.682.225-4.829.342-7.319h6.9V35.326h7.157V86.351l-6.9.5c-.108,2.35-.206,4.488-.32,6.977h-6.8l-.349,7.292h-14.2c-.12,2.664-.216,4.8-.323,7.2h-7.1c-.093-2.151-.186-4.287-.3-6.875H481.911c-.14-2.657-.257-4.887-.391-7.448H467.291V86.96h-7.379v6.685l-7.147.464c-.114,2.341-.219,4.487-.338,6.936l-7.2.5v14.2l-7.095.477v21.541l-7.369.422V174.55l-7.146.424v65.8h-7.352v66.054l-7.2.467v50.973l-7.332.38v29.093h-7.244v21.924l-7.4.578v14.2l-7.092.414v6.919l-7.315.34c-.146,2.341-.287,4.587-.44,7.029h-6.716V424.9l6.828-.453V410.285l7.425-.583V395.525l7.1-.459V351.484l7.375-.559V285.216l7.18-.4v-65.66l7.544-.54V175.036l7.1-.5V145.667l7.425-.548v-28.87l7.1-.5V101.581l7.285-.553c.109-2.347.208-4.494.324-6.984h6.7V72.119l-6.77-.46V64.594H423.7c-.135-2.586-.246-4.715-.38-7.274H409.17c-.136-2.646-.25-4.877-.381-7.438H394.546V42.857H365.5c-.117,2.172-.232,4.3-.372,6.9h-14.2v7.209l6.732.434V159.876l-6.788.4v51.1h-7.353v36.654l-7.191.468v28.868l-7.414.585v21.59h-7.163v22.011l-7.232.414v21.67h-7.31v21.927l-7.4.582v14.179l-7.1.453v14.181l-7.424.591v14.2l-7.092.4v6.917l-7.472.359V431.8l-7.058.319c-.111,2.28-.215,4.418-.346,7.1H249.137c-.131,2.661-.235,4.791-.352,7.182H234.556c-.116-2.261-.225-4.4-.347-6.777l-7.036-.5-.347-7.051H219.9v-14.7h-7.15V285.188l7.022-.419V241.052h7.112V211.717l7.446-.445V182.245h7.147V160.338l7.4-.48V145.626l7.211-.479V123.518l7.321-.436V108.765h7.112V94.126l7.445-.445V79.353h6.965c.168-2.572.315-4.806.474-7.223l6.995-.459V57.535h14.487v6.753l-7.082.421V79.034h-6.976c-.163,2.574-.3,4.806-.464,7.317l-7.191.5v14.181l-7.1.5v14.191l-7.414.525V137.8l-7.148.353v14.462h-7.342v21.913l-7.175.493v28.886l-7.424.533v28.9l-7.1.469v50.954l-7.247.4V417.087l7.069.341v14.339h21.6c.118-2.223.231-4.351.362-6.805l7.15-.565V410.221l7.033-.451v-6.984l7.467-.362V388.056l7.171-.324v-21.55l7.4-.565V351.43l7.161-.458v-21.79h7.382V307.338l7.213-.507v-28.87l7.425-.554V248.542l7.1-.5V219.184l7.246-.571V189.746h-6.934c-.135,2.14-.269,4.263-.424,6.714H307.3c-.112-2.137-.224-4.268-.351-6.693l-7.18-.568V175.04l-6.931-.468V108.713h6.875V86.868l7.407-.545V72.146l7.043-.484V64.7l7.372-.365V57.486l7.125-.54c.106-2.36.2-4.513.312-6.934l7.035-.408V42.754L329,42.238c-.112-2.373-.213-4.519-.331-7.013h-6.832V28.172H292.75c-.1,2.132-.2,4.263-.322,6.719l-7.083.388c-.1,2.283-.2,4.425-.316,7.129H270.679V56.965l-7.1.44v6.867l-7.341.41v14.28l-7.109.392v14.3l-7.449.43v14.282l-7.113.382v21.655l-7.534.54v14.2l-7.1.47V174.49l-7.418.557v21.622h-7.144v29.409h-7.318v29.4h-7.239v29.406H183.5V314.2l-7.237.323v29.164h-7.334v36.635l-7.182.479v28.877l-7.427.553v28.879h-6.944V314.5h6.872V219.161l7.368-.546v-80.5h6.923V101.494H161.8v28.975l-7.408.4v21.8h-7.182v29.208l-7.464.381v21.673l-7.169.5v28.885l-7.424.533v28.874l-7.1.5v28.89l-7.412.524v21.551l-7.033.353v21.645l-7.376.53v21.558H89.073V372.94l-7.448.442v14.3h-7.11v14.661l-7.357.424c-.12,2.317-.231,4.465-.363,7l-6.74.374c-.145,2.278-.288,4.525-.448,7.041H52.682c-.164,2.519-.311,4.774-.475,7.277l-6.828.418v6.805H23.5c-.1-2.155-.191-4.287-.311-6.966H8.84V402.554H1v-51.06l8.1.627ZM307.029,101.518V123.1l-7.108.405v43.679l7.3.436v14.256h29.1v-21.6l6.861-.391V64.76h-14.21c-.111,2.4-.21,4.551-.319,6.9l-7.057.475v14.23l-7.259.472v14.21Z" transform="translate(-0.624 -12.807)" stroke="#000" stroke-miterlimit="10" stroke-width="2"/>
      <path id="Path_245" data-name="Path 245" d="M2536.583,413.867V391.083l7.074-.363v-21.6l7.209-.481v-28.9l7.269-.476V266.245l7.242-.507V222.164l7.421-.53V192.748l7.094-.5V163.379l7.386-.545v-21.7h7.061V119.3l7.339-.534V97.034h7.278V82.43l7.309-.4v-14.4h7.246V53.037l7.309-.412v-14.4h7.11c.135-2.618.245-4.753.368-7.157l7.042-.513c.113-2.383.216-4.529.333-7.021h6.745c.167-2.56.313-4.8.468-7.194l6.956-.448c.136-2.351.265-4.583.412-7.13h14.222V1.813h21.665c.09,2.085.183,4.209.295,6.794h14.219c.128,2.607.233,4.754.354,7.22l7.148.551V30.56l7.1.455V45.185h14.622V38.33l7.362-.4V31.023l7.053-.373c.121-2.339.236-4.569.362-7.025l7.06-.419c.116-2.335.222-4.473.348-7.031h21.387V9.024h21.867c.134,2.2.271,4.442.433,7.083h14.189v7.158h7.167V37.89l7.341.429c.116,2.345.221,4.493.343,6.961l6.942.431V67.456h7.16V170.29h-6.96v21.958l-7.19.464v14.176l-7.4.58v6.886h-7c-.171,2.565-.32,4.8-.5,7.426h-14.03v7.289h6.665c.13,2.626.237,4.772.359,7.241l7.142.557v14.178l7.1.454v21.589l7.307.363V325.6l.09-.11-7.021-.957v36.825h-7.294v21.921l-7.379.587v21.571h-7c-.165,2.572-.307,4.8-.467,7.31l-7.016.5c-.113,2.371-.215,4.507-.329,6.88l-6.808.316c-.108,2.267-.21,4.4-.334,6.989l-7.05.483c-.114,2.228-.224,4.363-.349,6.788h-35.917c-.119-2.207-.233-4.34-.363-6.75l-7.037-.517c-.111-2.369-.212-4.514-.329-7h-6.891V405.818h-7.433v14.316H2718.5c-.166,2.571-.31,4.8-.471,7.306l-7,.5c-.12,2.375-.229,4.511-.347,6.841H2674.8c-.119-2.193-.233-4.316-.368-6.821l-7.06-.511c-.1-2.3-.193-4.433-.3-6.97l-6.824-.328V405.816l-7.436-.416V376.5h-7.134c-.107,2.188-.213,4.334-.334,6.8l-7.143.551v14.185l-7.091.446v14.2l-7.379.558v6.8l-7.146.453c-.114,2.341-.218,4.488-.336,6.936l-7.074.5c-.1,2.326-.194,4.468-.3,6.957h-6.76c-.164,2.565-.307,4.8-.437,6.825l-7.333,1.763h-6.891l-14.5-1.7c-.1-1.878-.21-4.1-.336-6.576l-7.154-.422v-14.3h-7.131V383.85h-7.376v14.173l-7.223.5V412.4c-2.64.508-4.917.946-7.206,1.372-.011-.012.062.095.062.095m138.2-397.526c-.155,2.635-.281,4.767-.425,7.191h-14.133c-.12,2.461-.225,4.61-.343,7.032l-7.048.5c-.114,2.373-.217,4.51-.332,6.88l-7.11.373V52.61l-7.317.433v6.92l-7.2.489V74.679l-7.273.475V89.361l-7.21.481v21.6l-7.5.381v21.646l-7.033.5v21.518l-7.485.449v29.324h-7.13v36.362l-7.363.575v51.122h-6.827V412.785l6.943.452v14.155H2601.7c.121-2.437.228-4.586.357-7.206h6.787c.146-2.621.264-4.756.388-6.983l7.034-.481c.123-2.6.223-4.733.329-6.985l7.091-.335v-14.6h7.349v-21.73l7.162-.409V347l7.473-.444V317.187h7.109V288.2l7.449-.441V244.051l7.163-.364V163.33l6.881-.479V104.484l-7.193-.4V60.423l-6.744-.466V45.8h6.723c.106,2.416.2,4.552.3,6.817l7.409.428v14.3l6.732.369V236.367l-6.922.491v43.56l-7.424.56v28.869l-6.9.484v87.727l7,.463v14.234l7.111.459c.161,2.4.312,4.629.482,7.178h14.12c.137,2.563.256,4.793.374,6.992h6.788c.126-2.439.238-4.583.373-7.183h14.461V405.794l7.444-.442V391.028l7.109-.326v-14.31l7.339-.434V354.427l7.171-.5v-21.9h7.344v-29.16l7.23-.362V273.219h7.328V244.058l7.147-.343v-36.26l7.414-.527V178.04l7.1-.5V148.667l7.531-.535V126.116h7.168V104.559l7.38-.549V82.371l7.111-.346V67.44h7.058c.171-2.51.326-4.756.484-7.068l6.674-.354V45.727l-6.706-.444c-.16-2.473-.307-4.727-.469-7.245h-6.907c-.171-2.519-.324-4.764-.48-7.062l-6.723-.36c-.133-2.525-.246-4.669-.366-6.95h-28.767c-.114,2.4-.215,4.548-.342,7.232h-14.488v7.051l-7.369.367v6.964l-7.157.484v7.158h-6.973V89.392l7.054.462v43.6l6.926.464v65.974h-6.9v36.441l-7.391.529v14.187l-6.915.461c-.164,2.4-.317,4.639-.49,7.173h-14.118c-.126,2.547-.237,4.781-.342,6.931h-7.087c-.11-2.51-.2-4.642-.312-7.113h-6.822c-.109-2.493-.2-4.633-.3-6.956l-7.307-.532V236.832l-6.767-.466V163.295l6.949-.454V126.5l7.371-.409V104.534l7.185-.481V82.118h7.334V67.413h6.784V52.642h-6.932V38.323l-7.448-.443V23.24h-7.17v-6.9Zm108.732,213.05v21.657l-7.165.5v36.529h-7.377v21.8l-7.135.462v21.541l-7.364.438v21.625l-7.167.483v21.6l-7.106.359v36.361l6.975.526.379,7.206h14.188c.122,2.614.221,4.75.324,6.948h6.78c.15-2.5.285-4.747.437-7.287h14.162c.109-2.466.2-4.612.306-6.894l7.329-.56V398.512l7.093-.47v-14.2l7.531-.539V361.646l7.163-.373V325.022l6.89-.482V266.184l-7.151-.417V243.776h-7.167v-6.924l-7.142-.527c-.12-2.461-.226-4.608-.339-6.934Zm-50.766-125.266V82.435h-7.45V97.06h-7.129v21.664l-7.384.575v28.859l-6.783.479v95.435h6.7c.112,2.49.209,4.635.311,6.894h14.246c.107-2.467.2-4.608.3-6.887l7.423-.4V229.362l6.707-.373V104.473l-6.943-.348m87.365-28.978v14.2l-7.41.522V118.76l-7.231.482v28.931l-7.381.472v36.578h-6.807v29.04h14.085c.12-2.357.229-4.5.347-6.829l6.747-.456c.148-2.4.288-4.644.434-7.007l7.388-.376V184.855h7.157V163.317l6.938-.476V67.793h-7.229V74.67l-7.038.476" transform="translate(-1582.553 -1.122)" stroke="#000" stroke-width="1"/>
      <path id="Path_246" data-name="Path 246" d="M2536.583,413.867V391.083l7.074-.363v-21.6l7.209-.481v-28.9l7.269-.476V266.245l7.242-.507V222.164l7.421-.53V192.748l7.094-.5V163.379l7.386-.545v-21.7h7.061V119.3l7.339-.534V97.034h7.278V82.43l7.309-.4v-14.4h7.246V53.037l7.309-.412v-14.4h7.11c.135-2.618.245-4.753.368-7.157l7.042-.513c.113-2.383.216-4.529.333-7.021h6.745c.167-2.56.313-4.8.468-7.194l6.956-.448c.136-2.351.265-4.583.412-7.13h14.222V1.813h21.665c.09,2.085.183,4.209.295,6.794h14.219c.128,2.607.233,4.754.354,7.22l7.148.551V30.56l7.1.455V45.185h14.622V38.33l7.362-.4V31.023l7.053-.373c.121-2.339.236-4.569.362-7.025l7.06-.419c.116-2.335.222-4.473.348-7.031h21.387V9.024h21.867c.134,2.2.271,4.442.433,7.083h14.189v7.158h7.167V37.89l7.341.429c.116,2.345.221,4.493.343,6.961l6.942.431V67.456h7.16V170.29h-6.96v21.958l-7.19.464v14.176l-7.4.58v6.886h-7c-.171,2.565-.32,4.8-.5,7.426h-14.03v7.289h6.665c.13,2.626.237,4.772.359,7.241l7.142.557v14.178l7.1.454v21.589l7.307.363V325.6l.09-.11-7.021-.957v36.825h-7.294v21.921l-7.379.587v21.571h-7c-.165,2.572-.307,4.8-.467,7.31l-7.016.5c-.113,2.371-.215,4.507-.329,6.88l-6.808.316c-.108,2.267-.21,4.4-.334,6.989l-7.05.483c-.114,2.228-.224,4.363-.349,6.788h-35.917c-.119-2.207-.233-4.34-.363-6.75l-7.037-.517c-.111-2.369-.212-4.514-.329-7h-6.891V405.818h-7.433v14.316H2718.5c-.166,2.571-.31,4.8-.471,7.306l-7,.5c-.12,2.375-.229,4.511-.347,6.841H2674.8c-.119-2.193-.233-4.316-.368-6.821l-7.06-.511c-.1-2.3-.193-4.433-.3-6.97l-6.824-.328V405.816l-7.436-.416V376.5h-7.134c-.107,2.188-.213,4.334-.334,6.8l-7.143.551v14.185l-7.091.446v14.2l-7.379.558v6.8l-7.146.453c-.114,2.341-.218,4.488-.336,6.936l-7.074.5c-.1,2.326-.194,4.468-.3,6.957h-6.76c-.164,2.565-.307,4.8-.437,6.825l-7.333,1.763h-6.891l-14.5-1.7c-.1-1.878-.21-4.1-.336-6.576l-7.154-.422v-14.3h-7.131V383.85h-7.376v14.173l-7.223.5V412.4c-2.64.508-4.917.946-7.206,1.372C2536.51,413.76,2536.583,413.867,2536.583,413.867Zm138.2-397.526c-.155,2.635-.281,4.767-.425,7.191h-14.133c-.12,2.461-.225,4.61-.343,7.032l-7.048.5c-.114,2.373-.217,4.51-.332,6.88l-7.11.373V52.61l-7.317.433v6.92l-7.2.489V74.679l-7.273.475V89.361l-7.21.481v21.6l-7.5.381v21.646l-7.033.5v21.518l-7.485.449v29.324h-7.13v36.362l-7.363.575v51.122h-6.827V412.785l6.943.452v14.155H2601.7c.121-2.437.228-4.586.357-7.206h6.787c.146-2.621.264-4.756.388-6.983l7.034-.481c.123-2.6.223-4.733.329-6.985l7.091-.335v-14.6h7.349v-21.73l7.162-.409V347l7.473-.444V317.187h7.109V288.2l7.449-.441V244.051l7.163-.364V163.33l6.881-.479V104.484l-7.193-.4V60.423l-6.744-.466V45.8h6.723c.106,2.416.2,4.552.3,6.817l7.409.428v14.3l6.732.369V236.367l-6.922.491v43.56l-7.424.56v28.869l-6.9.484v87.727l7,.463v14.234l7.111.459c.161,2.4.312,4.629.482,7.178h14.12c.137,2.563.256,4.793.374,6.992h6.788c.126-2.439.238-4.583.373-7.183h14.461V405.794l7.444-.442V391.028l7.109-.326v-14.31l7.339-.434V354.427l7.171-.5v-21.9h7.344v-29.16l7.23-.362V273.219h7.328V244.058l7.147-.343v-36.26l7.414-.527V178.04l7.1-.5V148.667l7.531-.535V126.116h7.168V104.559l7.38-.549V82.371l7.111-.346V67.44h7.058c.171-2.51.326-4.756.484-7.068l6.674-.354V45.727l-6.706-.444c-.16-2.473-.307-4.727-.469-7.245h-6.907c-.171-2.519-.324-4.764-.48-7.062l-6.723-.36c-.133-2.525-.246-4.669-.366-6.95h-28.767c-.114,2.4-.215,4.548-.342,7.232h-14.488v7.051l-7.369.367v6.964l-7.157.484v7.158h-6.973V89.392l7.054.462v43.6l6.926.464v65.974h-6.9v36.441l-7.391.529v14.187l-6.915.461c-.164,2.4-.317,4.639-.49,7.173h-14.118c-.126,2.547-.237,4.781-.342,6.931h-7.087c-.11-2.51-.2-4.642-.312-7.113h-6.822c-.109-2.493-.2-4.633-.3-6.956l-7.307-.532V236.832l-6.767-.466V163.295l6.949-.454V126.5l7.371-.409V104.534l7.185-.481V82.118h7.334V67.413h6.784V52.642h-6.932V38.323l-7.448-.443V23.24h-7.17v-6.9Zm108.732,213.05v21.657l-7.165.5v36.529h-7.377v21.8l-7.135.462v21.541l-7.364.438v21.625l-7.167.483v21.6l-7.106.359v36.361l6.975.526.379,7.206h14.188c.122,2.614.221,4.75.324,6.948h6.78c.15-2.5.285-4.747.437-7.287h14.162c.109-2.466.2-4.612.306-6.894l7.329-.56V398.512l7.093-.47v-14.2l7.531-.539V361.646l7.163-.373V325.022l6.89-.482V266.184l-7.151-.417V243.776h-7.167v-6.924l-7.142-.527c-.12-2.461-.226-4.608-.339-6.934Zm-50.766-125.266V82.435h-7.45V97.06h-7.129v21.664l-7.384.575v28.859l-6.783.479v95.435h6.7c.112,2.49.209,4.635.311,6.894h14.246c.107-2.467.2-4.608.3-6.887l7.423-.4V229.362l6.707-.373V104.473Zm87.365-28.978v14.2l-7.41.522V118.76l-7.231.482v28.931l-7.381.472v36.578h-6.807v29.04h14.085c.12-2.357.229-4.5.347-6.829l6.747-.456c.148-2.4.288-4.644.434-7.007l7.388-.376V184.855h7.157V163.317l6.938-.476V67.793h-7.229V74.67Z" transform="translate(-1582.553 -1.122)" stroke="#000" stroke-miterlimit="10" stroke-width="2"/>
      <path id="Path_247" data-name="Path 247" d="M3328.529,325.124l7.351-1.349V251.1l7.387-.545v-36.4h7.063V177.626l7.34-.535V155.355h7.322V133.509l7.37-.544V111.259h7.063V89.432l7.393-.538V74.663l7.194-.4V59.987l7.434-.48V45.273l7.248-.478V30.587l7.165-.467c.117-2.325.229-4.556.351-6.974h6.744V37.434l-6.719.361V52.1l-7.448.428V66.81l-7.109.389V81.5l-7.477.44V103.61l-7.048.4v14.222l-7.418.519v28.9l-7.2.487v21.666h-7.351v36.664l-7.2.463v43.573l-7.28.583V419.621l7.037.378v6.883h14.492c.1-2.253.2-4.4.31-6.893h6.728l.521-7.229,6.987-.492c.12-2.439.225-4.585.347-7.076h6.942V390.5h7.323V375.91l7.167-.345V354.03l7.351-.572V331.816l7.177-.332V309.891l7.516-.533V287.712l7.119-.346V258.2h7.356V221.677l7.167-.5V184.858l7.216-.408v-7.064h-36.23v-14.5l-7.095-.492v-28.85l-7.255-.586V111.348l7.075-.4V74.679l7.128-.431V52.462h7.38V45.3l7.213-.5V30.637l7.294-.565c.107-2.333.205-4.48.319-6.975h6.741c.173-2.553.324-4.785.489-7.224l6.977-.45c.12-2.32.235-4.553.366-7.1h14.209V1.358h36.213V8.082h21.9c.165,2.67.3,4.913.453,7.332l6.754.456.354,7.038h14.2c.127,2.6.232,4.752.351,7.186l7.047.5c.117,2.361.223,4.5.344,6.962H3575.8c.167,2.551.314,4.8.477,7.266l6.848.44v7h14.445c.127,2.609.232,4.758.356,7.3h14.2c.116,2.6.216,4.83.324,7.261h21.679V60l7.161-.489V52.553l7.466-.379V8.267h7c.137-2.471.255-4.6.388-6.975l4.166-.238V44.641l-4.284.8V66.912h-6.974c-.168,2.574-.314,4.806-.479,7.321l-6.984.392c-.116,2.3-.229,4.525-.351,6.921h-28.78V74.529h-14.5c-.125-2.684-.225-4.832-.347-7.434h-14.188c-.138-2.571-.252-4.7-.38-7.087H3576.2v6.822l-7.484.378V81.728h-7.112v14.5l-7.464.387v36.368l-7.157.5v50.925l-7.344.438v73.122h-7.107v58.725l-7.458.446v36.33l-7.058.446v28.891l-7.4.576v21.554h-7.156v14.651l-7.346.426c-.123,2.328-.235,4.474-.368,7l-6.724.362c-.155,2.3-.307,4.54-.477,7.058h-6.91c-.163,2.52-.309,4.775-.469,7.248h-14.11l-.417-7.126h-14.2v-7.051l-7.334-.573V398.062l-7.052-.462V368.775H3445v6.785h7.174v36.683l7.527.543v14.207h21.627v-6.947l7.319-.419v-14.3l7.154-.356V383.4l7.509-.543V346.426h7.123V302.32h7.35V236.384l7.211-.506V177.609l7.424-.551V133.492l7.095-.5V104.133l7.385-.578V81.894h7.13V67.269l7.327-.438c.11-2.339.21-4.478.322-6.848l6.743-.468V52.454H3561.7c-.136-2.612-.248-4.748-.374-7.155l-7.037-.516c-.114-2.377-.217-4.527-.335-7h-14.244V30.6l-7.157-.491V23.079h-14.483c-.133-2.582-.242-4.708-.367-7.127h-36.155c-.11,2.287-.213,4.42-.332,6.88h-14.081v7.274l7.09.5v36.4h6.919V74.2l-6.787.447v95.165h-7.342V213.9h-7.26v36.7l-7.272.426v28.9l-7.2.529v21.545l-7.5.448v21.633l-7.064.445v21.6l-7.478.358v21.682l-7.171.5v14.191l-7.424.526v14.186l-7.1.487v14.183l-7.309.532c-.1,2.321-.194,4.461-.3,6.955h-6.758c-.167,2.568-.313,4.8-.474,7.274l-6.929.43c-.134,2.209-.264,4.337-.423,6.959h-6.77c-.133,2.622-.241,4.769-.364,7.22h-21.61c-.1-2.239-.189-4.38-.3-6.883l-6.848-.362v-14.3l-7.493-.446V383.37l-7.346-.471c0-19.378,0-38.642-.01-57.895l-.1.121M3430.616,88.886l-7.114.538v65.918h7.157V169.72h14.582v-6.892l6.9-.428c.118-2.547.216-4.69.321-6.979l7.292-.407V118.773l6.777-.473V45.215l-6.692-.4c-.117-2.561-.215-4.7-.316-6.912h-7.273v6.9l-6.877.448c-.163,2.39-.316,4.637-.473,6.945l-7.283.347V66.875l-7,.348Z" transform="translate(-2076.693 -0.652)" stroke="#000" stroke-width="1"/>
      <path id="Path_248" data-name="Path 248" d="M3328.529,325.124l7.351-1.349V251.1l7.387-.545v-36.4h7.063V177.626l7.34-.535V155.355h7.322V133.509l7.37-.544V111.259h7.063V89.432l7.393-.538V74.663l7.194-.4V59.987l7.434-.48V45.273l7.248-.478V30.587l7.165-.467c.117-2.325.229-4.556.351-6.974h6.744V37.434l-6.719.361V52.1l-7.448.428V66.81l-7.109.389V81.5l-7.477.44V103.61l-7.048.4v14.222l-7.418.519v28.9l-7.2.487v21.666h-7.351v36.664l-7.2.463v43.573l-7.28.583V419.621l7.037.378v6.883h14.492c.1-2.253.2-4.4.31-6.893h6.728l.521-7.229,6.987-.492c.12-2.439.225-4.585.347-7.076h6.942V390.5h7.323V375.91l7.167-.345V354.03l7.351-.572V331.816l7.177-.332V309.891l7.516-.533V287.712l7.119-.346V258.2h7.356V221.677l7.167-.5V184.858l7.216-.408v-7.064h-36.23v-14.5l-7.095-.492v-28.85l-7.255-.586V111.348l7.075-.4V74.679l7.128-.431V52.462h7.38V45.3l7.213-.5V30.637l7.294-.565c.107-2.333.205-4.48.319-6.975h6.741c.173-2.553.324-4.785.489-7.224l6.977-.45c.12-2.32.235-4.553.366-7.1h14.209V1.358h36.213V8.082h21.9c.165,2.67.3,4.913.453,7.332l6.754.456.354,7.038h14.2c.127,2.6.232,4.752.351,7.186l7.047.5c.117,2.361.223,4.5.344,6.962H3575.8c.167,2.551.314,4.8.477,7.266l6.848.44v7h14.445c.127,2.609.232,4.758.356,7.3h14.2c.116,2.6.216,4.83.324,7.261h21.679V60l7.161-.489V52.553l7.466-.379V8.267h7c.137-2.471.255-4.6.388-6.975l4.166-.238V44.641l-4.284.8V66.912h-6.974c-.168,2.574-.314,4.806-.479,7.321l-6.984.392c-.116,2.3-.229,4.525-.351,6.921h-28.78V74.529h-14.5c-.125-2.684-.225-4.832-.347-7.434h-14.188c-.138-2.571-.252-4.7-.38-7.087H3576.2v6.822l-7.484.378V81.728h-7.112v14.5l-7.464.387v36.368l-7.157.5v50.925l-7.344.438v73.122h-7.107v58.725l-7.458.446v36.33l-7.058.446v28.891l-7.4.576v21.554h-7.156v14.651l-7.346.426c-.123,2.328-.235,4.474-.368,7l-6.724.362c-.155,2.3-.307,4.54-.477,7.058h-6.91c-.163,2.52-.309,4.775-.469,7.248h-14.11l-.417-7.126h-14.2v-7.051l-7.334-.573V398.062l-7.052-.462V368.775H3445v6.785h7.174v36.683l7.527.543v14.207h21.627v-6.947l7.319-.419v-14.3l7.154-.356V383.4l7.509-.543V346.426h7.123V302.32h7.35V236.384l7.211-.506V177.609l7.424-.551V133.492l7.095-.5V104.133l7.385-.578V81.894h7.13V67.269l7.327-.438c.11-2.339.21-4.478.322-6.848l6.743-.468V52.454H3561.7c-.136-2.612-.248-4.748-.374-7.155l-7.037-.516c-.114-2.377-.217-4.527-.335-7h-14.244V30.6l-7.157-.491V23.079h-14.483c-.133-2.582-.242-4.708-.367-7.127h-36.155c-.11,2.287-.213,4.42-.332,6.88h-14.081v7.274l7.09.5v36.4h6.919V74.2l-6.787.447v95.165h-7.342V213.9h-7.26v36.7l-7.272.426v28.9l-7.2.529v21.545l-7.5.448v21.633l-7.064.445v21.6l-7.478.358v21.682l-7.171.5v14.191l-7.424.526v14.186l-7.1.487v14.183l-7.309.532c-.1,2.321-.194,4.461-.3,6.955h-6.758c-.167,2.568-.313,4.8-.474,7.274l-6.929.43c-.134,2.209-.264,4.337-.423,6.959h-6.77c-.133,2.622-.241,4.769-.364,7.22h-21.61c-.1-2.239-.189-4.38-.3-6.883l-6.848-.362v-14.3l-7.493-.446V383.37l-7.346-.471c0-19.378,0-38.642-.01-57.895ZM3430.616,88.886l-7.114.538v65.918h7.157V169.72h14.582v-6.892l6.9-.428c.118-2.547.216-4.69.321-6.979l7.292-.407V118.773l6.777-.473V45.215l-6.692-.4c-.117-2.561-.215-4.7-.316-6.912h-7.273v6.9l-6.877.448c-.163,2.39-.316,4.637-.473,6.945l-7.283.347V66.875l-7,.348Z" transform="translate(-2076.693 -0.652)" stroke="#000" stroke-miterlimit="10" stroke-width="2"/>
      <path id="Path_249" data-name="Path 249" d="M1509.967,384.649c-.234,4.591-.468,9.181-.724,14.2l-7.067.355v14.51h-7.019c-.125,2.487-.233,4.629-.367,7.311h-14.163l-.387,7.2-7.124.422v14.244l-7.081.467c-.115,2.345-.221,4.491-.34,6.9h-7.05c-.11-2.34-.211-4.487-.327-6.976h-6.927V421.392l-7.263-.471c-.125-2.34-.246-4.573-.377-7.012l-6.791-.317c-.117-2.281-.228-4.411-.354-6.857l-7.057-.563c-.1-2.3-.2-4.45-.308-6.941h-6.867V384.58l-7.374-.436c-.109-2.286-.211-4.421-.325-6.821h-6.839v14.1l-7.441.592V406.2l-7.1.427v14.216l-7.381.539v6.86h-7.166v14.667l-7.383.419c-.112,2.3-.216,4.446-.34,7l-6.815.38c-.1,2.259-.209,4.5-.325,7.02H1356.9c-.167,2.517-.315,4.767-.48,7.257h-35.878v-6.958l-7.3-.332c-.157-2.317-.309-4.564-.471-6.953l-6.926-.446V436.1l-7.195-.51V369.859l7.044-.422c.111-2.34.212-4.475.324-6.841h14.095v21.558l-6.934.362v14.4h-7.111v22.024l6.858.392v21.727h7.214c.167,2.517.316,4.77.479,7.25h35.9v-6.974l7.374-.335v-6.85l7.324-.586V421.38l7.177-.454c.12-2.311.234-4.541.368-7.116h6.952V399.121h7.324V384.54l7.232-.359V369.715h7.139V355.06h-6.965V340.365H1393.2v-29.41h-7.314v-29.4h-7.241v-73.5h-7.149v-43.99l7.028-.42v-43.72h7.147V98.016l7.4-.484V83.3l7.045-.465c.113-2.374.216-4.526.33-6.915h21.6c.12,2.275.233,4.418.366,6.946l6.728.367c.152,2.292.3,4.538.468,7.054h6.914c.164,2.518.311,4.773.473,7.252l6.848.451v14.182l7.417.549v21.633h7.144v29.407h7.328v36.646l7.192.472v14.164h7.411V200.909l7.1-.456v-14.2l7.425-.549V171.5l7.2-.436V156.8l7.323-.47v-14.17l7.354-.592V127.4l7.273-.474V112.7l7.247-.485V98l7.17-.459c.12-2.317.235-4.547.368-7.122h6.958V75.736h7.158c.172-2.507.325-4.753.488-7.153l6.868-.457V61.194l7.36-.418v-6.9l7.04-.375c.121-2.352.235-4.584.365-7.112h7.057c.109-2.5.207-4.729.337-7.7l14.872.982-.013,0c-.248,4.457-.5,8.913-.763,13.712l-7.007.543v6.9h-7.149V75.438l-7.442.445V90.217h-7.1v14.619l-7.453.445v21.632l-7.058.445v21.6l-7.469.36V171l-7.161.5v21.528l-7.361.436v21.669l-7.161.41v28.979l-7.291.443v28.887l-7.2.528v28.9l-7.54.541v21.689h-7.143v29.388h-7.32v29.28l-7,.315v21.6h14.221v-14.1l7.05-.445c.114-2.341.222-4.572.354-7.282l7.742.441Zm43.68-286.178-8.054-.831v7.566h-7.04v14.337l-7.44.446v14.618H1524v14.334l-7.44.446v14.619h-7.108V178.34l-7.44.446v14.62h-7.108v14.333l-7.44.445v14.621h-7.123v21.672l-7.112.542v21.538l7.2.427V317.91h7.319V289.068l7.381-.51v-21.9h7.123V237.263h7.338V215.542l7.154-.41V193.467l7.359-.436V171.5l7.158-.5V149.325l7.473-.372V127.367l7.1-.457V112.729l7.03-.545c.267-4.8.515-9.254.762-13.711l6.415-1.18V83.323h-7.094c.24,5.229.467,10.189.694,15.148m-88,153.68V215.6l-7.259-.532v-43.58l-7.1-.478V142.117l-7.533-.534V119.9l-7.115-.335V105.263l-7.132-.42c-.107-2.439-.2-4.577-.3-6.863l-6.776-.442c-.156-2.449-.3-4.7-.436-6.842h-21.864v14.211l-7,.341V126.9l-7.083.5v124.78h7.158V296.3h7.112v29.037l7.318.439v21.59h14.644V333.185l7.095-.495V318.512l7.425-.527v-14.19l7.1-.5V289.122l7.528-.546V266.589h7.122V252.151Zm-36.268,125.065v14.256l7.205.534c.123,2.4.232,4.534.365,7.138h6.829c.114,2.623.207,4.761.307,7.06l7.068.513.349,6.815h7.063V398.984h7.333v-51.13l6.906-.44V289.081l-6.926-.484V274.424h-7.542v21.584l-7.157.351v14.3l-7.438.435V325.4l-7.106.37v14.282l-7.438.437v14.3l-6.733.366v21.711l6.915.349" transform="translate(-810.235 -23.977)" stroke="#000" stroke-width="1"/>
      <path id="Path_250" data-name="Path 250" d="M1509.967,384.649c-.234,4.591-.468,9.181-.724,14.2l-7.067.355v14.51h-7.019c-.125,2.487-.233,4.629-.367,7.311h-14.163l-.387,7.2-7.124.422v14.244l-7.081.467c-.115,2.345-.221,4.491-.34,6.9h-7.05c-.11-2.34-.211-4.487-.327-6.976h-6.927V421.392l-7.263-.471c-.125-2.34-.246-4.573-.377-7.012l-6.791-.317c-.117-2.281-.228-4.411-.354-6.857l-7.057-.563c-.1-2.3-.2-4.45-.308-6.941h-6.867V384.58l-7.374-.436c-.109-2.286-.211-4.421-.325-6.821h-6.839v14.1l-7.441.592V406.2l-7.1.427v14.216l-7.381.539v6.86h-7.166v14.667l-7.383.419c-.112,2.3-.216,4.446-.34,7l-6.815.38c-.1,2.259-.209,4.5-.325,7.02H1356.9c-.167,2.517-.315,4.767-.48,7.257h-35.878v-6.958l-7.3-.332c-.157-2.317-.309-4.564-.471-6.953l-6.926-.446V436.1l-7.195-.51V369.859l7.044-.422c.111-2.34.212-4.475.324-6.841h14.095v21.558l-6.934.362v14.4h-7.111v22.024l6.858.392v21.727h7.214c.167,2.517.316,4.77.479,7.25h35.9v-6.974l7.374-.335v-6.85l7.324-.586V421.38l7.177-.454c.12-2.311.234-4.541.368-7.116h6.952V399.121h7.324V384.54l7.232-.359V369.715h7.139V355.06h-6.965V340.365H1393.2v-29.41h-7.314v-29.4h-7.241v-73.5h-7.149v-43.99l7.028-.42v-43.72h7.147V98.016l7.4-.484V83.3l7.045-.465c.113-2.374.216-4.526.33-6.915h21.6c.12,2.275.233,4.418.366,6.946l6.728.367c.152,2.292.3,4.538.468,7.054h6.914c.164,2.518.311,4.773.473,7.252l6.848.451v14.182l7.417.549v21.633h7.144v29.407h7.328v36.646l7.192.472v14.164h7.411V200.909l7.1-.456v-14.2l7.425-.549V171.5l7.2-.436V156.8l7.323-.47v-14.17l7.354-.592V127.4l7.273-.474V112.7l7.247-.485V98l7.17-.459c.12-2.317.235-4.547.368-7.122h6.958V75.736h7.158c.172-2.507.325-4.753.488-7.153l6.868-.457V61.194l7.36-.418v-6.9l7.04-.375c.121-2.352.235-4.584.365-7.112h7.057c.109-2.5.207-4.729.337-7.7l14.872.982-.013,0c-.248,4.457-.5,8.913-.763,13.712l-7.007.543v6.9h-7.149V75.438l-7.442.445V90.217h-7.1v14.619l-7.453.445v21.632l-7.058.445v21.6l-7.469.36V171l-7.161.5v21.528l-7.361.436v21.669l-7.161.41v28.979l-7.291.443v28.887l-7.2.528v28.9l-7.54.541v21.689h-7.143v29.388h-7.32v29.28l-7,.315v21.6h14.221v-14.1l7.05-.445c.114-2.341.222-4.572.354-7.282l7.742.441Zm43.68-286.178-8.054-.831v7.566h-7.04v14.337l-7.44.446v14.618H1524v14.334l-7.44.446v14.619h-7.108V178.34l-7.44.446v14.62h-7.108v14.333l-7.44.445v14.621h-7.123v21.672l-7.112.542v21.538l7.2.427V317.91h7.319V289.068l7.381-.51v-21.9h7.123V237.263h7.338V215.542l7.154-.41V193.467l7.359-.436V171.5l7.158-.5V149.325l7.473-.372V127.367l7.1-.457V112.729l7.03-.545c.267-4.8.515-9.254.762-13.711l6.415-1.18V83.323h-7.094C1553.192,88.553,1553.419,93.512,1553.647,98.471Zm-88,153.68V215.6l-7.259-.532v-43.58l-7.1-.478V142.117l-7.533-.534V119.9l-7.115-.335V105.263l-7.132-.42c-.107-2.439-.2-4.577-.3-6.863l-6.776-.442c-.156-2.449-.3-4.7-.436-6.842h-21.864v14.211l-7,.341V126.9l-7.083.5v124.78h7.158V296.3h7.112v29.037l7.318.439v21.59h14.644V333.185l7.095-.495V318.512l7.425-.527v-14.19l7.1-.5V289.122l7.528-.546V266.589h7.122V252.151Zm-36.268,125.065v14.256l7.205.534c.123,2.4.232,4.534.365,7.138h6.829c.114,2.623.207,4.761.307,7.06l7.068.513.349,6.815h7.063V398.984h7.333v-51.13l6.906-.44V289.081l-6.926-.484V274.424h-7.542v21.584l-7.157.351v14.3l-7.438.435V325.4l-7.106.37v14.282l-7.438.437v14.3l-6.733.366v21.711Z" transform="translate(-810.235 -23.977)" stroke="#000" stroke-miterlimit="10" stroke-width="2"/>
      <path id="Path_251" data-name="Path 251" d="M2214.269,253.308c-.234,4.59-.467,9.181-.724,14.214l-6.915.328c-.141,2.342-.277,4.59-.424,7.023l-6.768.451c-.112,2.3-.215,4.438-.33,6.819H2170.33c-.113-2.3-.218-4.436-.333-6.79l-7.26-.521V245.945l-6.9-.483V201.838l6.828-.452V157.822l7.375-.577V135.62h7.175V113.681l7.545-.535v-14.2l7.048-.48V91.544l7.32-.419v-14.4h7.107c.133-2.619.241-4.754.364-7.153l7.042-.51c.115-2.39.218-4.535.338-7.028h6.743c.167-2.561.314-4.8.47-7.192l6.951-.445c.138-2.356.268-4.588.419-7.165h21.306c.125-2.468.233-4.594.356-7.009h21.6c.114,2.306.22,4.441.341,6.9h14.12c.168,2.551.317,4.8.481,7.283l6.835.427v6.883l7.373.38v6.953l7.13.478V91.087l7.479.448v43.736h6.917V157.28l-6.781.46v43.579l-7.422.543v14.2l-7.094.461v14.172l-7.4.576v6.9h-7c-.169,2.565-.316,4.8-.48,7.289l-6.988.5v14.181l7.031.485v14.216l7.008.456v80.431l-6.688.336v36.346l-7.264.515v50.871h6.985v-7.25c2.834.414,5.2.76,7.578,1.117.009.012-.063-.095-.052-.082.011,4.485.011,8.958.011,13.671l-7.3.451V458.5h-14.469c-.119-2.209-.234-4.342-.364-6.75l-7-.527v-65.71l7.109-.421V348.837l6.921-.419V267.8h-6.793V253.21H2250.2V282.3h-7.227V311.7h-7.3V341.08h-7.244v21.985l-7.221.427v21.661h-7.3v21.925l-7.393.589v14.2l-7.085.4v6.917l-7.465.357v14.364l-7.062.336c-.108,2.265-.21,4.4-.333,6.985l-7.053.484c-.114,2.229-.222,4.363-.346,6.788H2148.5c-.247-4.722-.49-9.412-.735-14.1l-.059.055h29.483V429.624l7.351-.435c.115-2.309.221-4.446.342-6.858l6.934-.467V400.07h7.348V385.487l7.228-.352V355.973h7.35V334.147l7.2-.506V304.77l7.419-.537v-28.88l7.044-.5V238.521l7.461-.394V208.915h7.1V179.724l7.442-.392V150.121h7.149V128.4l7.4-.573V113.671l7.044-.491V91.517l7.3-.344c.156-2.317.308-4.563.469-6.95l6.722-.435V69.557l-6.818-.475V62.108l-7.37-.334V54.953h-36.257c-.1,2.247-.2,4.38-.307,6.845h-14.136c-.167,2.55-.313,4.781-.476,7.27l-7,.5c-.117,2.385-.223,4.524-.339,6.874l-6.8.328c-.109,2.279-.211,4.417-.334,6.976l-7.1.51V98.486l-7.1.407V113.12l-7.416.509v14.215l-7.2.471v21.674h-7.34v29.386h-7.048v80.816l6.769.423V267.5l7.367.38v6.884h7.123l.3-6.842,7.09-.414c.1-2.283.2-4.42.308-6.881l6.817-.412c.114-2.348.222-4.579.354-7.29l7.742.441-.06-.056M2286.42,98.885v21.941h-7.344v29.409h-7.241v29.387H2264.5v36.486l-6.821.424v21.585h21.313c.121-2.39.235-4.613.352-6.918l7.322-.425v-14.26l7.213-.481V201.825l6.958-.483V91.618h-7.258v6.916l-7.158.351" transform="translate(-1339.971 -24.926)" stroke="#000" stroke-width="1"/>
      <path id="Path_252" data-name="Path 252" d="M2214.269,253.308c-.234,4.59-.467,9.181-.724,14.214l-6.915.328c-.141,2.342-.277,4.59-.424,7.023l-6.768.451c-.112,2.3-.215,4.438-.33,6.819H2170.33c-.113-2.3-.218-4.436-.333-6.79l-7.26-.521V245.945l-6.9-.483V201.838l6.828-.452V157.822l7.375-.577V135.62h7.175V113.681l7.545-.535v-14.2l7.048-.48V91.544l7.32-.419v-14.4h7.107c.133-2.619.241-4.754.364-7.153l7.042-.51c.115-2.39.218-4.535.338-7.028h6.743c.167-2.561.314-4.8.47-7.192l6.951-.445c.138-2.356.268-4.588.419-7.165h21.306c.125-2.468.233-4.594.356-7.009h21.6c.114,2.306.22,4.441.341,6.9h14.12c.168,2.551.317,4.8.481,7.283l6.835.427v6.883l7.373.38v6.953l7.13.478V91.087l7.479.448v43.736h6.917V157.28l-6.781.46v43.579l-7.422.543v14.2l-7.094.461v14.172l-7.4.576v6.9h-7c-.169,2.565-.316,4.8-.48,7.289l-6.988.5v14.181l7.031.485v14.216l7.008.456v80.431l-6.688.336v36.346l-7.264.515v50.871h6.985v-7.25c2.834.414,5.2.76,7.578,1.117.009.012-.063-.095-.052-.082.011,4.485.011,8.958.011,13.671l-7.3.451V458.5h-14.469c-.119-2.209-.234-4.342-.364-6.75l-7-.527v-65.71l7.109-.421V348.837l6.921-.419V267.8h-6.793V253.21H2250.2V282.3h-7.227V311.7h-7.3V341.08h-7.244v21.985l-7.221.427v21.661h-7.3v21.925l-7.393.589v14.2l-7.085.4v6.917l-7.465.357v14.364l-7.062.336c-.108,2.265-.21,4.4-.333,6.985l-7.053.484c-.114,2.229-.222,4.363-.346,6.788H2148.5c-.247-4.722-.49-9.412-.735-14.1l-.059.055h29.483V429.624l7.351-.435c.115-2.309.221-4.446.342-6.858l6.934-.467V400.07h7.348V385.487l7.228-.352V355.973h7.35V334.147l7.2-.506V304.77l7.419-.537v-28.88l7.044-.5V238.521l7.461-.394V208.915h7.1V179.724l7.442-.392V150.121h7.149V128.4l7.4-.573V113.671l7.044-.491V91.517l7.3-.344c.156-2.317.308-4.563.469-6.95l6.722-.435V69.557l-6.818-.475V62.108l-7.37-.334V54.953h-36.257c-.1,2.247-.2,4.38-.307,6.845h-14.136c-.167,2.55-.313,4.781-.476,7.27l-7,.5c-.117,2.385-.223,4.524-.339,6.874l-6.8.328c-.109,2.279-.211,4.417-.334,6.976l-7.1.51V98.486l-7.1.407V113.12l-7.416.509v14.215l-7.2.471v21.674h-7.34v29.386h-7.048v80.816l6.769.423V267.5l7.367.38v6.884h7.123l.3-6.842,7.09-.414c.1-2.283.2-4.42.308-6.881l6.817-.412c.114-2.348.222-4.579.354-7.29l7.742.441ZM2286.42,98.885v21.941h-7.344v29.409h-7.241v29.387H2264.5v36.486l-6.821.424v21.585h21.313c.121-2.39.235-4.613.352-6.918l7.322-.425v-14.26l7.213-.481V201.825l6.958-.483V91.618h-7.258v6.916Z" transform="translate(-1339.971 -24.926)" stroke="#000" stroke-miterlimit="10" stroke-width="2"/>
      <path id="Path_253" data-name="Path 253" d="M2324.737,396.951V374.8l6.521-.431V345.5l7.4-.57V301.338l7.184-.435V271.911h7.191V308.2l-7.062.365v43.9h-7.094v29.222l-7.429.355v14.3c-2.556.2-4.671.372-6.78.546.005.007.065.064.065.064" transform="translate(-1450.38 -168.513)" stroke="#000" stroke-width="1"/>
      <path id="Path_254" data-name="Path 254" d="M2324.737,396.951V374.8l6.521-.431V345.5l7.4-.57V301.338l7.184-.435V271.911h7.191V308.2l-7.062.365v43.9h-7.094v29.222l-7.429.355v14.3c-2.556.2-4.671.372-6.78.546C2324.677,396.894,2324.737,396.951,2324.737,396.951Z" transform="translate(-1450.38 -168.513)" stroke="#000" stroke-miterlimit="10" stroke-width="2"/>
      <path id="Path_255" data-name="Path 255" d="M2124.875,959.22l-6.529-.52V944.456l-7.33-.435v-58.4l7.1-.354V870.931h14.34v14.393h-6.986v21.941l-7.045.461V936.71l6.4.365c0,7.445,0,14.82,0,22.2l.056-.053" transform="translate(-1317.078 -539.75)" stroke="#000" stroke-width="1"/>
      <path id="Path_256" data-name="Path 256" d="M2124.875,959.22l-6.529-.52V944.456l-7.33-.435v-58.4l7.1-.354V870.931h14.34v14.393h-6.986v21.941l-7.045.461V936.71l6.4.365c0,7.445,0,14.82,0,22.2Z" transform="translate(-1317.078 -539.75)" stroke="#000" stroke-miterlimit="10" stroke-width="2"/>
      <path id="Path_257" data-name="Path 257" d="M22.409,843.449V820.493H29.29c.123-2.4.233-4.537.361-7.028H50.967v21.518H29.749c-.167,2.571-.312,4.8-.452,6.968-2.454.495-4.713.951-6.958,1.428a.524.524,0,0,0,.071.07" transform="translate(-13.937 -504.136)" stroke="#000" stroke-width="1"/>
      <path id="Path_258" data-name="Path 258" d="M22.409,843.449V820.493H29.29c.123-2.4.233-4.537.361-7.028H50.967v21.518H29.749c-.167,2.571-.312,4.8-.452,6.968-2.454.495-4.713.951-6.958,1.428A.524.524,0,0,0,22.409,843.449Z" transform="translate(-13.937 -504.136)" stroke="#000" stroke-miterlimit="10" stroke-width="2"/>
      <path id="Path_259" data-name="Path 259" d="M1860.581,888.822V866.671l6.49-.411V852.122h7.276v21.45l-7.065.361v14.282c-2.548.2-4.659.369-6.766.543.006.007.065.064.065.064" transform="translate(-1160.789 -528.093)" stroke="#000" stroke-width="1"/>
      <path id="Path_260" data-name="Path 260" d="M1860.581,888.822V866.671l6.49-.411V852.122h7.276v21.45l-7.065.361v14.282c-2.548.2-4.659.369-6.766.543C1860.521,888.765,1860.581,888.822,1860.581,888.822Z" transform="translate(-1160.789 -528.093)" stroke="#000" stroke-miterlimit="10" stroke-width="2"/>
      <path id="Path_261" data-name="Path 261" d="M2091.6,28.511c-.213-2.512-.427-5.024-.665-7.831h7.142v6.648l-6.49,1.185.014,0" transform="translate(-1304.548 -12.815)" stroke="#000" stroke-width="1"/>
      <path id="Path_262" data-name="Path 262" d="M2091.6,28.511c-.213-2.512-.427-5.024-.665-7.831h7.142v6.648l-6.49,1.185Z" transform="translate(-1304.548 -12.815)" stroke="#000" stroke-miterlimit="10" stroke-width="2"/>
    </g>
  </g>
</svg>
