<svg xmlns="http://www.w3.org/2000/svg" width="492.404" height="194.598" viewBox="0 0 492.404 194.598">
  <path id="Path_598" data-name="Path 598" d="M185.738,150.076h3.118V137.3h3.205V131.01h9.184v9.473h3.176v9.564h3.2v12.718h3.165v5.972h-3.112v3.2h-6.4V175.1H198.1v3.144h-5.991v-3.08H188.93V165.6h-3.192Zm159.767-19.095h3.141v-9.565h3.177v-6.381h3.206V105.5h3.206V99.142H361V121.41h3.184v34.566h-3.131v3.181h-2.768v-3.121h-3.208v-3.167h-3.208v-3.2h-3.178v-6.381h-3.186Zm-70.274-22.3h3.1v-6.355h6.406v-3.2h6.376v-3.17h6.376v-3.2h3.21v-3.17h3.21V83.2h3.18V80h3.21v-3.17h3.18V70.477h3.21V64.112h2.77V73.64h3.238V95.888h3.151v12.724h3.21v12.754h3.18v6.384h3.21v9.539h3.167v2.761h-3.123v6.384h-3.18v6.384H329.1v6.354h-3.18v6.355h-3.21v3.2h-3.18v3.161h-9.191V159.235h-3.168v-9.16h3.119V127.8h3.18V111.858h3.191v-9.918h-6.745v6.288h-3.18v12.724h-3.18v9.569h-3.21v6.355h-3.21v3.2h-3.18v3.17h-6.376v3.163h-2.8v-3.092h-3.21v-3.2h-3.18v-6.355h-3.156ZM217.712,166h3.1v-3.169h3.21v-6.384h3.18V153.28h3.18v-9.568h3.209v-6.354H236.8v-9.568h3.18v-9.568h3.209V105.5h3.179V92.774h3.209V80.022h3.179V64.084h3.209V51.361h3.209V48.184h2.736v53.685h-3.089v22.277h-3.209v12.723H252.4v9.568h-3.18v9.568h-3.209v6.354h-3.18v3.169h-3.21v6.384h-3.18v3.2h-6.4v3.139h-5.995v-3.1h-3.18v-3.169h-3.154ZM364.678,76.842h3.14V67.275H371V57.709H374.2V48.172h3.178V38.636h3.207V32.253h3.178V25.866h2.814v9.114h-3.157V47.7h-3.207V63.635h-3.176V79.57h-3.206V98.659h-3.2v22.283h-2.766V108.258h-3.186ZM54.73,83.2h3.1V67.27h3.206V54.549h3.206V41.8h3.177V29.048h3.207V22.727h2.8v3.1h3.146v41H73.46v9.537H70.253v3.2H67.074v3.168H63.9v3.2H57.462v3.141H54.73ZM326.348,25.831h3.118V22.693h3.179V19.548h2.8v3.085h3.179v3.2h3.208v6.353h3.208v9.567h3.178v9.567h3.207V64.039H354.6V76.76h3.173V92.286h-3.092v9.567h-3.208v6.353h-3.208v9.567H345.09v9.567h-3.208v3.138h-2.8v-6.288H335.9v-9.537h-3.178V101.9H329.52V89.18h-3.172Zm60.667-6.288h2.719v5.889h-2.719ZM204.923,70.449h3.113v-15.9h3.206V41.795h3.177V35.441H217.6V29.06h3.208V25.892h3.209v-3.2h3.179V19.5H230.4V16.358h2.775V70h-3.119v12.75H226.85V89.1h-3.208V95.48h-3.178v6.382h-3.208V105h-9.187V95.527h-3.146ZM64.324,92.741h3.115V89.572h3.18V86.4h3.209V83.2h3.179V76.822h3.209V67.284h3.207V32.24H86.6V22.7h3.179V16.319h3.209V13.177h12.385v6.275h3.151V34.979h-3.106V50.886h-3.208V66.822H99.031V76.36H95.852V89.112H92.644v12.722H89.435v12.752H86.257v9.568H83.049v12.722H79.84v12.752H76.662V159.2H73.484v9.538H70.275v6.327H64.318V159.642h3.1V143.705h3.189V101.914H67.472V95.531H64.324Zm383.44-3.161H450.9V76.828h3.179V64.075h3.179V54.538h3.209V45h3.209V35.432h3.179V29.048h3.209V22.694h3.18V19.525h3.209v-3.2h3.18V13.165h5.994v6.28H488.8V47.711h-3.112V57.25h-3.179v9.567H479.3v6.354h-3.209v3.2h-3.179v3.2H469.7v6.354h-3.18v3.169h-6.4v3.2h-3.18v3.161h-9.171ZM431.788,73.66h3.132V60.907h3.209V48.154h3.18V38.615h3.18V29.076h3.21V19.507h3.18V13.124h3.21V9.986h9.161V16.25h3.174v5.975h-3.1v9.568h-3.21v6.354h-3.21v9.569h-3.18v9.539h-3.18v9.569h-3.21V79.547h-3.209V92.279h-5.965V89.174h-3.18V82.79h-3.193ZM278.4,89.583h3.133V76.832h3.177V64.081h3.207V51.36h3.207V41.794h3.178V32.256h3.178V25.874h3.208V19.522H303.9v-3.2h3.179V9.941h6.4V6.8h2.8v3.1h3.147V47.72h-3.112v9.537h-3.208V63.64H309.93v6.353h-3.178v6.382h-3.208v3.169h-3.209v3.2h-3.179v3.2h-3.209v3.168h-3.209v3.168h-6.374v3.183H281.6V92.342H278.4ZM313.084,0V3.182h-6.405v3.17h-3.21v3.2h-3.18v6.355h-3.18V22.29H293.9v6.354h-3.21v9.569h-3.18v6.355h-3.18v9.569h-3.21V66.861h-3.21V76.43h-3.18V89.1h-2.77V85.92h-3.21V57.272h-3.21V38.149h-3.1V25.8h3.175V16.264h3.114V6.386h-6.795V19.1h-3.18v3.086h-2.8v-6.33h-3.18v-3.17h-3.21v-3.2H236.8v-3.2h-3.21V3.119h-6.376V.014h-3.62V3.173h-6.376v3.2H214v3.17h-3.18v3.17h-3.21V19.1h-3.18V25.48h-3.21v9.539h-3.18v6.355h-3.21V54.128h-3.18V63.7h-3.21V76.421h-3.21V89.175h-3.18v9.54h-3.18v12.754h-3.21v12.724h-3.042v9.483h-2.848V121.038h3.148V79.956h3.21V29.014h3.1V6.38h-3.565v6.34h-3.18V19.1h-3.21v9.539h-3.21V41.4h-3.18v9.539H159.7V63.691h-3.21V73.23h-3.21V85.984H150.1V98.738H146.9v12.724h-3.181V121H140.5v12.754h-3.18v9.569h-3.21v9.539h-3.18V162.4h-3.21v6.384h-3.18v3.2h-3.21v3.08h-5.9V153.229h3.188V137.291h3.18V124.537h3.21V111.813h3.18V99.089h3.21V86.335h3.18V73.581h3.21V64.042h3.18V51.317h3.21V38.564h3.18V25.81h3.21V13.085h3.093V9.567H146.9v3.157h-3.18V25.478h-3.21v9.539H137.3V47.771h-3.18V60.5h-3.18V73.25h-3.21V85.974h-3.21V98.728h-3.18v9.539h-3.18v12.754h-3.21v9.539h-3.21v9.569h-3.18v9.539h-3.18v6.384h-3.21v9.539H98.96v6.384H95.78v3.17H92.6v3.1h-6V175.11H83.5V150.026h3.153v-9.569h3.209V127.733h3.181V115.009h3.21V105.44h3.18V92.686h3.21V79.961h3.18V67.237h3.21V54.483h3.18V35.36h3.124V22.227h-3.166V12.688h-3.21v-3.2h-3.18V6.4H92.576V9.543H89.4v3.17h-3.21V19.1h-3.18v3.092h-2.8V15.86h-3.18v-3.17h-3.21v-3.2H67.439V6.4H44.646V9.54H38.24v3.2H35.06v3.17H28.685v3.2h-3.21v3.17h-3.21v6.384h-3.18v3.17H15.9v6.384h-3.21v9.539H9.484V60.509H6.393v41.8H9.541v6.384h6.406v3.093h6.816v-3.163h3.18v-3.17h3.18v-3.2h3.21V95.9h3.21V86.328h3.18V76.789H41.9V57.665h3.141V41.42h-3.6v3.161h-3.18V70.074h-3.21V82.8H31.873v9.539h-3.21v6.384h-3.18v3.2h-3.21V105H16.307v-3.138H13.2V57.669H16.35V44.915h3.21V38.561h3.18V32.206h3.21v-3.2h3.18v-3.2h3.21v-3.17h3.18v-3.17h3.21v-3.2h6.376V13.176H63.884V16.32h3.122v9.13H63.819v6.384h-3.18V41.4h-3.21V54.127h-3.21V66.881h-3.18v9.54h-3.18V89.174h-3.21V101.9h-3.21v12.754h-3.18v12.724h-3.18V140.13h-3.21v12.724h-3.21v9.569h-3.18v6.355H22.3v3.2h-3.21v3.17h-3.21v3.117H9.912v-3.155H6.731v-3.2H3.592V153.225H6.783v-3.2h3.18v-3.17h3.119v-9.884H6.308v3.139H3.1V146.5H0v29.087H3.175v3.17H6.355v3.1h16.4v-3.16h3.18v-3.2h3.21v-3.17h3.18v-9.539h3.21V156.4h3.18v-9.569h3.21V134.106h3.18V121.382h3.21V108.628H51.5V95.983h9.191v3.144H63.81v40.979H60.623v12.754H57.516v25.9h3.172v3.086H70.7v-3.164h3.18V172.4h2.77v3.179h3.21v6.355h3.21v3.111H93.05v-3.156h3.18v-3.2h3.21v-3.17h3.21v-6.384h3.18v-6.292h2.77v15.917h3.21v3.093h13.206V175.5h3.18v-3.17h3.18v-6.384h3.21v-6.355h3.21v-9.539h3.183V137.3h3.183v-9.569h3.21V115h3.21v-9.569h3.18V92.709h3.18V79.955h3.21V67.231h3.21V54.477h3.18V45h2.7V66.878h-3.17v41.388h-3.21v57.341h-3.094v16.258h6.752v-9.547h3.21V159.594h3.21V143.655h3.18V130.931h3.18V118.177h3.21V105.453h3.21V95.884h3.18V83.13h3.21V70.406H195.3V57.682h3.21V48.113h3.18V38.544h3.21V32.189h3.18V22.65h3.21V16.266h3.18v-3.2h3.21V9.9h6.376v-3.1h2.8V9.952h3.1v2.79h-6.368v3.17h-3.18v3.17H217.2v6.384h-3.18v3.2h-3.21V35.02h-3.18v9.539h-3.21v9.569h-3.18V76.437h-3.131V92.755H201.3v12.753h3.18v3.17h3.18v3.1h6.816v-3.142h6.405v-3.2h3.18v-3.17h3.18V95.88h3.21V86.34h3.21V76.771h3.18V60.862h3.18V13.174h2.8v3.14h6.405V22.7h3.18v3.17h3.117V41.4h-3.169V54.122h-3.21V66.876h-3.18V79.6h-3.18V92.354h-3.21v12.724h-3.21v9.569h-3.18V127.4h-3.21v9.539H226.8v6.355h-3.21v6.384h-3.18v6.384H217.2v6.264h-2.77V156h-3.21v-9.569h-3.18V133.682h-3.21v-6.354h-3.18v-3.17h-3.21v-3.127h-6.786v3.181h-3.21v3.17h-3.18v6.355h-3.21V146.49h-3.106v25.9h3.172v6.354h3.18v3.17h3.21v3.131h6.786v-3.18h9.6V178.7h3.21v-3.2h3.18v-3.1h2.77v3.179h3.21v3.17h3.21v3.2h3.18v3.106h6.786v-3.178h6.405V178.7h3.21v-3.2h3.18v-3.17h3.18v-6.384h3.21v-6.355h3.21v-6.384h3.18v-6.355h3.18V134.1h3.21V121.377h3.21V99.068h3.18V95.986h2.709v15.477h-3.1v19.5h3.19v9.569h3.18v6.384h6.405V150h13.177v-3.069h5.893v9.121H297.1v9.569h-3.21v9.539h-3.18v3.17H287.5v6.384h-6.376V187.8h-9.191v-3.145h-3.18V178.3H265.64V165.955h3.151v-6.384h3.127v-6.763h-3.165V149.7h-3.62v3.158h-3.106v29.087H265.2V188.3h3.18v3.17h3.21V194.6h13.177v-3.179h3.21v-3.17h3.21v-3.2h3.18v-3.17h3.18V175.5h3.21v-9.46h2.8V169.2h3.18v6.355h3.18v3.1h10.011v-3.141h3.21v-3.2h3.18v-3.17h3.18v-6.384h3.21v-6.355h3.21v-6.384h3.18v-6.295h2.77v6.361h3.21v3.17h3.21v6.384h3.181v3.17h6.376v3.2h3.21v12.653h6.816V165.951h6.376v-3.2h3.21v-3.17h3.18v-3.17h3.21v-6.384h3.18v-9.569h3.21V127.735h3.18V115.011h3.21V99.072h3.18V86.319h3.21V70.41h3.18V57.685h3.21V41.819H412.1v40.99h-3.172V140.12h-3.121v38.55H412.6v-9.528h3.18V150.019h3.21V134.11h3.21V118.172h3.18v-15.91h3.18V89.612h2.8v3.142h3.21v3.2h3.18v3.17h3.112v9.16h-3.1v25.872h3.192v6.384h3.18v6.354h6.376v3.1h13.207v-3.141h3.21v-3.116h2.683v9.116H466.47v9.569h-3.21v9.539h-3.21v6.384h-3.18v3.17h-3.18v3.1H441.3V181.48h-3.21V175.1H435v-9.16h3.175V156.4h3.114v-3.579h-3.19V149.7H434.5v3.182h-3.123v25.872h3.167v6.354h3.21v3.2h3.18v3.089h13.207v-3.144h6.376v-3.17h3.21v-6.384h3.18V172.31h3.21v-9.539h3.18V150.047h3.21V137.293h3.18V124.539h3.21V111.815h3.122v-6.763h-3.187V101.92h-3.591v3.18h-3.21v12.724h-3.21v9.569h-3.18v9.54h-3.18v3.2h-3.21v3.09H450.87v-3.164h-3.18V133.7h-3.113V108.619h3.17v-6.354h9.6v-3.2h6.376V95.9h3.18V92.7h3.21v-3.17h3.21v-3.2h3.18V79.973h3.18v-3.2h3.21V70.419h3.21V64.035h3.18V54.5H492.4V12.669h-3.168V9.5h-3.21V6.378H479.24V9.561h-3.21v3.17h-3.18v3.1h-2.8V9.487h-3.18v-3.2h-3.21V3.207h-9.981V6.345h-3.21v3.2h-3.18v6.384h-3.21v6.355H440.9v9.539h-3.21v9.569h-3.18V54.145H431.3v9.539h-3.18V76.408h-3.21V92.347h-3.18v15.939h-3.21v15.826h-2.683V76.769h3.156V13.087h3.11V3.212h-6.777v9.512h-3.21V25.477h-3.18V38.2h-3.18V50.955h-3.21V66.864h-3.21V82.8h-3.18V95.527h-3.18v12.754h-3.21V124.19h-3.21v12.754h-3.18v9.539h-3.18v6.384h-3.21v3.17h-3.21v3.118h-2.685V140.486h3.146V118.178h3.21V99.084h3.21V79.96h3.18V60.837h3.21V44.928h3.18V32.2h3.21V22.635h3.18V13.066h3.123V.023h-3.577V3.16h-3.21v3.2h-3.18v6.384h-3.21v3.17h-3.18v6.354h-3.21v6.384h-3.18v6.384h-3.21v6.355H370.6V50.93h-3.21V60.5h-3.18V73.146h-2.8V70h-3.18V57.279h-3.21V44.525h-3.18V34.956h-3.21V28.6h-3.21V22.218h-3.18v-3.17h-3.18v-3.2H323.065V6.309h-3.21V3.11h-3.18V0Z" transform="translate(0 -0.004)"/>
</svg>
