<svg xmlns="http://www.w3.org/2000/svg" xmlns:xlink="http://www.w3.org/1999/xlink" width="1533.797" height="726.113" viewBox="0 0 1533.797 726.113">
  <defs>
    <clipPath id="clip-path">
      <rect id="Rectangle_455683" data-name="Rectangle 455683" width="1533.797" height="726.113" fill="none"/>
    </clipPath>
  </defs>
  <g id="Group_7529" data-name="Group 7529" transform="translate(0 0.001)">
    <g id="Group_7528" data-name="Group 7528" transform="translate(0 -0.001)" clip-path="url(#clip-path)">
      <path id="Path_4098" data-name="Path 4098" d="M0,548.791H13.408V537.38H40.464v34.646H27.449v81.811H40.608v23.3H54.244v11.652h13.5V677.411H94.827V654h13.637V630.7H122.1V583.931h13.5V537.159h13.637V490.5h13.5V420.487h13.637V350.355h13.5V280.225h13.636V210.209h13.637V163.437h13.5V116.781h13.5V70.009h13.562v-23.3H244.436V34.979H217.357V23.4H176.569V34.779H149.49V46.4H135.852V58.129h-13.5V69.862H108.712V81.479H95.075v23.412h-13.5v23.3h-13.5v23.273H40.933V140.144h13.3V116.732h13.5V81.64H81.375V70.022h13.5v-23.3h13.637V34.992h13.5V23.26h13.637V11.642h40.788V0H217.1V11.4h40.655V23.13H271.39V34.747h13.637V46.479h13.5V58.1h13.5V69.829H325.67V81.447h13.636V93.179h13.5v11.733h27.212v11.494h40.656V81.778h13.636V46.686h13.5V11.738h13.553V81.471H448.052V151.6h-13.5v70.016h-13.4v46.771h13.129v23.3h13.637v11.66H475V268.523h13.637V233.547h13.5V186.89h13.637V151.8h13.5V128.386h13.637V93.408h13.637V70h13.5V46.7h13.5V34.967H597.2V23.349h13.636V11.617h13.5V.043h27.212V11.423h13.5V46.4h13.475v58.451H665.5V163.3h13.18v58.337h13.637v11.645h27.078V221.89h13.5V210.158h13.637V198.54h13.637V175.128h13.5V140.036h13.637V105.059h13.5V70.082h13.637V34.99h13.5V.051h13.636V11.409h13.447V23.025H841.8V58.118H828.3V104.89H814.658v58.336H801.022v70.131h-13.5v70.017h-13.4v34.958h26.7v-11.3h27.212V315.3h13.5V303.566h13.637V291.948h13.5v-23.3h13.636V245.239h13.5V198.467h13.637V151.811H923.09V105.039h13.5v-23.3h13.5V46.651h13.637V35.032H977.37V23.3h13.5V11.725h27.212V23.1h13.5V46.4h13.478V93.167h-13.149v35.091h-13.637v11.5H991.254V93.354h13.224V81.737h13.391V35.1H991.153V46.42H977.516V69.832h-13.5v35.092H950.375v46.657h-13.5v46.657H923.235v46.771h-13.5v23.412H896.095v23.3H882.458V315.13h-13.5v11.617h-13.5v11.733H828.239V350.1H814.778V361.83h13.2v23.412h13.637v23.3h13.5v34.977H868.59v93.491H855.423v58.451H841.88V700.391h26.794V677.446h13.635V642.354h13.5V583.9h13.636V525.566h13.637V490.474h13.5V455.5h13.5V432.085h13.636V420.467h13.636V397.055h13.5V385.323h13.636V373.705h13.5V362.088h13.48V350.355h-13.142V338.623H991.136V327.005H964.105V292h13.217v11.382h13.5v11.6h13.637V245.267H1018.1V175.136h13.5V140.044h13.636V105.067h13.5V81.77h13.636V58.358h13.5V34.945h13.636V23.328h13.637V11.682h40.655V23.071h13.5V58.024h27.213V46.706h13.637V34.974h13.5V23.242H1235.3V11.753h81.382v11.29h13.636V34.775h13.5V46.507h13.637V58.124H1371.1V69.856h13.5V81.474h13.5V93.206h13.637v11.617h13.637v11.654h54.23V105h13.637V93.378h13.5V81.861H1533.8v23H1520.63V116.59h-13.637v11.617h-13.505v11.526h-67.937V128.446h-13.5V116.714h-13.636V105.1h-13.637V93.364h-13.5V81.746h-13.5v-11.6h-13.637v34.661h-13.637V151.58h-13.5v93.491h-13.637v81.7h-13.5v93.376h-13.636v70.131h-13.5v58.451h-13.637V595.38h-13.637v35.091h-13.5v34.977h-13.5v23.412h-13.636v11.618h-13.637v11.732h-13.5v11.575h-40.787V712.413h-13.5V700.8h-13.477V595.626h13.148V560.681h27.125v46.384h-13.333v35.091H1113.47v11.617h13.116v46.633h40.788v-23h13.636V654h13.5V630.588h13.636V583.931h13.5V525.594h13.637V455.464h13.5V373.653h13.637v-81.7h13.636V221.827h13.5V163.49h13.5V116.719h13.636V70.062h13.461V46.65H1303.4V35.079h-67.939V46.468h-13.5V58.086h-13.637V69.818h-13.5V93.23h-13.636v23.3h-13.505v46.655h-13.635v35.093h-13.5v23.412H1126.9v23.3h-13.636v11.732h-13.5v23.3h-13.5v11.732h-13.637v11.618h-13.636V315.1h-13.372v23.412h13.2v11.617h27.019v23.3h-40.4v11.733h-27.079v23.411h-13.636v11.618H991.074V443.6h-13.5v23.3h-13.5v35.091H950.43v46.657H936.965V677.173h13.184v23.254h54.364V689.053h13.5V677.435h13.637V654.023h13.5V630.61h13.637v-23.3h13.637V560.542h13.354V432.127h-13.005V420.534H1099.5v23h13.463v93.491h-13.193v46.771h-13.636V630.45h-13.5v23.3H1058.99V677.16h-13.5v11.733H1031.85V700.51h-13.636v11.732h-13.5v11.746c-3.125,0-5.862-.132-8.572.044-1.947.127-4.526-1.085-5.618,1.629-.12.3-1.618.26-2.478.263-6.034.02-12.072.126-18.1-.048-2.28-.066-5.2,1.245-6.732-1.68-.191-.365-1.877-.2-2.872-.2-7.666-.014-15.331-.007-23.413-.007V712.4H923.288V689.1H909.651V665.762h-13.5V688.9H882.511v23.3h-13.5v11.525H828.219V712.429h-13.5V677.337H801.162V630.681h13.322V560.549h13.359V408.776h-13.1V385.364H801.1V373.746H787.465V362.087h-13.5V373.55H760.325v70.016h-13.5v70.016H733.184v46.772h-13.5v46.771H706.044V642.1H692.407v35.092H678.9v11.617H665.4v23.275H597.461V700.773H583.824V689.041h-13.5V665.788H556.684v11.378h-13.5v11.617H529.544v11.732h-13.5v11.732H502.4v11.5H475.192V712.377h-13.5V700.759h-13.5V689.027H434.548V595.652H421.086V572.24h13.2V443.71h13.636V373.695h13.437V327.037H434.509V303.693H407.43v69.848H393.794v70.016H380.156v58.451h-13.5v58.337h-13.5v35.091H339.513v34.977H325.876v23.412h-13.5v23.3h-13.5v11.73H285.232v11.618H271.6v11.661H230.941V700.678H217.3V689.06H203.8v-23.3H190.32V548.913h13.137V537.325H217.01v58.053H203.87v35.092h13.213v46.657h13.5v11.6h40.787V677.419h13.637V654.007h13.5V618.915h13.637V583.938h13.5V525.6h13.636V467.15h13.5V397.02h13.636V327h13.637V256.872h13.5V186.856h13.393V140.085H366.676V128.467H353.038V116.735h-13.5V105H325.9V93.385h-13.5V81.768H298.758V70.1H271.679v34.8H258.042v46.657H244.405V233.37H230.9v81.7H217.4v81.81H203.762v70.017H190.125v58.451h-13.5v46.772H162.985v34.977h-13.5v23.3H135.845V653.8h-13.5v23.412H108.7v11.617H95.068v11.733H67.989v11.559h-13.5V700.7H40.848V689.084H27.212V677.352h-13.5v-46.8H.616c-.126,0-.252.005-.377,0-.04,0-.079-.05-.118-.05s-.08.034-.121.053V548.791M760.367,291.921V233.36h13.209V210.324H760.121v11.5H746.485v23.411h-13.5v11.3H678.621V245.012h-13.5v-23.3H651.484V210.249h-13.5v35.016H624.347v23.3H610.711v23.411h-13.5v11.617h-13.5V315.32H570.071v11.617H556.435v11.731h-13.5V350.4h-54.36v34.975h-13.5v81.693h-13.23V677.344H475.2v11.731h13.636v11.342H502.47V688.832h13.5V677.1h13.636V653.8h13.5v-23.3h13.635V583.739h13.5V490.253h13.634V478.931h13.151V560.6H583.644v58.449H570.4v34.975h13.444v23.3h13.636v11.731h13.5v11.325h27.211V688.859H651.83V665.449h13.5v-23.3h13.5V595.383h13.634V548.729H706.1V490.28h13.5V431.831h13.633V361.819h13.5v-69.9ZM624.613,221.839v-35.2h13.494V139.878h13.339V34.841H637.91V23.371h-13.5V35.025H610.778V46.639H597.147V70.046h-13.5V93.452H570.02v34.97h-13.5v23.292H542.895V186.8H529.4v46.762H515.774v46.648H502.58v46.5h40.512V315.058h13.633V303.444h13.632V291.715h13.5V268.308h13.631V245.017h13.5V221.839ZM1126.864,46.685H1113.1V58.3h-13.626V81.7h-13.488v35.077h-13.62v34.962h-13.617v46.753h-13.2v81.436h13.439V268.437h13.628V256.712h13.495V244.987h13.626V221.7h13.624V198.3h13.491V174.9h13.62V128.261h13.184V35.043h-26.792Z" transform="translate(0 0.001)"/>
    </g>
  </g>
</svg>
